<?xml version="1.0" encoding="utf-8"?>
<!-- Generator: Adobe Illustrator 28.1.0, SVG Export Plug-In . SVG Version: 6.00 Build 0)  -->
<svg version="1.1" id="Logo" xmlns="http://www.w3.org/2000/svg" xmlns:xlink="http://www.w3.org/1999/xlink" x="0px" y="0px"
	 viewBox="0 0 305.43 189.34" style="enable-background:new 0 0 305.43 189.34;" xml:space="preserve">
<style type="text/css">
	.st0{fill:#FFFFFF;}
	.st1{fill:#07709E;}
	.st2{fill:#30ADD8;}
</style>
<g>
	<g>
		<path class="st0" d="M130.01,145.33V66.27l-1.07-1.07h-2.14l-1.07,1.07v79.06H107.9V56.87h17.73v3.21l2.03,0.43
			c0.92-2.42,3.31-3.63,7.16-3.63h0.85c5.34,0,8.87,1.67,10.58,5.02h1.92c1.85-3.35,4.7-5.02,8.55-5.02h0.85
			c7.98,0,11.97,3.85,11.97,11.54v76.92h-17.63V66.27l-1.07-1.07h-2.14l-1.07,1.07v79.06H130.01z"/>
		<path class="st0" d="M196.14,137.85l1.07-1.07v-12.82l-1.07-1.07h-2.14l-1.07,1.07v21.37H175.1V68.62
			c0-7.83,3.88-11.75,11.64-11.75h16.13c7.98,0,11.97,3.85,11.97,11.54v76.92h-17.73v-7.48H196.14z M196.14,113.28l1.07-1.07V66.27
			l-1.07-1.07h-2.14l-1.07,1.07v45.94l1.07,1.07H196.14z"/>
		<path class="st0" d="M220.4,68.62c0-7.83,3.88-11.75,11.64-11.75h16.13c7.98,0,11.97,3.85,11.97,11.54V109h-17.63V66.27
			l-1.07-1.07h-2.14l-1.07,1.07v70.51l1.07,1.07h2.14l1.07-1.07v-23.5h17.63v20.08c0,7.98-3.99,11.97-11.97,11.97h-15.81
			c-7.98,0-11.96-3.92-11.96-11.75V68.62z"/>
		<path class="st0" d="M284.57,111.14l-1.04,1.07v33.12h-17.84V56.87h17.84v43.59l1.04,1.07h1.98l1.04-1.07V56.87h17.84v39.1
			c0,6.2-2.74,9.58-8.23,10.15l-0.11,2.14c5.56,1.07,8.33,4.35,8.33,9.83v27.24H287.7v-33.12l-1.04-1.07H284.57z"/>
	</g>
	<g>
		<path class="st1" d="M161.37,54.62c-2.07-1.2-4.68-1.76-7.79-1.76h-0.85c-2.07,0-3.93,0.45-5.53,1.39
			c-1.44,0.84-2.62,2.08-3.57,3.63h-0.82c-0.95-1.59-2.31-2.85-4.05-3.67c-1.94-0.92-4.31-1.35-7.08-1.35h-0.85
			c-2.03,0-3.74,0.31-5.13,1.02c-1.12,0.56-2,1.42-2.58,2.48l-0.48-0.1l0-2.39c0-0.26-0.11-0.52-0.29-0.71s-0.44-0.29-0.71-0.29
			H103.9c-0.26,0-0.52,0.11-0.71,0.29s-0.29,0.44-0.29,0.71v88.46c0,0.26,0.11,0.52,0.29,0.71c0.19,0.19,0.44,0.29,0.71,0.29h17.84
			c0.26,0,0.52-0.11,0.71-0.29c0.19-0.19,0.29-0.44,0.29-0.71V63.68l0.48-0.48h1.31l0.48,0.48l0,78.64c0,0.26,0.11,0.52,0.29,0.71
			c0.19,0.19,0.44,0.29,0.71,0.29h17.63c0.26,0,0.52-0.11,0.71-0.29c0.19-0.19,0.29-0.44,0.29-0.71V63.68l0.48-0.48h1.31l0.48,0.48
			l0,78.64c0,0.26,0.11,0.52,0.29,0.71c0.19,0.19,0.44,0.29,0.71,0.29h17.63c0.26,0,0.52-0.11,0.71-0.29
			c0.19-0.19,0.29-0.44,0.29-0.71V65.41c0-2.01-0.26-3.8-0.8-5.37C164.93,57.67,163.44,55.82,161.37,54.62z M164.54,141.33h-15.63
			l0-78.06c0-0.26-0.11-0.52-0.29-0.71l-1.07-1.07c-0.19-0.19-0.44-0.29-0.71-0.29h-2.14c-0.26,0-0.52,0.11-0.71,0.29l-1.07,1.07
			c-0.19,0.19-0.29,0.44-0.29,0.71v78.06l-15.63,0V63.27c0-0.26-0.11-0.52-0.29-0.71l-1.07-1.07c-0.19-0.19-0.44-0.29-0.71-0.29
			h-2.14c-0.26,0-0.52,0.11-0.71,0.29l-1.07,1.07c-0.19,0.19-0.29,0.44-0.29,0.71v78.06H104.9V54.87h15.73l0,2.21
			c0,0.47,0.33,0.88,0.79,0.98l2.03,0.43c0.48,0.1,0.96-0.16,1.14-0.62c0.39-0.99,1.01-1.67,2-2.19c1-0.51,2.4-0.8,4.22-0.8h0.85
			c2.57,0,4.64,0.41,6.22,1.16c1.58,0.76,2.7,1.84,3.46,3.32c0.17,0.34,0.51,0.55,0.89,0.55h1.92c0.36,0,0.7-0.2,0.88-0.52
			c0.86-1.55,1.9-2.65,3.16-3.39c1.25-0.74,2.73-1.12,4.51-1.12h0.85c1.91,0,3.56,0.23,4.93,0.67c2.06,0.67,3.51,1.77,4.51,3.36
			c0.99,1.59,1.53,3.74,1.53,6.5V141.33z"/>
		<path class="st1" d="M206.67,54.62c-2.07-1.2-4.68-1.76-7.79-1.76h-16.13c-2.02,0-3.83,0.25-5.41,0.79
			c-2.37,0.79-4.25,2.25-5.45,4.29c-1.21,2.04-1.78,4.61-1.78,7.67v76.71c0,0.26,0.11,0.52,0.29,0.71c0.19,0.19,0.44,0.29,0.71,0.29
			h17.84c0.26,0,0.52-0.11,0.71-0.29c0.19-0.19,0.29-0.44,0.29-0.71v-20.95l0.48-0.48h1.31l0.48,0.48v11.99l-0.78,0.78
			c-0.29,0.29-0.37,0.72-0.22,1.09c0.15,0.36,0.5,0.6,0.89,0.61v6.48c0,0.26,0.11,0.52,0.29,0.71c0.19,0.19,0.44,0.29,0.71,0.29
			h17.73c0.26,0,0.52-0.11,0.71-0.29c0.19-0.19,0.29-0.44,0.29-0.71V65.41c0-2.01-0.26-3.8-0.8-5.37
			C210.23,57.67,208.74,55.82,206.67,54.62z M209.84,141.33H194.1l0-6.48c0-0.16-0.05-0.31-0.12-0.45c0.14-0.18,0.23-0.39,0.23-0.61
			v-12.82c0-0.26-0.11-0.52-0.29-0.71l-1.07-1.07c-0.19-0.19-0.44-0.29-0.71-0.29h-2.14c-0.26,0-0.52,0.11-0.71,0.29l-1.07,1.07
			c-0.19,0.19-0.29,0.44-0.29,0.71v20.37H172.1V65.62c0-1.88,0.23-3.48,0.68-4.83c0.67-2.02,1.78-3.43,3.39-4.42
			c1.61-0.98,3.79-1.51,6.58-1.51h16.13c1.91,0,3.56,0.23,4.93,0.67c2.06,0.67,3.51,1.77,4.51,3.36c0.99,1.59,1.53,3.74,1.53,6.5
			V141.33z"/>
		<path class="st1" d="M192.85,61.49c-0.19-0.19-0.44-0.29-0.71-0.29h-2.14c-0.26,0-0.52,0.11-0.71,0.29l-1.07,1.07
			c-0.19,0.19-0.29,0.44-0.29,0.71v45.94c0,0.26,0.11,0.52,0.29,0.71l1.07,1.07c0.19,0.19,0.44,0.29,0.71,0.29h2.14
			c0.26,0,0.52-0.11,0.71-0.29l1.07-1.07c0.19-0.19,0.29-0.44,0.29-0.71V63.27c0-0.26-0.11-0.52-0.29-0.71L192.85,61.49z
			 M189.94,108.79V63.68l0.48-0.48h1.31l0.48,0.48v45.11l-0.48,0.48h-1.31L189.94,108.79z"/>
		<path class="st1" d="M251.96,54.62c-2.07-1.2-4.68-1.76-7.79-1.76h-16.13c-2.02,0-3.83,0.25-5.41,0.79
			c-2.37,0.79-4.25,2.25-5.45,4.29c-1.21,2.04-1.78,4.61-1.78,7.67v64.96c0,2.04,0.26,3.87,0.8,5.46c0.81,2.4,2.29,4.28,4.36,5.5
			c2.08,1.22,4.69,1.79,7.8,1.79h15.81c2.08,0,3.93-0.26,5.55-0.8c2.43-0.8,4.35-2.28,5.59-4.36c1.24-2.08,1.82-4.69,1.83-7.81
			v-20.08c0-0.26-0.11-0.52-0.29-0.71s-0.44-0.29-0.71-0.29h-17.63c-0.26,0-0.52,0.11-0.71,0.29s-0.29,0.44-0.29,0.71v23.09
			l-0.48,0.48h-1.31l-0.48-0.48V63.68l0.48-0.48h1.31l0.48,0.48l0,42.32c0,0.26,0.11,0.52,0.29,0.71c0.19,0.19,0.44,0.29,0.71,0.29
			h17.63c0.26,0,0.52-0.11,0.71-0.29c0.19-0.19,0.29-0.44,0.29-0.71v-40.6c0-2.01-0.26-3.8-0.8-5.37
			C255.53,57.67,254.04,55.82,251.96,54.62z M255.14,105h-15.63l0-41.73c0-0.26-0.11-0.52-0.29-0.71l-1.07-1.07
			c-0.19-0.19-0.44-0.29-0.71-0.29h-2.14c-0.26,0-0.52,0.11-0.71,0.29l-1.07,1.07c-0.19,0.19-0.29,0.44-0.29,0.71v70.51
			c0,0.26,0.11,0.52,0.29,0.71l1.07,1.07c0.19,0.19,0.44,0.29,0.71,0.29h2.14c0.26,0,0.52-0.11,0.71-0.29l1.07-1.07
			c0.19-0.19,0.29-0.44,0.29-0.71v-22.5h15.63v19.09c0,1.91-0.24,3.55-0.7,4.92c-0.69,2.05-1.83,3.5-3.49,4.51
			c-1.66,1-3.91,1.54-6.78,1.54h-15.81c-1.91,0-3.55-0.24-4.92-0.68c-2.06-0.68-3.5-1.8-4.51-3.43c-1-1.63-1.54-3.83-1.54-6.64
			V65.62c0-1.88,0.23-3.48,0.68-4.83c0.67-2.02,1.78-3.43,3.39-4.42c1.61-0.98,3.79-1.51,6.58-1.51h16.13
			c1.91,0,3.56,0.23,4.93,0.67c2.06,0.67,3.51,1.77,4.51,3.36c0.99,1.59,1.53,3.74,1.53,6.5V105z"/>
		<path class="st1" d="M297.24,103.07c1.73-0.83,3.07-2.15,3.93-3.86c0.86-1.72,1.26-3.8,1.26-6.23v-39.1
			c0-0.26-0.11-0.52-0.29-0.71s-0.44-0.29-0.71-0.29h-17.84c-0.26,0-0.52,0.11-0.71,0.29s-0.29,0.44-0.29,0.71v43.18l-0.46,0.47H281
			l-0.46-0.48V53.87c0-0.26-0.11-0.52-0.29-0.71s-0.44-0.29-0.71-0.29h-17.84c-0.26,0-0.52,0.11-0.71,0.29s-0.29,0.44-0.29,0.71
			v88.46c0,0.26,0.11,0.52,0.29,0.71c0.19,0.19,0.44,0.29,0.71,0.29h17.84c0.26,0,0.52-0.11,0.71-0.29
			c0.19-0.19,0.29-0.44,0.29-0.71v-32.71l0.46-0.48h1.24l0.46,0.48l0,32.71c0,0.26,0.11,0.52,0.29,0.71
			c0.19,0.19,0.44,0.29,0.71,0.29h17.73c0.26,0,0.52-0.11,0.71-0.29c0.19-0.19,0.29-0.44,0.29-0.71v-27.24
			c0-2.9-0.75-5.36-2.32-7.22c-1.42-1.67-3.45-2.79-5.97-3.4l0.02-0.47C295.29,103.81,296.32,103.51,297.24,103.07z M298.59,109.16
			c1.2,1.42,1.84,3.34,1.85,5.92v26.24H284.7l0-32.12c0-0.26-0.1-0.51-0.28-0.7l-1.04-1.07c-0.19-0.19-0.44-0.3-0.72-0.3h-2.08
			c-0.27,0-0.53,0.11-0.72,0.3l-1.04,1.07c-0.18,0.19-0.28,0.44-0.28,0.7v32.12h-15.84V54.87h15.84l0,42.59
			c0,0.26,0.1,0.51,0.28,0.7l1.04,1.07c0.19,0.19,0.44,0.3,0.72,0.3h1.98c0.27,0,0.53-0.11,0.72-0.3l1.04-1.07
			c0.18-0.19,0.28-0.44,0.28-0.7V54.87h15.84l0,38.1c0,2.96-0.66,5.11-1.83,6.56c-0.59,0.73-1.32,1.3-2.23,1.74
			c-0.91,0.44-1.99,0.73-3.27,0.86c-0.49,0.05-0.87,0.45-0.9,0.94l-0.11,2.14c-0.02,0.5,0.32,0.94,0.81,1.03
			C295.54,106.75,297.38,107.74,298.59,109.16z"/>
		<path class="st1" d="M113.1,51.1c1.12,0.66,2.49,0.95,4.07,0.95h7.72c1.06,0,2.02-0.13,2.87-0.42c1.29-0.42,2.34-1.23,3.01-2.35
			c0.67-1.12,0.96-2.49,0.96-4.08V19.16c0-1.12-0.13-2.13-0.41-3.04c-0.41-1.35-1.21-2.47-2.33-3.19c-1.12-0.72-2.51-1.04-4.1-1.04
			h-3.86V7.83c0-0.26-0.11-0.52-0.29-0.71s-0.44-0.29-0.71-0.29h-8.71c-0.26,0-0.52,0.11-0.71,0.29c-0.19,0.19-0.29,0.44-0.29,0.71
			v37.48c0,1.04,0.13,1.99,0.42,2.83C111.17,49.41,111.98,50.45,113.1,51.1z M112.33,8.83h6.71l0,3.54c0,0.27,0.1,0.52,0.29,0.71
			l0.52,0.52c0.19,0.19,0.44,0.29,0.71,0.29h4.33c0.89,0,1.62,0.12,2.22,0.33c0.9,0.33,1.49,0.83,1.93,1.6
			c0.44,0.78,0.7,1.88,0.69,3.33V45.2c0,0.89-0.11,1.64-0.31,2.24c-0.31,0.91-0.78,1.49-1.48,1.92c-0.71,0.43-1.71,0.68-3.05,0.68
			h-7.72c-0.89,0-1.64-0.11-2.25-0.31c-0.91-0.3-1.5-0.77-1.92-1.45c-0.42-0.69-0.68-1.67-0.68-2.98V8.83z"/>
		<path class="st1" d="M119.86,48.1c0.19,0.19,0.44,0.29,0.71,0.29h1.04c0.27,0,0.52-0.1,0.71-0.29l0.52-0.52
			c0.19-0.19,0.29-0.44,0.29-0.71V16.97c0-0.26-0.11-0.52-0.29-0.71l-0.52-0.52c-0.19-0.19-0.44-0.29-0.71-0.29h-1.04
			c-0.26,0-0.52,0.11-0.71,0.29l-0.52,0.52c-0.19,0.19-0.29,0.44-0.29,0.71v29.91c0,0.27,0.1,0.52,0.29,0.71L119.86,48.1z
			 M121.13,17.44v28.95h-0.09V17.44H121.13z"/>
		<path class="st1" d="M141.99,48.1c0.19,0.19,0.44,0.29,0.71,0.29h1.04c0.27,0,0.52-0.1,0.71-0.29l0.52-0.52
			c0.19-0.19,0.29-0.44,0.29-0.71V12.42c0-0.26-0.11-0.52-0.29-0.71l-0.52-0.52c-0.19-0.19-0.44-0.29-0.71-0.29h-1.04
			c-0.27,0-0.52,0.1-0.71,0.29l-0.52,0.52c-0.19,0.19-0.29,0.44-0.29,0.71v34.45c0,0.26,0.11,0.52,0.29,0.71L141.99,48.1z
			 M143.26,12.9v33.49h-0.09V12.9H143.26z"/>
		<path class="st1" d="M135.23,51.1c1.12,0.66,2.49,0.95,4.07,0.95h7.72c1.06,0,2.02-0.13,2.87-0.42c1.29-0.42,2.34-1.23,3.01-2.35
			c0.67-1.12,0.96-2.49,0.96-4.08V13.47c0-1.03-0.13-1.96-0.42-2.79c-0.43-1.25-1.24-2.28-2.36-2.92c-1.12-0.64-2.48-0.93-4.06-0.93
			h-7.88c-1.03,0-1.97,0.13-2.81,0.41c-1.26,0.42-2.29,1.22-2.94,2.32c-0.65,1.1-0.94,2.45-0.94,4.01v31.73
			c0,1.04,0.13,1.99,0.42,2.83C133.3,49.41,134.11,50.45,135.23,51.1z M134.46,13.57c0-0.87,0.11-1.61,0.31-2.2
			c0.3-0.89,0.75-1.46,1.44-1.88c0.68-0.41,1.65-0.66,2.95-0.66h7.88c0.89,0,1.64,0.11,2.25,0.3c0.91,0.3,1.5,0.75,1.92,1.43
			c0.42,0.67,0.67,1.62,0.67,2.91V45.2c0,0.89-0.11,1.64-0.31,2.24c-0.31,0.91-0.78,1.49-1.48,1.92c-0.71,0.43-1.71,0.68-3.05,0.68
			h-7.72c-0.89,0-1.64-0.11-2.25-0.31c-0.91-0.3-1.5-0.77-1.92-1.45c-0.42-0.69-0.68-1.67-0.68-2.98V13.57z"/>
		<path class="st1" d="M175.04,49.28c0.67-1.12,0.96-2.49,0.96-4.08V19.16c0-1.12-0.13-2.13-0.41-3.04
			c-0.41-1.35-1.21-2.47-2.33-3.19c-1.12-0.72-2.51-1.04-4.1-1.04h-3.86V7.83c0-0.26-0.11-0.52-0.29-0.71s-0.44-0.29-0.71-0.29
			h-8.71c-0.26,0-0.52,0.11-0.71,0.29c-0.19,0.19-0.29,0.44-0.29,0.71v37.48c0,1.04,0.13,1.99,0.42,2.83
			c0.42,1.27,1.24,2.31,2.36,2.96c1.12,0.66,2.49,0.95,4.07,0.95h7.72c1.06,0,2.02-0.13,2.87-0.42
			C173.32,51.21,174.37,50.4,175.04,49.28z M161.43,50.05c-0.89,0-1.64-0.11-2.25-0.31c-0.91-0.3-1.5-0.77-1.92-1.45
			c-0.42-0.69-0.68-1.67-0.68-2.98V8.83h6.71l0,3.54c0,0.27,0.1,0.52,0.29,0.71l0.52,0.52c0.19,0.19,0.44,0.29,0.71,0.29h4.33
			c0.89,0,1.62,0.12,2.22,0.33c0.9,0.33,1.49,0.83,1.93,1.6c0.44,0.78,0.7,1.88,0.69,3.33V45.2c0,0.89-0.11,1.64-0.31,2.24
			c-0.31,0.91-0.78,1.49-1.48,1.92c-0.71,0.43-1.71,0.68-3.05,0.68H161.43z"/>
		<path class="st1" d="M166.58,15.74c-0.19-0.19-0.44-0.29-0.71-0.29h-1.04c-0.26,0-0.52,0.11-0.71,0.29l-0.52,0.52
			c-0.19,0.19-0.29,0.44-0.29,0.71v29.91c0,0.27,0.1,0.52,0.29,0.71l0.52,0.52c0.19,0.19,0.44,0.29,0.71,0.29h1.04
			c0.27,0,0.52-0.1,0.71-0.29l0.52-0.52c0.19-0.19,0.29-0.44,0.29-0.71V16.97c0-0.26-0.11-0.52-0.29-0.71L166.58,15.74z
			 M165.3,46.39V17.44h0.09v28.95H165.3z"/>
	</g>
	<path class="st2" d="M115.92,98.52c7.27,3.04,13.25,6.59,13.25,6.59c-0.59,0-1.03-0.09-1.43,0.02c-1.37,0.37-2.68,0.09-4.03-0.19
		c-2.07-0.43-4.16-0.74-6.25-1.1c-0.15-0.03-0.32,0.05-0.47,0.07l-0.01,0.17c0.29,0.11,0.58,0.23,0.96,0.38
		c-1.6,0.12-3.14,0.26-4.67,0.34c-0.22,0.01-0.5-0.18-0.68-0.35c-0.32-0.3-0.49-0.28-0.76,0.08c-0.49,0.67-1.1,1.2-2.04,1.12
		c-0.37-0.03-0.76,0.04-1.13,0.09c-1.51,0.17-3.01,0.35-4.52,0.53c-0.27,0.03-0.6,0-0.79,0.14c-0.94,0.73-2.02,0.46-2.98,0.28
		c-1.83-0.34-3.67-0.79-5.42-1.42c-1.36-0.49-2.78-0.78-3.95-1.88c-4.52-4.24-9.5-7.95-14.46-11.66c-0.19-0.14-0.44-0.21-0.79-0.37
		c0.12,2.11,0.21,4.04,0.36,5.96c0.02,0.29,0.31,0.58,0.53,0.83c0.88,1.01,1.89,1.93,2.63,3.03c0.77,1.14,1.27,2.45,1.9,3.68
		c0.3,0.6,0.32,1.16,0.04,1.8c-0.3,0.69-0.46,1.44-0.7,2.15c-0.15,0.45-0.01,0.69,0.46,0.72c1.81,0.1,3.39,0.86,4.94,1.72
		c1.69,0.93,3.35,1.88,4.37,3.62c0.73,1.26,1.51,2.5,2.09,3.82c0.39,0.9,0.47,1.95,0.7,2.92c0.46,1.91,0.58,3.81-0.07,5.71
		c-0.22,0.62-0.4,1.25-0.68,2.1c0,0-0.61,1.02-1.41,2.4c-1.5,2.57-3.06,5.1-4.59,7.65c-0.11,0.18-0.21,0.37-0.38,0.66
		c2.01,1.19,3.92,2.47,5.96,3.5c4.58,2.31,9.21,4.52,13.86,6.71c1.95,0.92,3.98,1.69,6,2.47c2.8,1.08,5.59,2.2,8.45,3.11
		c3.28,1.04,6.61,1.96,9.96,2.72c1.7,0.39,3.5,0.41,5.26,0.44c1.54,0.03,3.05-0.23,4.63,0.12c1.29,0.29,2.69,0.1,4.04,0.09
		c2.37-0.02,4.75-0.07,7.12-0.11c1.43-0.03,2.85-0.07,4.28-0.09l2.23,0.45c-0.12-0.15-0.22-0.31-0.28-0.68
		c0.49,0.1,1.02,0.11,1.45,0.32c0.6,0.29,1.12,0.49,1.78,0.19c0.28-0.13,0.64-0.13,0.96-0.12c4.91,0.2,9.82,0.38,14.72,0.65
		c2.04,0.11,4.06,0.46,6.09,0.66c1.44,0.14,2.89,0.13,4.32,0.32c2.96,0.4,5.91,0.91,8.87,1.36c2.53,0.38,5.06,0.73,7.59,1.12
		c2.04,0.32,4.08,0.67,6.11,1.03c0.23,0.04,0.44,0.17,0.64,0.32c-1.52,0.25-3.02,0.24-4.52-0.1c-0.68-0.15-1.4-0.15-2.1-0.27
		c-2.96-0.47-5.9-0.98-8.86-1.42c-2.66-0.4-5.33-0.8-8.01-1.08c-4.45-0.47-8.89-0.95-13.35-1.25c-3.18-0.21-6.38-0.15-9.58-0.2
		c-0.5-0.01-1.01-0.03-1.5,0.04c-0.19,0.02-0.35,0.27-0.49,0.55c15.15,0.43,30.13,2.12,44.78,4.58c0.26,0.36,0.35,0.67,0.53,0.72
		c0.7,0.21,1.43,0.33,2.14,0.49c0.46,0.11,0.92,0.24,1.37,0.36c-0.01,0.1-0.01,0.2-0.02,0.3c-1.47,0-2.94,0-4.4,0l-0.01,0.26
		c0.75,0.18,1.51,0.37,2.26,0.54c0.16,0.04,0.42,0,0.47,0.08c0.49,0.83,0.97,0.31,1.49-0.08c0.18,0.28,0.33,0.52,0.49,0.77
		c-0.34,0.5-0.63,0.59-1.3,0.5c-1.3-0.16-2.64,0.05-3.97,0.1l-0.01,0.27c0.99,0.14,1.99,0.27,3.02,0.41
		c-0.04,0.12-0.1,0.25-0.18,0.49c0.96,0.1,1.87,0.19,2.79,0.28c-0.39,0.2-0.79,0.4-1.19,0.6l0.12,0.16
		c0.43,0.06,0.85,0.11,1.28,0.17l-0.01,0.25l-0.27,0.11c-1.45-0.39-2.53,0.74-3.85,0.91c-0.63,0.08-1.25,0.18-1.91,0.46
		c0.33,0.1,0.67,0.2,1.07,0.33c-0.2,0.08-0.34,0.14-0.48,0.2l0.02,0.16c1.01,0,2.02,0,3.03,0c0,0.11,0.01,0.22,0.01,0.33
		c-0.4,0-0.79,0-1.19,0l-0.22,0.01c-1.29,0.52-2.62,0.3-3.95,0.22c-0.71-0.05-1.49,0.02-2.16,0.25c-2.08,0.73-4.21,0.34-6.32,0.4
		c-1,0.03-1.99,0.17-2.99,0.14c-1.4-0.05-2.81-0.21-4.21-0.32c-0.46-0.04-0.93-0.06-1.39-0.08c-1.58-0.06-3.16-0.16-4.75-0.14
		c-1.93,0.02-3.86,0.14-5.79,0.23c-0.14,0.01-0.28,0.11-0.43,0.34c0.4,0.09,0.79,0.22,1.19,0.27c1.84,0.21,3.68,0.4,5.52,0.57
		c2,0.18,4,0.38,6.01,0.46c0.79,0.03,1.59-0.37,2.38-0.38c1.37-0.01,2.74,0.2,4.11,0.2c1.16,0,2.31-0.17,3.47-0.28
		c0.3-0.03,0.59-0.11,0.88-0.11c3.63,0.1,7.26,0.25,10.88,0.3c1.36,0.02,2.71-0.16,4.07-0.25c0.02,0.09,0.05,0.18,0.07,0.27
		c-0.29,0.09-0.57,0.23-0.86,0.26c-0.82,0.1-1.7-0.06-2.28,0.81c-0.1,0.15-0.51,0.12-0.77,0.15c-0.64,0.09-1.28,0.17-1.93,0.44
		c0.42,0.03,0.83,0.06,1.25,0.09l0,0.09c-0.85,0.16-1.7,0.4-2.55,0.46c-1.84,0.11-3.69,0.2-5.53,0.15
		c-4.77-0.11-9.55-0.29-14.32-0.44c-3.5-0.11-7.01-0.25-10.51-0.31c-2.99-0.05-5.99-0.06-8.98,0.01c-1.07,0.03-2.14,0.34-3.2,0.53
		l-0.02,0.18c0.14,0.26,0.29,0.51,0.43,0.77c-0.33,0.15-0.66,0.42-1,0.44c-2.86,0.18-5.64,0.71-8.43,1.4
		c-1.26,0.31-2.45,0.82-3.71,1.1c-1.45,0.33-2.94,0.47-4.4,0.74c-0.96,0.18-1.89,0.53-2.85,0.66c-0.51,0.07-1.08-0.14-1.6-0.29
		c-0.56-0.16-1.11-0.4-1.66-0.58c-0.23-0.08-0.48-0.07-0.71-0.15c-1.14-0.4-2.29-0.81-3.42-1.25c-0.42-0.16-0.81-0.4-1.2-0.59
		c-0.45,0-0.99,0.12-1.44-0.02c-3.42-1.03-6.86-2.02-10.23-3.21c-4.08-1.45-8.14-2.97-12.12-4.67c-5.15-2.2-10.22-4.6-14.88-7.79
		c-1.67-1.14-3.54-1.97-5.3-2.97c-6-3.4-12.1-6.62-17.76-10.6c-0.69-0.48-1.21-0.5-1.82,0.15c-0.55,0.59-1.23,1.06-1.85,1.57
		c-0.13,0.1-0.25,0.25-0.4,0.27c-1.83,0.33-2.72,2.08-4.29,2.8c-0.19,0.09-0.2,0.53-0.35,0.76c-0.17,0.25-0.46,0.68-0.61,0.64
		c-0.77-0.18-1.23,0.35-1.77,0.68c-0.58,0.35-1.07,0.84-1.67,1.15c-0.53,0.28-1.16,0.37-1.73,0.58c-0.85,0.33-1.69,0.66-2.51,1.05
		c-1.66,0.79-3.29,1.63-4.94,2.41c-0.33,0.16-0.79,0.06-1.12,0.22c-0.71,0.35-1.35,0.86-2.07,1.19c-0.88,0.4-1.82,0.68-2.74,1.01
		c-0.38,0.14-0.76,0.3-1.15,0.4c-0.28,0.07-0.74,0.21-0.85,0.08c-0.65-0.72-1.27-0.23-1.92-0.07c-0.31,0.07-0.64,0.09-1.1,0.14
		c0.17-0.33,0.3-0.55,0.4-0.78l-0.96-0.13c-0.67,0.66-1.35,1.36-2.4,1.31c-1.31-0.06-2.61-0.12-3.92-0.25
		c-0.44-0.04-0.88-0.26-1.3-0.45c-0.59-0.26-1.03-0.17-1.64,0.17c-1.06,0.59-2.29,0.89-3.51,1.14c0.12-0.2,0.25-0.4,0.52-0.84
		c-1.29,0.22-2.38,0.38-3.45,0.58c-0.67,0.12-1.34,0.68-2-0.07c-0.09-0.1-0.48-0.08-0.61,0.03c-0.81,0.7-1.54,0.26-2.29-0.05
		L20,167.75c0.53,0,1.07,0.01,1.6,0c0.49-0.02,0.97-0.06,1.46-0.1c0.19-0.02,0.38-0.13,0.56-0.1c1.74,0.3,3.28-0.7,4.96-0.79
		c0.13-0.01,0.36-0.15,0.37-0.25c0.01-0.15-0.08-0.41-0.21-0.46c-0.95-0.43-1.91-1.1-2.9-1.16c-2.17-0.14-4.28-0.48-6.38-0.96
		c-0.63-0.14-1.29-0.21-1.92-0.34c-0.17-0.03-0.45-0.2-0.44-0.28c0.1-1.17-0.99-0.8-1.49-1.17c-0.22-0.16-0.43-0.35-0.65-0.52
		l0.15-0.17c1.35,0.53,2.7,1.1,4.07,1.57c0.28,0.1,0.74-0.04,1-0.22c0.13-0.1,0.09-0.57,0-0.83c-0.2-0.61-0.18-1.34-1.24-1.36
		c-0.51-0.01-1.01-0.5-1.71-0.61c-1.42-0.23-2.58-1.21-3.4-2.44c-0.23-0.34-0.38-0.86,0.26-1.15c0.15-0.07,0.19-0.39,0.29-0.62
		c0.67,0.45,1.23,0.49,1.4-0.53c0.31,0.16,0.57,0.29,0.86,0.44c0.72-0.38,0.61-1.03,0.54-1.68c-0.09-0.86-0.13-1.73-0.13-2.58
		c0.31,1.01,0.57,2.04,0.95,3.03c0.93,2.42,2.99,3.57,5.26,4.37c1.63,0.58,3.27,1.25,5.05,1.15c1.89-0.11,3.82-0.15,5.66-0.53
		c5.34-1.09,10.1-3.58,14.58-6.57c3.06-2.04,5.94-4.34,8.9-6.53c0.43-0.32,0.84-0.68,1.28-0.99c0.17-0.11,0.5-0.22,0.61-0.14
		c0.18,0.14,0.64-0.88,0.64-0.88c0.84-0.72,1.68-1.45,2.63-2.27c-1.75-1.29-3.41-2.49-5.04-3.74c-0.6-0.46-1.14-0.93-2.02-0.47
		c0.8-0.63,0.36-1.04-0.11-1.47c-0.77-0.71-1.63-1.14-2.72-1.07c-0.65,0.04-1.32-0.04-1.96,0.03c-0.84,0.09-1.67,0.26-2.43,0.39
		c0.04-0.06,0.18-0.29,0.41-0.68c-0.6-0.09-1.11-0.22-1.63-0.23c-0.95,0-1.33-0.28-1.46-1.29c-0.72,0.03-1.51,0.14-1.99-0.64
		c-0.05-0.08-0.39-0.07-0.54,0c-1.55,0.7-2.4-0.31-2.76-1.72c-0.38-1.49-0.57-3.02,0.34-4.5c0.43-0.7,0.65-1.56,0.42-2.45
		c-0.03-0.14,0.18-0.4,0.34-0.51c0.33-0.22,0.71-0.37,1.13-0.59c-0.67-0.91-0.1-1.11,0.61-1.33c0.48-0.15,1.32-0.21,0.66-1.1
		c0.99-0.3,1.34-1.18,1.59-1.96c0.36-1.14,0.72-1.59,1.95-1.59c0.52,0,1.03,0.05,1.55,0.08c1.07,0.05,1.78-0.63,2.45-1.29
		c2.84-2.77,5.64-5.58,8.45-8.37c0.42-0.42,0.6-0.88,0.19-1.61c-0.75,0.47-1.54,0.84-2.18,1.38c-2.75,2.32-5.45,4.7-8.2,7.01
		c-0.47,0.39-1.19,0.47-1.68,0.84c-0.83,0.63-1.69,0.84-2.69,0.62c-0.09-0.02-0.24,0.21-0.34,0.33c-0.49,0.59-1.07,0.88-1.87,0.73
		c-0.22-0.04-0.49,0.04-0.69,0.14c-1.6,0.79-3.13,1.78-4.8,2.36c-2.07,0.72-4.25,1.11-6.39,1.62c-0.21,0.05-0.48-0.12-0.79-0.2
		c0.17-0.34,0.29-0.57,0.51-1c-2.23,0.23-4.12,0.94-5.89,2.13c0.17-0.23,0.33-0.47,0.5-0.7l-0.1-0.16c-0.8,0.41-1.63,0.78-2.41,1.22
		c-1.31,0.75-2.56,1.6-3.89,2.32c-0.52,0.28-1.18,0.32-1.76,0.46c-1.23,1.49-3.05,2.19-4.14,2.99c-1.69,0.34-2.91,0.59-4.2,0.85
		c0.14-0.93,1.64-1.69,0.3-2.68c6.55-3.51,12.69-7.54,18.82-11.56c4.17-2.74,7.87-6.1,11.5-9.52c4.59-4.32,9.14-8.68,13.71-13.02
		c0.16-0.15,0.31-0.3,0.47-0.45c0.5-0.47,0.3-0.78-0.23-1.04c-1.94-0.95-3.92-1.82-5.8-2.89c-1.78-1.01-3.46-2.2-5.16-3.34
		c-0.4-0.27-0.57-0.15-0.87,0.15c-1.49,1.44-2.96,2.92-4.56,4.22c-0.86,0.7-2,1.03-2.97,1.6c-2.19,1.29-4.34,2.63-6.51,3.95
		c-1,0.61-2,0.55-3.03,0.07c-1.39-0.65-2.74-0.61-4.08,0.24c-1.27,0.81-2.55,1.66-3.92,2.28c-0.86,0.39-1.89,0.38-2.86,0.55
		c-0.21-0.56-0.06-0.84,0.5-1.06c1.05-0.41,1.49-1.25,1.26-2.5c-0.32,0.33-0.56,0.55-0.76,0.79c-0.22,0.27-0.4,0.57-0.6,0.86
		l-0.25-0.15c0.38-0.69,0.77-1.39,1.15-2.08c0.23-0.42,2.21-3.16,2.39-3.66l0.09,0.19c0.42-0.18,0.89-0.28,1.24-0.55
		c2.54-1.95,4.4-4.54,6.47-6.94c2.94-3.4,5.97-6.72,8.73-10.26c2.85-3.64,5.41-7.5,8.12-11.25c0.55-0.76,0.56-1.44-0.11-2.09
		c-0.65-0.63-1.35-1.22-2.01-1.85c-0.22-0.21-0.55-0.52-0.52-0.73c0.21-1.43-0.66-2.54-1.01-3.81c-0.27-0.98-0.63-1.94-1.01-3.08
		c0.48,0.05,0.79,0.01,1.04,0.11c1.82,0.76,3.59,0.61,5.36-0.21c3.67-1.71,7.35-3.39,11.02-5.09c1.52-0.7,3.02-1.43,4.53-2.15
		l0.08-0.03c1.36-0.61,2.02-1.42,1.95-3.16c-0.19-4.63-0.05-9.28-0.03-13.92c0.01-2.3-0.37-4.5-1.58-6.48c-0.24-0.39-0.65-0.68-1-1
		c-0.76-0.71-1.54-1.39-2.27-2.12c-0.13-0.13-0.18-0.58-0.07-0.68c0.66-0.64,1.3-1.6,2.09-1.76c1.69-0.33,3.41-0.03,5.15,0.32
		c2.62,0.53,4.24,2.29,5.94,3.99c1.04,1.04,2.03,2.22,2.7,3.51c1.2,2.3,2.5,4.59,2.77,7.27c0.08,0.77,0.47,1.34,1.4,1.26
		c0.17-0.01,0.45,0.02,0.52,0.13c0.76,1.27,2.12,1.03,3.26,1.33c0.47,0.12,0.96,0.17,1.45,0.25c0.53,0.08,0.92,0.21,0.98,0.91
		c0.05,0.62,0.76,0.82,1.25,0.42c0.3-0.24,0.54-0.56,0.74-0.91c1.63-0.26,3.12,0.41,4.56,1.25c0.18,0.11,0.33,0.27,0.47,0.44
		c0.31,0.36,0.6,0.73,1.01,1.23c-0.07,0.26-0.74,0.69-0.1,1.27c0.38,0.34,0.71,0.74,1.12,1.18c-0.29,0.58,0.05,0.92,0.68,1.24
		c0.75,0.38,1.47,0.84,2.15,1.34c0.21,0.15,0.28,0.51,0.37,0.79c0.2,0.63,0.47,0.94,1.17,0.52c0.49-0.29,1.05-0.46,1.67-0.55
		c-1.75,1.86-3.29,3.9-5.43,5.31c-2.13,1.41-4.27,2.78-6.51,4.24c0.26,0.12,0.48,0.26,0.72,0.31c0.77,0.17,1.55,0.28,2.32,0.45
		c0.83,0.18,1.58,0.48,2.16,1.19c1.26,1.55,2.57,3.05,3.86,4.58c0.75,0.9,0.96,2,1.05,3.12c0.16,2.17,0.28,4.35,0.39,6.52
		c0.03,0.49,0.29,0.56,0.69,0.6c1.62,0.19,3.24,0.38,4.86,0.63c1.83,0.29,3.53,0.98,5.11,1.97c1.08,0.67,2.21,1.26,3.37,1.79
		c1.06,0.49,1.75,1.23,2.34,2.24c0.69,1.18,1.6,2.25,2.49,3.3c1.31,1.55,1.24,3.42,1.34,5.25c0.01,0.22-0.28,0.57-0.51,0.67
		c-1.5,0.66-2.85,1.74-4.64,1.61c-0.29-0.02-0.63,0.4-0.9,0.66c-0.16,0.16-0.23,0.42-0.35,0.65c-0.85-0.56-1.65-1.11-2.47-1.63
		c-0.32-0.21-0.69-0.57-0.92,0.13c-0.03,0.09-0.32,0.15-0.49,0.14c-1-0.07-1.92-0.44-2.46-1.26c-0.84-1.27-2.11-1.94-3.34-2.64
		c-2.27-1.3-4.59-2.5-6.88-3.76c-0.63-0.35-1.16-0.33-1.68,0.23c-0.97,1.06-1.97,2.09-2.94,3.15c-0.45,0.5-0.93,0.55-1.62,0.58
		c-0.95,0.04-1.91,0.49-2.8,0.89c-0.6,0.27-1.1,0.76-1.79,1.25c0.6,0.41,1.14,0.82,1.71,1.18c2.95,1.8,5.85,3.72,8.9,5.34
		c1.94,1.03,4.12,1.64,6.21,2.38c2.12,0.75,4.27,1.41,6.39,2.15C109.05,94.27,108.65,95.48,115.92,98.52z M50.41,75.85
		c0.15,0.08,0.46,0.32,0.8,0.43c2.67,0.82,5.23,1.88,7.66,3.29c1.41,0.82,2.12,0.37,2.08-1.24c-0.1-3.62-0.21-7.25-0.33-10.87
		c-0.04-1.33-0.07-2.67-0.17-4c-0.07-1-0.74-1.56-1.41-1.27c-1.29,0.56-2.58,1.12-3.85,1.72c-0.95,0.45-0.97,0.68-0.77,1.74
		c0.33,1.71,0.32,3.41-0.65,4.96C52.66,72.35,51.54,74.09,50.41,75.85z M75.49,72.33c0.12,0.02,0.23,0.04,0.35,0.06
		c0.69-0.93,1.38-1.86,2.07-2.79c2.17-2.92,4.18-5.92,5.33-9.42c0.98-2.97,0.2-5.56-1.58-7.95c-0.13-0.17-0.58-0.25-0.81-0.17
		c-1.14,0.41-2.25,0.91-3.39,1.34c-1.24,0.46-1.64,0.97-1.66,2.3c-0.03,2.29-0.02,4.58-0.08,6.88c-0.04,1.91-0.17,3.81-0.22,5.72
		C75.46,69.64,75.49,70.98,75.49,72.33z M66.85,128.07c1.71,1.26,3.33,2.49,4.98,3.65c0.47,0.33,0.99,0.31,1.43-0.23
		c1.74-2.1,3.56-4.15,5.27-6.27c1.22-1.51,2.33-3.11,2.87-5.17c-0.32,0.08-0.56,0.1-0.76,0.19c-3.28,1.53-6.56,3.07-9.84,4.6
		c-0.41,0.19-1.02,0.29-1.17,0.62C69.04,126.63,68.08,127.35,66.85,128.07z M184.68,177.85c-0.01,0.12-0.01,0.24-0.02,0.37
		c1.85,0.39,3.71,0.46,5.58,0.27c0.01-0.11,0.01-0.21,0.02-0.32C188.4,178.06,186.54,177.96,184.68,177.85z M68.92,125.52
		c-0.1-0.14-0.21-0.28-0.32-0.42c-0.82,0.51-1.66,1-2.46,1.56c-0.16,0.11-0.14,0.46-0.21,0.7c0.23,0.03,0.55,0.18,0.68,0.08
		C67.41,126.84,68.16,126.17,68.92,125.52z"/>
	<path class="st0" d="M64.24,116.74c-0.1-0.14-0.21-0.28-0.32-0.42c-0.82,0.51-1.66,1-2.46,1.56c-0.16,0.11-0.14,0.46-0.21,0.7
		c0.23,0.03,0.55,0.18,0.68,0.08C62.73,118.06,63.48,117.39,64.24,116.74z M111.24,89.73c7.27,3.04,13.25,6.59,13.25,6.59
		c-0.59,0-1.03-0.09-1.42,0.02c-1.37,0.37-2.68,0.09-4.03-0.19c-2.07-0.43-4.16-0.74-6.25-1.1c-0.15-0.03-0.32,0.05-0.47,0.07
		l-0.01,0.17c0.29,0.11,0.58,0.23,0.96,0.38c-1.6,0.12-3.14,0.26-4.67,0.34c-0.22,0.01-0.5-0.18-0.68-0.35
		c-0.32-0.3-0.49-0.28-0.76,0.08c-0.49,0.67-1.1,1.2-2.04,1.12c-0.37-0.03-0.76,0.04-1.13,0.09c-1.51,0.17-3.01,0.35-4.52,0.53
		c-0.27,0.03-0.6,0-0.79,0.14c-0.94,0.73-2.02,0.46-2.98,0.28c-1.83-0.34-3.67-0.79-5.42-1.42c-1.36-0.49-2.78-0.78-3.95-1.88
		c-4.52-4.24-9.5-7.95-14.46-11.66c-0.19-0.14-0.44-0.21-0.79-0.37c0.12,2.11,0.21,4.04,0.36,5.96c0.02,0.29,0.32,0.58,0.53,0.83
		c0.88,1.01,1.89,1.93,2.63,3.03c0.77,1.14,1.27,2.45,1.9,3.68c0.3,0.6,0.32,1.16,0.04,1.8c-0.3,0.69-0.46,1.44-0.7,2.15
		c-0.15,0.45-0.01,0.69,0.46,0.72c1.81,0.1,3.39,0.86,4.94,1.72c1.69,0.93,3.35,1.88,4.37,3.62c0.73,1.26,1.51,2.5,2.09,3.82
		c0.39,0.9,0.47,1.95,0.7,2.92c0.46,1.91,0.58,3.81-0.07,5.71c-0.22,0.62-0.4,1.25-0.68,2.1c0,0-0.61,1.02-1.41,2.4
		c-1.5,2.57-3.06,5.1-4.59,7.65c-0.11,0.18-0.21,0.37-0.38,0.66c2.01,1.19,3.92,2.47,5.96,3.5c4.58,2.31,9.21,4.52,13.86,6.71
		c1.95,0.92,3.98,1.69,6,2.47c2.8,1.08,5.59,2.2,8.45,3.11c3.28,1.04,6.61,1.96,9.96,2.72c1.7,0.39,3.5,0.41,5.26,0.44
		c1.54,0.03,3.05-0.23,4.63,0.12c1.29,0.29,2.69,0.1,4.04,0.09c2.37-0.02,4.75-0.07,7.12-0.11c1.43-0.03,2.85-0.07,4.28-0.09
		l2.23,0.45c-0.12-0.15-0.22-0.31-0.28-0.68c0.49,0.1,1.02,0.11,1.45,0.32c0.6,0.29,1.12,0.49,1.78,0.19
		c0.28-0.13,0.64-0.13,0.96-0.12c4.91,0.2,9.82,0.38,14.72,0.65c2.04,0.11,4.06,0.46,6.09,0.66c1.44,0.14,2.89,0.13,4.32,0.32
		c2.96,0.4,5.91,0.91,8.87,1.36c2.53,0.38,5.06,0.73,7.59,1.12c2.04,0.32,4.08,0.67,6.11,1.03c0.23,0.04,0.44,0.17,0.64,0.32
		c-1.52,0.25-3.02,0.24-4.52-0.1c-0.68-0.15-1.4-0.15-2.1-0.27c-2.96-0.47-5.9-0.98-8.86-1.42c-2.66-0.4-5.33-0.8-8.01-1.08
		c-4.45-0.47-8.89-0.95-13.35-1.25c-3.18-0.21-6.38-0.15-9.58-0.2c-0.5-0.01-1.01-0.03-1.5,0.04c-0.19,0.02-0.35,0.27-0.49,0.55
		c15.15,0.43,30.13,2.12,44.78,4.58c0.26,0.36,0.35,0.67,0.53,0.72c0.7,0.21,1.43,0.33,2.14,0.49c0.46,0.11,0.92,0.24,1.37,0.36
		c-0.01,0.1-0.01,0.2-0.02,0.3c-1.47,0-2.94,0-4.4,0l-0.01,0.26c0.75,0.18,1.51,0.37,2.26,0.54c0.16,0.04,0.42,0,0.47,0.08
		c0.49,0.83,0.97,0.31,1.49-0.08c0.18,0.28,0.33,0.52,0.49,0.77c-0.34,0.5-0.63,0.59-1.3,0.5c-1.3-0.16-2.64,0.05-3.97,0.1
		l-0.01,0.27c0.99,0.14,1.99,0.27,3.02,0.41c-0.04,0.12-0.09,0.25-0.18,0.49c0.96,0.1,1.87,0.19,2.79,0.28
		c-0.39,0.2-0.79,0.4-1.19,0.6l0.12,0.16c0.43,0.06,0.85,0.11,1.28,0.17l-0.01,0.25l-0.27,0.11c-1.45-0.39-2.53,0.74-3.85,0.91
		c-0.63,0.08-1.25,0.18-1.91,0.46c0.33,0.1,0.67,0.2,1.07,0.33c-0.2,0.08-0.34,0.14-0.48,0.2l0.02,0.16c1.01,0,2.02,0,3.03,0
		c0,0.11,0.01,0.22,0.01,0.33c-0.4,0-0.79,0-1.19,0l-0.22,0.01c-1.29,0.52-2.62,0.3-3.95,0.22c-0.71-0.05-1.49,0.02-2.16,0.25
		c-2.08,0.73-4.21,0.34-6.32,0.4c-1,0.03-1.99,0.17-2.99,0.14c-1.4-0.05-2.81-0.21-4.21-0.32c-0.46-0.04-0.93-0.06-1.39-0.08
		c-1.58-0.06-3.16-0.16-4.75-0.14c-1.93,0.02-3.86,0.14-5.79,0.23c-0.14,0.01-0.28,0.11-0.43,0.34c0.4,0.09,0.79,0.22,1.19,0.27
		c1.84,0.21,3.68,0.4,5.52,0.57c2,0.18,4,0.38,6.01,0.46c0.79,0.03,1.59-0.37,2.38-0.38c1.37-0.01,2.74,0.2,4.11,0.2
		c1.16,0,2.31-0.17,3.47-0.28c0.3-0.03,0.59-0.11,0.88-0.11c3.63,0.1,7.26,0.25,10.88,0.3c1.36,0.02,2.71-0.16,4.07-0.25
		c0.02,0.09,0.05,0.18,0.07,0.27c-0.29,0.09-0.57,0.23-0.86,0.26c-0.82,0.1-1.7-0.06-2.28,0.81c-0.1,0.15-0.51,0.12-0.77,0.15
		c-0.64,0.09-1.28,0.17-1.93,0.44c0.42,0.03,0.83,0.06,1.25,0.09l0,0.09c-0.85,0.16-1.7,0.4-2.55,0.46
		c-1.84,0.11-3.69,0.2-5.53,0.15c-4.77-0.11-9.55-0.29-14.32-0.44c-3.5-0.11-7.01-0.25-10.51-0.31c-2.99-0.05-5.99-0.06-8.98,0.01
		c-1.07,0.03-2.14,0.34-3.2,0.53l-0.02,0.18c0.14,0.26,0.29,0.51,0.43,0.77c-0.33,0.15-0.66,0.42-1,0.44
		c-2.86,0.18-5.64,0.71-8.43,1.4c-1.26,0.31-2.45,0.82-3.71,1.1c-1.45,0.33-2.94,0.47-4.4,0.74c-0.96,0.18-1.89,0.53-2.85,0.66
		c-0.51,0.07-1.08-0.14-1.6-0.29c-0.56-0.16-1.11-0.4-1.66-0.58c-0.23-0.08-0.48-0.07-0.71-0.15c-1.14-0.4-2.29-0.81-3.42-1.25
		c-0.42-0.16-0.81-0.4-1.2-0.59c-0.45,0-0.99,0.12-1.44-0.02c-3.42-1.03-6.86-2.02-10.23-3.21c-4.08-1.45-8.14-2.97-12.12-4.67
		c-5.15-2.2-10.22-4.6-14.88-7.79c-1.67-1.14-3.54-1.97-5.3-2.97c-6-3.4-12.1-6.62-17.76-10.6c-0.69-0.48-1.21-0.5-1.82,0.15
		c-0.55,0.59-1.23,1.06-1.85,1.57c-0.13,0.1-0.25,0.25-0.4,0.27c-1.83,0.33-2.72,2.08-4.29,2.8c-0.19,0.09-0.2,0.53-0.35,0.76
		c-0.17,0.25-0.46,0.68-0.61,0.64c-0.77-0.18-1.23,0.35-1.77,0.68c-0.58,0.35-1.07,0.84-1.67,1.15c-0.53,0.28-1.16,0.37-1.73,0.58
		c-0.85,0.33-1.69,0.66-2.51,1.05c-1.66,0.79-3.29,1.63-4.94,2.41c-0.33,0.16-0.79,0.06-1.12,0.22c-0.71,0.35-1.35,0.86-2.07,1.19
		c-0.88,0.4-1.82,0.68-2.74,1.01c-0.38,0.14-0.76,0.3-1.15,0.4c-0.28,0.07-0.74,0.21-0.85,0.08c-0.65-0.72-1.27-0.23-1.92-0.07
		c-0.31,0.07-0.64,0.09-1.1,0.14c0.17-0.33,0.3-0.55,0.4-0.78l-0.96-0.13c-0.67,0.66-1.35,1.36-2.4,1.31
		c-1.31-0.06-2.61-0.12-3.92-0.25c-0.44-0.04-0.88-0.26-1.3-0.45c-0.59-0.26-1.03-0.17-1.64,0.17c-1.06,0.59-2.29,0.89-3.51,1.14
		c0.12-0.2,0.25-0.4,0.52-0.84c-1.29,0.22-2.38,0.38-3.45,0.58c-0.67,0.12-1.34,0.68-2-0.07c-0.09-0.1-0.48-0.08-0.61,0.03
		c-0.81,0.7-1.54,0.26-2.29-0.05l-0.01-0.22c0.53,0,1.07,0.01,1.6,0c0.49-0.02,0.97-0.06,1.46-0.1c0.19-0.02,0.38-0.13,0.56-0.1
		c1.74,0.3,3.28-0.7,4.96-0.79c0.13-0.01,0.36-0.15,0.37-0.25c0.01-0.15-0.08-0.41-0.21-0.46c-0.95-0.43-1.91-1.1-2.9-1.16
		c-2.17-0.14-4.28-0.48-6.38-0.96c-0.63-0.14-1.29-0.21-1.92-0.34c-0.17-0.03-0.45-0.2-0.44-0.28c0.1-1.17-0.99-0.8-1.49-1.17
		c-0.22-0.16-0.43-0.35-0.65-0.52l0.15-0.17c1.35,0.53,2.7,1.1,4.07,1.57c0.28,0.1,0.74-0.04,1-0.22c0.13-0.1,0.09-0.57,0-0.83
		c-0.2-0.61-0.18-1.34-1.24-1.36c-0.51-0.01-1.01-0.5-1.71-0.61c-1.42-0.23-2.58-1.21-3.4-2.44c-0.23-0.34-0.38-0.86,0.26-1.15
		c0.15-0.07,0.19-0.39,0.29-0.62c0.67,0.45,1.23,0.49,1.4-0.53c0.31,0.16,0.57,0.29,0.86,0.44c0.72-0.38,0.61-1.03,0.54-1.68
		c-0.09-0.86-0.13-1.73-0.13-2.58c0.31,1.01,0.57,2.04,0.95,3.03c0.93,2.42,2.99,3.57,5.26,4.37c1.63,0.58,3.27,1.25,5.05,1.15
		c1.89-0.11,3.82-0.15,5.66-0.53c5.34-1.09,10.1-3.58,14.58-6.57c3.06-2.04,5.94-4.34,8.9-6.53c0.43-0.32,0.84-0.68,1.28-0.99
		c0.17-0.11,0.5-0.22,0.61-0.14c0.18,0.14,0.64-0.88,0.64-0.88c0.84-0.72,1.68-1.45,2.63-2.27c-1.75-1.29-3.41-2.49-5.04-3.74
		c-0.6-0.46-1.14-0.93-2.02-0.47c0.8-0.63,0.36-1.04-0.11-1.47c-0.77-0.71-1.63-1.14-2.72-1.07c-0.65,0.04-1.32-0.04-1.96,0.03
		c-0.84,0.09-1.67,0.26-2.43,0.39c0.04-0.06,0.18-0.29,0.41-0.68c-0.6-0.09-1.11-0.22-1.63-0.23c-0.95,0-1.33-0.28-1.46-1.29
		c-0.72,0.03-1.51,0.14-1.99-0.64c-0.05-0.08-0.39-0.07-0.54,0c-1.55,0.7-2.4-0.31-2.76-1.72c-0.38-1.49-0.57-3.02,0.34-4.5
		c0.43-0.7,0.65-1.56,0.42-2.45c-0.03-0.14,0.18-0.4,0.34-0.51c0.33-0.22,0.71-0.37,1.13-0.59c-0.67-0.91-0.1-1.11,0.61-1.33
		c0.48-0.15,1.32-0.21,0.66-1.1c0.99-0.3,1.34-1.18,1.59-1.96c0.36-1.14,0.72-1.59,1.95-1.59c0.52,0,1.03,0.05,1.55,0.08
		c1.07,0.05,1.78-0.63,2.45-1.29c2.84-2.77,5.64-5.58,8.45-8.37c0.42-0.42,0.6-0.88,0.19-1.61c-0.75,0.47-1.54,0.84-2.18,1.38
		c-2.75,2.32-5.45,4.7-8.2,7.01c-0.47,0.39-1.19,0.47-1.68,0.84c-0.83,0.63-1.69,0.84-2.69,0.62c-0.09-0.02-0.24,0.21-0.34,0.33
		c-0.49,0.59-1.07,0.88-1.87,0.73c-0.22-0.04-0.49,0.04-0.69,0.14c-1.6,0.79-3.13,1.78-4.8,2.36c-2.07,0.72-4.25,1.11-6.39,1.62
		c-0.21,0.05-0.48-0.12-0.79-0.2c0.17-0.34,0.29-0.57,0.51-1c-2.23,0.23-4.12,0.94-5.89,2.13c0.17-0.23,0.33-0.47,0.5-0.7l-0.1-0.16
		c-0.8,0.41-1.63,0.78-2.41,1.22c-1.31,0.75-2.56,1.6-3.89,2.32c-0.52,0.28-1.18,0.32-1.76,0.46c-1.23,1.49-3.05,2.19-4.14,2.99
		c-1.69,0.34-2.91,0.59-4.2,0.85c0.14-0.93,1.64-1.69,0.3-2.68c6.55-3.51,12.69-7.54,18.82-11.56c4.17-2.74,7.87-6.1,11.5-9.52
		c4.59-4.32,9.14-8.68,13.71-13.02c0.16-0.15,0.31-0.3,0.47-0.45c0.5-0.47,0.3-0.78-0.23-1.04c-1.94-0.95-3.92-1.82-5.8-2.89
		c-1.78-1.01-3.46-2.2-5.16-3.34c-0.4-0.27-0.57-0.15-0.87,0.15c-1.49,1.44-2.96,2.92-4.56,4.22c-0.86,0.7-2,1.03-2.97,1.6
		c-2.19,1.29-4.34,2.63-6.51,3.95c-1,0.61-2,0.55-3.03,0.07c-1.39-0.65-2.74-0.61-4.08,0.24c-1.27,0.81-2.55,1.66-3.92,2.28
		c-0.86,0.39-1.89,0.38-2.86,0.55c-0.21-0.56-0.06-0.84,0.5-1.06c1.05-0.41,1.49-1.25,1.26-2.5c-0.32,0.33-0.56,0.55-0.76,0.79
		c-0.22,0.27-0.4,0.57-0.6,0.86l-0.25-0.15c0.38-0.69,0.77-1.39,1.15-2.08c0.23-0.42,2.21-3.16,2.39-3.66l0.09,0.19
		c0.42-0.18,0.89-0.28,1.24-0.55c2.54-1.95,4.4-4.54,6.47-6.94c2.94-3.4,5.97-6.72,8.73-10.26c2.85-3.64,5.41-7.5,8.12-11.25
		c0.55-0.76,0.56-1.44-0.11-2.09c-0.65-0.63-1.35-1.22-2.01-1.85c-0.22-0.21-0.55-0.52-0.52-0.73c0.21-1.43-0.66-2.54-1.01-3.81
		c-0.27-0.98-0.63-1.94-1.01-3.08c0.48,0.05,0.79,0.01,1.04,0.11c1.82,0.76,3.59,0.61,5.36-0.21c3.67-1.71,7.35-3.39,11.02-5.09
		c1.52-0.7,3.02-1.43,4.53-2.15l0.08-0.03c1.36-0.61,2.02-1.42,1.95-3.16c-0.19-4.63-0.05-9.28-0.03-13.92
		c0.01-2.3-0.37-4.5-1.58-6.48c-0.24-0.39-0.65-0.68-1-1c-0.76-0.71-1.54-1.39-2.27-2.12c-0.13-0.13-0.18-0.58-0.07-0.68
		c0.66-0.64,1.3-1.6,2.09-1.76c1.69-0.33,3.41-0.03,5.15,0.32c2.62,0.53,4.24,2.29,5.94,3.99c1.04,1.04,2.03,2.22,2.7,3.51
		c1.2,2.3,2.5,4.59,2.77,7.27c0.08,0.77,0.47,1.34,1.4,1.26c0.17-0.01,0.45,0.02,0.52,0.13c0.76,1.27,2.12,1.03,3.26,1.33
		c0.47,0.12,0.96,0.17,1.45,0.25c0.53,0.08,0.92,0.21,0.98,0.91c0.05,0.62,0.76,0.82,1.25,0.42c0.3-0.24,0.54-0.56,0.74-0.91
		c1.63-0.26,3.12,0.41,4.56,1.25c0.18,0.11,0.33,0.27,0.47,0.44c0.31,0.36,0.6,0.73,1.01,1.23c-0.07,0.26-0.74,0.69-0.1,1.27
		c0.38,0.34,0.71,0.74,1.12,1.18c-0.29,0.58,0.05,0.92,0.68,1.24c0.75,0.38,1.47,0.84,2.15,1.34c0.21,0.15,0.28,0.51,0.37,0.79
		c0.2,0.63,0.47,0.94,1.17,0.52c0.49-0.29,1.05-0.46,1.67-0.55c-1.75,1.86-3.29,3.9-5.43,5.31c-2.13,1.41-4.27,2.78-6.51,4.24
		c0.26,0.12,0.48,0.26,0.72,0.31c0.77,0.17,1.55,0.28,2.32,0.45c0.83,0.18,1.58,0.48,2.16,1.19c1.26,1.55,2.57,3.05,3.86,4.58
		c0.75,0.9,0.96,2,1.05,3.12c0.16,2.17,0.28,4.35,0.39,6.52c0.03,0.49,0.29,0.56,0.69,0.6c1.62,0.19,3.24,0.38,4.86,0.63
		c1.83,0.29,3.53,0.98,5.11,1.97c1.08,0.67,2.21,1.26,3.37,1.79c1.06,0.49,1.75,1.23,2.34,2.24c0.69,1.18,1.6,2.25,2.49,3.3
		c1.31,1.55,1.24,3.42,1.34,5.25c0.01,0.22-0.28,0.57-0.51,0.67c-1.5,0.66-2.85,1.74-4.64,1.61c-0.29-0.02-0.63,0.4-0.9,0.66
		c-0.16,0.16-0.23,0.42-0.35,0.65c-0.85-0.56-1.65-1.11-2.47-1.63c-0.32-0.21-0.69-0.57-0.92,0.13c-0.03,0.09-0.32,0.15-0.49,0.14
		c-1-0.07-1.92-0.44-2.46-1.26c-0.84-1.27-2.11-1.94-3.34-2.64c-2.27-1.3-4.59-2.5-6.88-3.76c-0.63-0.35-1.16-0.33-1.68,0.23
		c-0.97,1.06-1.97,2.09-2.94,3.15c-0.45,0.5-0.93,0.55-1.62,0.58c-0.95,0.04-1.91,0.49-2.8,0.89c-0.6,0.27-1.1,0.76-1.79,1.25
		c0.6,0.41,1.14,0.82,1.71,1.18c2.95,1.8,5.85,3.72,8.9,5.34c1.94,1.03,4.12,1.64,6.21,2.38c2.12,0.75,4.27,1.41,6.39,2.15
		C104.38,85.48,103.98,86.69,111.24,89.73z M45.74,67.07c0.15,0.08,0.46,0.32,0.8,0.43c2.67,0.82,5.23,1.88,7.66,3.29
		c1.41,0.82,2.12,0.37,2.08-1.24c-0.1-3.62-0.21-7.25-0.33-10.87c-0.04-1.33-0.07-2.67-0.17-4c-0.07-1-0.74-1.56-1.41-1.27
		c-1.29,0.56-2.58,1.12-3.85,1.72c-0.95,0.45-0.97,0.68-0.77,1.74c0.33,1.71,0.32,3.41-0.65,4.96
		C47.99,63.56,46.87,65.3,45.74,67.07z M70.81,63.54c0.12,0.02,0.23,0.04,0.35,0.06c0.69-0.93,1.38-1.86,2.07-2.79
		c2.17-2.92,4.18-5.92,5.33-9.42c0.98-2.97,0.2-5.56-1.58-7.95c-0.13-0.17-0.58-0.25-0.81-0.17c-1.14,0.41-2.25,0.91-3.39,1.34
		c-1.24,0.46-1.64,0.97-1.66,2.3c-0.03,2.29-0.02,4.58-0.08,6.88c-0.04,1.91-0.17,3.81-0.22,5.72
		C70.78,60.85,70.81,62.2,70.81,63.54z M62.17,119.28c1.71,1.26,3.33,2.49,4.98,3.65c0.47,0.33,0.99,0.31,1.43-0.23
		c1.74-2.1,3.56-4.15,5.27-6.27c1.22-1.51,2.33-3.11,2.87-5.17c-0.32,0.08-0.56,0.1-0.76,0.19c-3.28,1.53-6.56,3.07-9.84,4.6
		c-0.41,0.19-1.01,0.29-1.17,0.62C64.37,117.85,63.4,118.56,62.17,119.28z M180.01,169.07c-0.01,0.12-0.01,0.24-0.02,0.37
		c1.85,0.39,3.71,0.46,5.58,0.27c0.01-0.11,0.01-0.21,0.02-0.32C183.73,169.28,181.87,169.17,180.01,169.07z"/>
	<g>
		<path class="st1" d="M74.89,99.72c-0.06,0.18-0.11,0.38-0.11,0.62c0,0.17,0.03,0.37,0.11,0.56c0.12,0.3,0.38,0.55,0.64,0.67
			c0.26,0.13,0.49,0.16,0.72,0.18c1.56,0.08,2.98,0.75,4.52,1.6c0.84,0.46,1.64,0.91,2.32,1.43c0.68,0.52,1.24,1.09,1.67,1.81
			c0.74,1.27,1.5,2.48,2.04,3.72l1.83-0.8c-0.62-1.42-1.42-2.69-2.14-3.93c-0.59-1-1.36-1.77-2.19-2.4
			c-0.83-0.63-1.71-1.12-2.56-1.59c-1.43-0.79-2.97-1.55-4.78-1.78c0.17-0.58,0.31-1.1,0.5-1.53c0.18-0.4,0.28-0.83,0.28-1.27
			c0-0.49-0.13-0.96-0.35-1.38l-1.78,0.9l0,0c0.1,0.2,0.13,0.34,0.13,0.48c0,0.12-0.03,0.27-0.11,0.47
			C75.27,98.3,75.1,99.07,74.89,99.72z"/>
		<path class="st1" d="M80.75,132.21c1.98,1.17,3.9,2.47,6.02,3.53c4.6,2.31,9.23,4.53,13.88,6.72c2,0.94,4.05,1.72,6.06,2.5
			l0.72-1.87c-2.02-0.78-4.02-1.54-5.93-2.44c-4.64-2.18-9.26-4.39-13.83-6.69c-1.96-0.99-3.86-2.26-5.9-3.47l-0.12,0.2l-0.87-0.52
			l0,0c-0.12,0.21-0.23,0.39-0.39,0.68C80.13,131.32,80.28,131.93,80.75,132.21z"/>
		<path class="st1" d="M10.45,148.3c0.2,0,0.43-0.04,0.64-0.14c0.18-0.08,0.33-0.21,0.46-0.35c0.28,0.12,0.59,0.13,0.87-0.01
			c0.24-0.12,0.45-0.29,0.62-0.49c0.5,0.78,1.11,1.44,1.8,1.96c1.04,0.78,2.21,1.3,3.4,1.72c1.49,0.52,3.12,1.21,5.02,1.22
			c0.14,0,0.29,0,0.43-0.01c1.87-0.11,3.84-0.14,5.81-0.54c5.52-1.13,10.4-3.69,14.94-6.72c3.11-2.07,6-4.39,8.94-6.56
			c0.47-0.35,0.85-0.69,1.22-0.94c0.04,0,0.08,0.02,0.12,0.02c0.2,0,0.36-0.06,0.47-0.11c0.21-0.1,0.3-0.2,0.38-0.28
			c0.13-0.14,0.21-0.26,0.29-0.38c0.12-0.19,0.21-0.37,0.28-0.51c0.79-0.68,1.58-1.37,2.47-2.13c0.23-0.2,0.36-0.49,0.35-0.79
			c-0.01-0.3-0.16-0.59-0.4-0.77c-1.75-1.3-3.41-2.49-5.02-3.73c-0.2-0.15-0.44-0.35-0.74-0.53c-0.14-0.08-0.31-0.16-0.5-0.22
			c-0.07-0.27-0.2-0.48-0.32-0.63c-0.18-0.23-0.35-0.38-0.49-0.51c-0.41-0.38-0.88-0.72-1.41-0.96c-0.53-0.24-1.13-0.39-1.76-0.38
			c-0.1,0-0.19,0-0.29,0.01c-0.12,0.01-0.25,0.01-0.39,0.01c-0.27,0-0.56-0.01-0.89-0.01c-0.23,0-0.47,0.01-0.73,0.03
			c-0.38,0.04-0.74,0.1-1.1,0.16c-0.16-0.23-0.4-0.4-0.68-0.44c-0.53-0.07-1.08-0.23-1.77-0.24c-0.19,0-0.32-0.02-0.38-0.03l-0.01,0
			c-0.02-0.03-0.06-0.14-0.09-0.38c-0.06-0.51-0.52-0.9-1.03-0.87c-0.22,0.01-0.42,0.02-0.57,0.02c-0.2,0-0.33-0.02-0.38-0.05
			c-0.05-0.03-0.07-0.02-0.15-0.14c-0.14-0.21-0.29-0.32-0.4-0.38c-0.18-0.09-0.29-0.11-0.4-0.13c-0.1-0.02-0.19-0.02-0.27-0.02
			c-0.12,0-0.23,0.01-0.34,0.03c-0.12,0.02-0.23,0.05-0.39,0.12c-0.24,0.11-0.41,0.14-0.52,0.14c-0.1,0-0.15-0.02-0.21-0.05
			c-0.09-0.04-0.2-0.14-0.32-0.33c-0.12-0.19-0.24-0.48-0.33-0.81c-0.17-0.66-0.29-1.28-0.28-1.86c0-0.66,0.13-1.24,0.51-1.86
			c0.39-0.64,0.66-1.41,0.66-2.25c0-0.16-0.01-0.33-0.03-0.49c0.22-0.12,0.49-0.25,0.86-0.44c0.26-0.13,0.45-0.38,0.52-0.66
			c0.05-0.2,0.01-0.41-0.07-0.6c0.1-0.04,0.35-0.08,0.68-0.21c0.16-0.07,0.37-0.17,0.57-0.39c0.21-0.21,0.37-0.58,0.36-0.91
			c0-0.03-0.01-0.05-0.01-0.07c0.27-0.21,0.5-0.46,0.66-0.71c0.34-0.5,0.51-1.01,0.64-1.42c0.08-0.26,0.16-0.45,0.22-0.58
			c0.1-0.19,0.13-0.2,0.18-0.23c0.05-0.03,0.22-0.09,0.59-0.09l0.01,0h0c0.44,0,0.94,0.05,1.49,0.08l0.15,0
			c0.73,0,1.36-0.25,1.85-0.57c0.49-0.32,0.87-0.69,1.19-1.01c2.84-2.78,5.65-5.58,8.46-8.38c0.18-0.18,0.35-0.38,0.49-0.65
			c0.14-0.26,0.23-0.59,0.23-0.92c0-0.44-0.14-0.85-0.36-1.24c-0.13-0.24-0.36-0.41-0.62-0.48c-0.27-0.07-0.54-0.03-0.78,0.12
			c-0.68,0.43-1.52,0.81-2.3,1.46c-2.77,2.33-5.46,4.71-8.2,7.01c-0.06,0.06-0.25,0.15-0.55,0.26c-0.29,0.12-0.68,0.25-1.1,0.55
			c-0.49,0.36-0.87,0.49-1.34,0.5c-0.16,0-0.34-0.02-0.53-0.06l0.01,0l-0.23-0.03c-0.22,0-0.37,0.06-0.48,0.11
			c-0.18,0.09-0.26,0.17-0.33,0.24c-0.1,0.1-0.15,0.17-0.2,0.23l-0.09,0.12c-0.14,0.17-0.27,0.27-0.37,0.33
			c-0.11,0.06-0.19,0.08-0.32,0.08l-0.21-0.02c-0.11-0.02-0.22-0.03-0.32-0.03c-0.43,0.01-0.74,0.13-1.01,0.26
			c-1.67,0.83-3.17,1.79-4.68,2.31c-1.68,0.59-3.5,0.96-5.35,1.38c0-0.2-0.05-0.41-0.17-0.58c-0.21-0.3-0.56-0.47-0.93-0.43
			c-1.78,0.18-3.38,0.66-4.87,1.42c-0.29-0.18-0.65-0.21-0.97-0.05c-0.78,0.39-1.62,0.77-2.45,1.25c-1.35,0.78-2.59,1.62-3.86,2.31
			c-0.12,0.07-0.32,0.13-0.58,0.18c-0.26,0.05-0.58,0.1-0.94,0.18c-0.21,0.05-0.4,0.17-0.53,0.34c-0.51,0.62-1.17,1.1-1.88,1.54
			c-0.63,0.39-1.27,0.74-1.87,1.14c-0.75,0.15-1.41,0.28-2.02,0.41c0.03-0.13,0.05-0.28,0.06-0.44c0-0.17-0.03-0.35-0.09-0.53
			c6.22-3.4,12.09-7.23,17.91-11.05c4.26-2.8,8-6.2,11.64-9.63c4.6-4.32,9.15-8.69,13.71-13.03c0.17-0.16,0.32-0.31,0.47-0.45
			c0.15-0.14,0.29-0.3,0.4-0.5c0.11-0.2,0.2-0.45,0.2-0.73c0-0.43-0.22-0.8-0.43-1c-0.22-0.21-0.43-0.33-0.65-0.44
			c-1.96-0.96-3.93-1.83-5.74-2.86c-1.72-0.97-3.38-2.14-5.09-3.3c-0.12-0.08-0.25-0.16-0.4-0.22c-0.15-0.06-0.34-0.11-0.54-0.11
			c-0.32,0-0.62,0.13-0.79,0.25c-0.18,0.12-0.29,0.23-0.39,0.33c-1.5,1.45-2.95,2.91-4.5,4.17c-0.32,0.26-0.74,0.49-1.24,0.72
			c-0.49,0.23-1.05,0.47-1.61,0.8c-2.2,1.3-4.36,2.64-6.52,3.96c-0.36,0.22-0.66,0.29-0.99,0.3c-0.32,0-0.68-0.09-1.1-0.28
			c-0.74-0.35-1.51-0.55-2.3-0.55c-0.95,0-1.89,0.29-2.75,0.85c-1.28,0.82-2.52,1.64-3.79,2.21c0.25-0.45,0.38-0.97,0.37-1.49
			c0-0.26-0.03-0.52-0.07-0.78c-0.03-0.17-0.11-0.32-0.21-0.45c0.28-0.41,0.66-0.96,1.02-1.49c0.24-0.35,0.46-0.69,0.65-0.98
			c0.01-0.02,0.02-0.03,0.03-0.05c0.14-0.06,0.33-0.12,0.55-0.2c0.25-0.1,0.55-0.22,0.85-0.45c2.69-2.07,4.59-4.73,6.62-7.08
			c2.92-3.38,5.97-6.72,8.76-10.3c2.88-3.68,5.45-7.55,8.14-11.28c0.34-0.47,0.59-1.01,0.59-1.64c0-0.33-0.08-0.67-0.23-0.97
			c-0.15-0.3-0.35-0.56-0.59-0.79c-0.69-0.67-1.39-1.26-2.02-1.85c-0.08-0.07-0.14-0.14-0.2-0.2c0.01-0.09,0.02-0.18,0.02-0.26
			c0-0.82-0.24-1.51-0.48-2.09c-0.24-0.59-0.48-1.09-0.6-1.53c-0.14-0.51-0.3-1-0.47-1.49c0.64,0.18,1.29,0.28,1.93,0.28
			c1.16,0,2.3-0.3,3.38-0.8c3.66-1.71,7.34-3.39,11.02-5.09c1.52-0.7,3.01-1.42,4.51-2.13l0.04-0.02l0.05-0.02
			c0.73-0.33,1.4-0.76,1.87-1.42c0.47-0.66,0.68-1.49,0.68-2.41c0-0.09,0-0.19-0.01-0.28l0,0c-0.07-1.84-0.1-3.68-0.1-5.53
			c0-2.77,0.05-5.56,0.06-8.35v0l0-0.09c0-2.37-0.41-4.75-1.73-6.92c-0.2-0.32-0.43-0.55-0.64-0.75c-0.21-0.19-0.4-0.34-0.53-0.47
			c-0.66-0.62-1.31-1.2-1.92-1.79c0.22-0.24,0.42-0.46,0.6-0.64C53.77,5.27,53.9,5.16,54,5.09c0.1-0.07,0.17-0.09,0.2-0.1
			c0.44-0.09,0.89-0.12,1.36-0.12c1.06,0,2.2,0.2,3.4,0.45c1.14,0.23,2.05,0.72,2.91,1.37c0.86,0.65,1.66,1.48,2.52,2.34
			c1,1,1.92,2.11,2.53,3.27l1.77-0.93c-0.75-1.43-1.81-2.66-2.88-3.75c-0.84-0.84-1.7-1.75-2.73-2.53
			c-1.03-0.78-2.24-1.44-3.72-1.74c-1.23-0.25-2.49-0.49-3.8-0.49c-0.57,0-1.16,0.05-1.74,0.16c-0.37,0.07-0.67,0.23-0.93,0.4
			C52.5,3.69,52.2,4,51.93,4.29c-0.27,0.29-0.51,0.57-0.71,0.76l0,0c-0.23,0.24-0.28,0.43-0.32,0.58C50.87,5.77,50.86,5.89,50.86,6
			c0,0.18,0.02,0.34,0.07,0.52c0.06,0.18,0.1,0.37,0.35,0.63c0.76,0.77,1.56,1.46,2.3,2.15c0.21,0.2,0.4,0.35,0.55,0.48
			c0.15,0.13,0.24,0.24,0.28,0.31c1.07,1.76,1.43,3.72,1.43,5.88l0,0.08v0c-0.01,2.77-0.06,5.56-0.06,8.36
			c0,1.87,0.02,3.73,0.1,5.61l0,0l0,0.2c0,0.65-0.13,0.99-0.31,1.25c-0.18,0.25-0.49,0.5-1.05,0.75l-0.04,0.02l-0.07,0.03
			c-1.52,0.72-3.02,1.44-4.53,2.14c-3.67,1.7-7.35,3.38-11.02,5.1c-0.88,0.41-1.71,0.62-2.54,0.62c-0.66,0-1.31-0.13-2.01-0.42
			c-0.31-0.13-0.57-0.14-0.77-0.15c-0.2-0.01-0.37-0.01-0.57-0.03c-0.34-0.03-0.67,0.11-0.88,0.37c-0.21,0.26-0.27,0.62-0.17,0.94
			c0.39,1.16,0.74,2.11,0.99,3.03c0.19,0.68,0.47,1.25,0.68,1.76c0.21,0.51,0.33,0.93,0.33,1.34c0,0.1-0.01,0.2-0.02,0.3l0,0
			l-0.01,0.18c0,0.3,0.1,0.5,0.17,0.65c0.12,0.22,0.25,0.36,0.36,0.48c0.11,0.12,0.22,0.22,0.29,0.29c0.69,0.66,1.39,1.24,2.01,1.84
			c0.11,0.1,0.16,0.18,0.18,0.23l0.03,0.1c0,0.05-0.02,0.2-0.22,0.46c-2.72,3.77-5.28,7.62-8.1,11.22
			c-2.73,3.49-5.75,6.81-8.7,10.22c-2.11,2.44-3.94,4.97-6.33,6.8c-0.05,0.04-0.16,0.1-0.34,0.17c-0.03,0.01-0.07,0.02-0.1,0.03
			c-0.1-0.03-0.21-0.05-0.32-0.04c-0.4,0.02-0.75,0.27-0.89,0.64l0,0c0,0.01-0.05,0.1-0.12,0.22c-0.24,0.41-0.74,1.15-1.2,1.8
			c-0.23,0.33-0.44,0.65-0.62,0.9c-0.09,0.13-0.16,0.24-0.23,0.34c-0.07,0.1-0.11,0.18-0.16,0.26c-0.39,0.7-0.77,1.39-1.16,2.08
			c-0.19,0.35-0.15,0.75,0.06,1.06c-0.01,0.01-0.01,0.01-0.02,0.01c-0.26,0.26-0.43,0.7-0.41,1.06c0,0.29,0.07,0.53,0.15,0.76
			c0.17,0.45,0.64,0.72,1.11,0.64c0.42-0.08,0.91-0.12,1.43-0.19c0.52-0.07,1.09-0.18,1.66-0.43c1.47-0.66,2.78-1.54,4.04-2.35
			c0.6-0.38,1.13-0.53,1.67-0.53c0.45,0,0.92,0.11,1.45,0.36c0.61,0.29,1.26,0.47,1.95,0.47c0.69,0,1.39-0.2,2.03-0.59
			c2.17-1.33,4.33-2.66,6.5-3.95c0.41-0.24,0.91-0.46,1.45-0.71c0.54-0.25,1.11-0.54,1.65-0.98c1.61-1.31,3.06-2.76,4.49-4.15
			c1.61,1.09,3.23,2.22,4.98,3.21c1.8,1.01,3.64,1.85,5.43,2.71c-0.02,0.02-0.05,0.05-0.08,0.07c-4.57,4.35-9.12,8.71-13.7,13.02
			c-3.62,3.41-7.28,6.73-11.37,9.41c-6.13,4.03-12.25,8.04-18.75,11.52c-0.3,0.16-0.5,0.47-0.53,0.81s0.13,0.67,0.4,0.88
			c0.05,0.04,0.09,0.07,0.11,0.1c-0.05,0.09-0.13,0.23-0.26,0.41c-0.18,0.28-0.45,0.64-0.55,1.22c-0.05,0.32,0.06,0.65,0.3,0.87
			s0.57,0.32,0.89,0.26c1.28-0.26,2.51-0.51,4.2-0.85c0.14-0.03,0.28-0.09,0.39-0.17c0.44-0.33,1.17-0.71,1.95-1.2
			c0.69-0.43,1.44-0.97,2.11-1.69c0.17-0.03,0.36-0.07,0.58-0.11c0.34-0.07,0.73-0.17,1.13-0.38c1.38-0.75,2.64-1.61,3.91-2.33
			c0.28-0.16,0.58-0.31,0.88-0.47c0.34,0.27,0.81,0.31,1.18,0.07c1.22-0.81,2.47-1.37,3.87-1.7c0.01,0.05,0.01,0.1,0.03,0.15
			c0.12,0.27,0.36,0.48,0.65,0.56c0.06,0.02,0.16,0.05,0.3,0.11c0.15,0.05,0.34,0.13,0.67,0.14c0.09,0,0.2-0.01,0.31-0.04
			c2.11-0.5,4.32-0.89,6.49-1.65c1.82-0.64,3.38-1.66,4.91-2.41l0.1-0.04l0.03-0.01c0.17,0.03,0.35,0.05,0.52,0.05
			c0.46,0,0.91-0.12,1.28-0.33c0.05-0.03,0.09-0.07,0.14-0.1c-0.17,0.3-0.3,0.61-0.41,0.95c-0.11,0.36-0.24,0.69-0.39,0.9
			c-0.15,0.21-0.28,0.32-0.53,0.4c-0.31,0.09-0.56,0.33-0.66,0.64c-0.05,0.15-0.06,0.32-0.04,0.47c-0.24,0.08-0.51,0.15-0.83,0.34
			c-0.16,0.1-0.34,0.24-0.5,0.46c-0.16,0.22-0.26,0.53-0.25,0.81c0,0.07,0.01,0.13,0.02,0.19c-0.13,0.07-0.27,0.14-0.41,0.23
			c-0.2,0.14-0.34,0.28-0.47,0.45c-0.07,0.09-0.13,0.18-0.19,0.31c-0.06,0.13-0.12,0.28-0.13,0.55c0,0.08,0.01,0.18,0.04,0.29l0,0
			c0.04,0.16,0.06,0.32,0.06,0.48c0,0.41-0.14,0.83-0.37,1.21c-0.59,0.95-0.81,1.96-0.8,2.91c0,0.84,0.16,1.62,0.35,2.36
			c0.17,0.64,0.42,1.26,0.87,1.78c0.22,0.26,0.5,0.49,0.83,0.66c0.33,0.17,0.71,0.26,1.1,0.26c0.34,0,0.69-0.08,1.03-0.21
			c0.21,0.2,0.45,0.36,0.69,0.45c0.35,0.14,0.68,0.17,0.97,0.18c0.16,0.42,0.52,0.84,0.95,1.04c0.43,0.2,0.85,0.24,1.28,0.24
			c0.07,0,0.15,0.01,0.24,0.01c0.02,0.16,0.06,0.31,0.16,0.45c0.22,0.32,0.61,0.49,0.99,0.43c0.8-0.13,1.6-0.3,2.37-0.38
			c0.16-0.02,0.33-0.02,0.52-0.02c0.27,0,0.56,0.01,0.89,0.01c0.17,0,0.34,0,0.52-0.02l0.16-0.01c0.35,0,0.63,0.07,0.93,0.2
			c0.29,0.13,0.58,0.34,0.89,0.61c0.03,0.02,0.04,0.04,0.07,0.06c-0.31,0.33-0.38,0.83-0.12,1.22c0.28,0.43,0.84,0.58,1.3,0.35
			c0.14-0.07,0.2-0.07,0.23-0.07c0.03,0,0.07,0,0.2,0.07c0.12,0.07,0.3,0.21,0.52,0.38c1.32,1.01,2.67,2,4.04,3.01
			c-0.58,0.5-1.14,0.98-1.68,1.45c-0.11,0.1-0.2,0.21-0.26,0.35l-0.01,0.03c-0.02,0.05-0.08,0.16-0.14,0.27
			c-0.1,0.02-0.19,0.05-0.28,0.08c-0.16,0.06-0.31,0.12-0.47,0.23c-0.52,0.36-0.93,0.73-1.32,1.01c-2.98,2.21-5.85,4.5-8.86,6.51
			c-4.43,2.95-9.07,5.37-14.23,6.42c-1.72,0.36-3.6,0.4-5.52,0.51c-0.1,0.01-0.21,0.01-0.31,0.01c-1.38,0.01-2.8-0.55-4.35-1.1
			c-1.08-0.38-2.07-0.84-2.86-1.44c-0.79-0.6-1.4-1.33-1.8-2.35c-0.35-0.91-0.61-1.92-0.93-2.97c-0.15-0.47-0.6-0.76-1.09-0.69
			s-0.85,0.47-0.87,0.96l0,0.05c0,0.88,0.05,1.77,0.14,2.66c0.01,0.09,0.02,0.17,0.03,0.25c-0.28-0.13-0.61-0.14-0.88,0
			c-0.23,0.12-0.38,0.33-0.47,0.56c-0.23-0.13-0.5-0.17-0.76-0.1c-0.28,0.08-0.52,0.29-0.63,0.56c-0.05,0.13-0.09,0.23-0.11,0.31
			c-0.16,0.11-0.32,0.24-0.43,0.41c-0.2,0.28-0.28,0.61-0.28,0.9c0.01,0.51,0.2,0.85,0.37,1.11c0.46,0.7,1.03,1.33,1.71,1.84
			c0.68,0.51,1.48,0.89,2.37,1.03c0.16,0.02,0.36,0.11,0.64,0.25c0.14,0.07,0.3,0.15,0.49,0.22c0.19,0.07,0.43,0.14,0.72,0.15
			l0.12,0.01c0.01,0.03,0.03,0.08,0.05,0.14c0.01,0.05,0.03,0.11,0.04,0.17c-1.21-0.44-2.41-0.93-3.65-1.42
			c-0.39-0.15-0.84-0.05-1.12,0.27l-0.15,0.17c-0.18,0.2-0.27,0.48-0.25,0.75c0.02,0.27,0.16,0.52,0.37,0.69
			c0.2,0.16,0.42,0.35,0.69,0.55c0.32,0.23,0.61,0.29,0.82,0.34c0.11,0.02,0.19,0.04,0.27,0.05c0.01,0.27,0.1,0.44,0.16,0.54
			c0.12,0.19,0.22,0.26,0.3,0.33c0.13,0.1,0.24,0.16,0.36,0.22c0.12,0.06,0.24,0.11,0.42,0.15c0.71,0.14,1.35,0.2,1.9,0.33
			c2.14,0.49,4.31,0.84,6.54,0.98c0.22,0.01,0.51,0.11,0.83,0.24c-0.15,0.04-0.3,0.09-0.45,0.13c-0.7,0.2-1.32,0.36-1.88,0.35
			c-0.17,0-0.33-0.01-0.5-0.04l0,0l-0.23-0.02c-0.27,0-0.43,0.06-0.53,0.09l-0.08,0.02c-0.47,0.04-0.93,0.08-1.38,0.1
			c-0.19,0.01-0.39,0.01-0.6,0.01c-0.31,0-0.64,0-0.97,0c-0.27,0-0.53,0.11-0.72,0.3s-0.29,0.46-0.28,0.73l0.01,0.22
			c0.01,0.39,0.25,0.74,0.62,0.89c0.2,0.08,0.44,0.19,0.72,0.3c0.28,0.1,0.62,0.2,1.02,0.2c0.4,0.01,0.84-0.12,1.23-0.36
			c0.09,0.06,0.17,0.12,0.27,0.16c0.27,0.13,0.56,0.18,0.81,0.18c0.4,0,0.7-0.11,0.94-0.18c0.23-0.08,0.4-0.14,0.48-0.15
			c0.6-0.11,1.2-0.21,1.85-0.32c0.02,0.05,0.04,0.11,0.08,0.16c0.23,0.33,0.63,0.49,1.02,0.41c1.25-0.25,2.58-0.56,3.8-1.24
			c0.31-0.17,0.44-0.19,0.5-0.19c0.05,0,0.11,0.01,0.25,0.07c0.38,0.16,0.89,0.45,1.6,0.52c1.33,0.13,2.66,0.19,3.97,0.25l0.09-2
			l0,0c-1.31-0.06-2.6-0.12-3.86-0.24c-0.18-0.01-0.54-0.16-1-0.37c-0.33-0.14-0.68-0.23-1.05-0.23c-0.57,0-1.05,0.21-1.48,0.45
			c-0.29,0.16-0.62,0.3-0.95,0.43c0.01-0.05,0.03-0.09,0.04-0.15l0,0l0-0.09c0-0.27-0.06-0.46-0.15-0.66
			c-0.05-0.1-0.1-0.21-0.19-0.33c-0.09-0.11-0.22-0.25-0.46-0.36c-0.41-0.18-0.89-0.46-1.41-0.71c-0.53-0.25-1.13-0.49-1.83-0.54
			c-1.63-0.1-3.23-0.33-4.83-0.64c0.07-0.12,0.1-0.23,0.12-0.31c0.04-0.17,0.05-0.31,0.05-0.43c0-0.31-0.05-0.57-0.13-0.84
			c-0.03-0.09-0.07-0.24-0.12-0.42c-0.08-0.27-0.19-0.68-0.56-1.05c-0.18-0.18-0.42-0.34-0.68-0.43c-0.25-0.09-0.52-0.13-0.8-0.14
			l0,0l-0.02-0.01c-0.06-0.02-0.25-0.11-0.51-0.24c-0.26-0.13-0.61-0.28-1.05-0.36c-0.53-0.08-1.02-0.31-1.48-0.65
			c-0.42-0.32-0.81-0.74-1.15-1.22c0.03-0.03,0.07-0.05,0.1-0.08C10.27,148.28,10.35,148.3,10.45,148.3z M43.91,107.21
			c0.08-0.07,0.3-0.16,0.6-0.28c0.3-0.12,0.71-0.26,1.12-0.6c1.31-1.1,2.6-2.21,3.89-3.32c-1.16,1.15-2.32,2.3-3.48,3.43
			c-0.32,0.32-0.61,0.59-0.88,0.76c-0.27,0.17-0.48,0.25-0.76,0.25l-0.06,0c-0.23-0.01-0.47-0.03-0.72-0.04
			C43.71,107.34,43.81,107.28,43.91,107.21z"/>
		<path class="st1" d="M105.29,85.51c-0.57-0.39-1.04-0.74-1.58-1.09c-0.55-0.34-1.17-0.66-1.98-0.94c-2.15-0.76-4.3-1.41-6.38-2.15
			c-2.13-0.75-4.26-1.36-6.07-2.32c-3-1.59-5.87-3.49-8.85-5.31l-1.04,1.71h0c2.93,1.79,5.84,3.72,8.95,5.37
			c2.07,1.1,4.29,1.71,6.34,2.44c2.15,0.76,4.3,1.42,6.39,2.15c0.69,0.24,1.14,0.47,1.58,0.75c0.67,0.41,1.35,0.98,2.56,1.72
			c1.2,0.74,2.9,1.65,5.66,2.81c3.6,1.5,6.88,3.14,9.27,4.4c0.27,0.14,0.53,0.28,0.77,0.41c-0.52-0.06-1.07-0.17-1.66-0.29
			c-2.11-0.44-4.21-0.75-6.29-1.1l-0.23-0.02c-0.21,0-0.35,0.04-0.44,0.06l-0.1,0.03l-0.03,0.01c-0.37,0.06-0.66,0.33-0.77,0.67
			c-0.91,0.07-1.81,0.14-2.69,0.19l-0.09-0.07c-0.11-0.1-0.22-0.2-0.39-0.29c-0.16-0.09-0.39-0.18-0.67-0.18
			c-0.32,0-0.62,0.14-0.8,0.28c-0.18,0.14-0.29,0.28-0.4,0.42c-0.19,0.26-0.38,0.45-0.54,0.56c-0.17,0.11-0.3,0.15-0.52,0.16l-0.1,0
			l-0.26-0.01c-0.43,0-0.79,0.07-1.07,0.1c-1.51,0.17-3.02,0.35-4.52,0.53c-0.05,0.01-0.19,0.01-0.4,0.03
			c-0.2,0.03-0.52,0.05-0.88,0.32c-0.28,0.21-0.52,0.27-0.89,0.27c-0.36,0-0.8-0.09-1.3-0.18c-1.8-0.34-3.59-0.77-5.27-1.38
			c-0.72-0.26-1.41-0.45-2.01-0.7c-0.61-0.25-1.13-0.53-1.6-0.97l-1.37,1.46c0.7,0.66,1.48,1.07,2.22,1.37
			c0.74,0.3,1.45,0.5,2.08,0.73c1.82,0.66,3.71,1.11,5.58,1.47c0.46,0.08,1.02,0.22,1.67,0.22c0.61,0.01,1.33-0.16,1.97-0.6
			c0.07-0.01,0.21-0.01,0.44-0.03c1.5-0.18,3.01-0.36,4.51-0.53c0.36-0.04,0.64-0.09,0.84-0.09l0.1,0l0.26,0.01
			c0.62,0,1.19-0.2,1.63-0.5c0.29-0.2,0.52-0.43,0.73-0.67c0.03,0.02,0.05,0.04,0.08,0.05c0.2,0.11,0.45,0.24,0.84,0.25l0.07,0
			c1.56-0.09,3.1-0.22,4.7-0.34c0.29-0.02,0.53-0.18,0.7-0.39c1.61,0.26,3.22,0.53,4.79,0.85c0.88,0.18,1.82,0.39,2.84,0.39
			c0.53,0,1.09-0.06,1.66-0.21c0.03-0.01,0.09-0.02,0.21-0.02c0.2,0,0.53,0.03,0.96,0.04c0.45,0,0.85-0.3,0.96-0.74
			c0.12-0.43-0.07-0.89-0.45-1.12c-0.02-0.01-6.03-3.59-13.37-6.66C108.05,87.31,106.43,86.29,105.29,85.51z"/>
		<path class="st1" d="M80.39,73.04c0.9-0.42,1.78-0.79,2.43-0.8c0.36-0.02,0.73-0.03,1.15-0.15c0.42-0.12,0.84-0.38,1.17-0.75
			c0.95-1.04,1.96-2.07,2.94-3.15l0.15-0.13l0.01,0l0,0c0.01,0,0.11,0.01,0.29,0.11c2.31,1.26,4.62,2.46,6.87,3.75
			c0.63,0.36,1.22,0.69,1.73,1.05c0.51,0.37,0.94,0.77,1.27,1.27c0.38,0.57,0.9,0.99,1.46,1.26c0.56,0.27,1.17,0.4,1.77,0.44l0.01,0
			l0.1,0c0.2,0,0.36-0.03,0.56-0.08c0.1-0.03,0.2-0.06,0.34-0.14c0.03-0.02,0.08-0.06,0.12-0.09c0.74,0.48,1.48,0.98,2.27,1.5
			c0.23,0.16,0.53,0.21,0.8,0.14c0.27-0.07,0.51-0.26,0.64-0.51c0.09-0.18,0.15-0.32,0.18-0.39l0.02-0.04
			c0.14-0.14,0.25-0.26,0.33-0.33c0.04,0,0.07,0,0.11,0c1.03,0,1.92-0.31,2.69-0.67c0.77-0.36,1.44-0.76,2.07-1.04
			c0.34-0.16,0.53-0.35,0.72-0.57c0.09-0.11,0.17-0.24,0.25-0.39c0.07-0.15,0.14-0.34,0.14-0.61l0-0.07l0-0.01
			c-0.05-0.88-0.06-1.85-0.23-2.85c-0.18-1-0.55-2.06-1.34-2.99c-0.89-1.05-1.75-2.08-2.39-3.16l-1.73,1.01h0
			c0.75,1.28,1.7,2.39,2.58,3.44c0.52,0.61,0.76,1.27,0.9,2.05c0.13,0.71,0.15,1.51,0.19,2.36c-0.74,0.34-1.4,0.72-2.01,1
			c-0.65,0.3-1.23,0.49-1.85,0.49l-0.21-0.01l-0.09,0c-0.31,0-0.54,0.1-0.7,0.19c-0.25,0.14-0.41,0.29-0.55,0.43
			c-0.12,0.11-0.21,0.21-0.28,0.29c-0.54-0.36-1.07-0.72-1.62-1.07c-0.05-0.03-0.15-0.11-0.3-0.2c-0.16-0.09-0.38-0.23-0.79-0.24
			c-0.16,0-0.34,0.03-0.5,0.1c-0.23,0.1-0.4,0.26-0.52,0.42c-0.3-0.04-0.58-0.11-0.8-0.22c-0.28-0.14-0.5-0.31-0.66-0.56
			c-0.5-0.76-1.13-1.33-1.77-1.79c-0.64-0.46-1.3-0.82-1.91-1.17c-2.29-1.31-4.62-2.52-6.9-3.76c-0.36-0.2-0.78-0.35-1.25-0.36
			c-0.31,0-0.63,0.07-0.91,0.22c-0.28,0.14-0.52,0.34-0.73,0.57c-0.95,1.04-1.96,2.07-2.94,3.15c-0.13,0.13-0.16,0.14-0.27,0.18
			c-0.11,0.03-0.32,0.06-0.64,0.07c-1.24,0.06-2.29,0.59-3.17,0.98L80.39,73.04z"/>
		<path class="st1" d="M71.63,21.02c0.26,0.44,0.61,0.79,0.99,1.03c0.57,0.36,1.15,0.48,1.64,0.56c0.49,0.07,0.92,0.11,1.23,0.2
			c0.57,0.15,1.1,0.2,1.55,0.27c0.05,0.01,0.1,0.02,0.14,0.02c0.03,0.44,0.25,0.86,0.57,1.13c0.33,0.28,0.73,0.4,1.11,0.4
			c0.42,0,0.84-0.14,1.19-0.42c0.43-0.35,0.75-0.78,0.99-1.21l-1.75-0.97c-0.07,0.13-0.15,0.25-0.23,0.35
			c-0.02-0.08-0.04-0.16-0.08-0.23c-0.17-0.38-0.52-0.69-0.83-0.82c-0.31-0.14-0.58-0.19-0.81-0.22c-0.52-0.08-0.98-0.13-1.35-0.23
			c-0.73-0.18-1.36-0.2-1.79-0.31c-0.22-0.05-0.38-0.12-0.51-0.2c-0.13-0.08-0.23-0.18-0.35-0.37l0,0
			c-0.15-0.24-0.31-0.35-0.44-0.42c-0.2-0.11-0.34-0.14-0.48-0.17c-0.14-0.02-0.26-0.03-0.38-0.03l-0.15,0.01L72,20.79L71.63,21.02
			C71.63,21.02,71.63,21.02,71.63,21.02L71.63,21.02C71.63,21.02,71.63,21.02,71.63,21.02z"/>
		<path class="st1" d="M54.78,54.32l-0.79-1.84l0,0c-1.29,0.56-2.59,1.12-3.88,1.73c-0.37,0.18-0.69,0.34-0.99,0.66
			c-0.15,0.16-0.28,0.37-0.36,0.59c-0.08,0.22-0.1,0.43-0.1,0.62c0,0.34,0.06,0.62,0.12,0.96c0.11,0.58,0.18,1.14,0.18,1.67
			c0,0.93-0.19,1.76-0.7,2.56c-1.1,1.74-2.22,3.48-3.35,5.25c-0.15,0.23-0.2,0.52-0.13,0.79c0.07,0.27,0.24,0.49,0.49,0.63l0,0
			c0.03,0.01,0.16,0.11,0.33,0.2c0.17,0.1,0.39,0.22,0.66,0.3c2.61,0.8,5.1,1.84,7.45,3.2l1-1.73c-2.39-1.38-4.91-2.44-7.51-3.26
			c0.92-1.44,1.84-2.87,2.75-4.31c0.74-1.16,1.01-2.42,1-3.63c0-0.7-0.08-1.38-0.21-2.05c-0.05-0.24-0.07-0.39-0.08-0.49
			c0.06-0.04,0.15-0.09,0.29-0.15C52.21,55.43,53.49,54.88,54.78,54.32z"/>
		<path class="st1" d="M61.25,119.61c0.07,0.19,0.18,0.36,0.35,0.48c1.71,1.26,3.33,2.48,5,3.66c0.32,0.23,0.73,0.4,1.19,0.4
			c0.31,0,0.62-0.08,0.89-0.23c0.27-0.15,0.5-0.35,0.7-0.58l-1.54-1.28l-0.07,0.06l-0.02-0.01c-1.26-0.89-2.52-1.83-3.82-2.79
			c0.19-0.14,0.38-0.27,0.56-0.43c0.5-0.44,0.93-0.99,1.28-1.62c0.05-0.02,0.14-0.06,0.27-0.11c0.15-0.05,0.33-0.11,0.53-0.21
			l-0.85-1.81h0c-0.1,0.05-0.34,0.12-0.63,0.24c-0.14,0.06-0.29,0.13-0.46,0.23c-0.32-0.31-0.82-0.39-1.21-0.14
			c-0.81,0.5-1.66,1-2.5,1.59c-0.26,0.18-0.38,0.4-0.44,0.56c-0.1,0.24-0.11,0.4-0.13,0.52l-0.02,0.14l-0.01,0.04l0,0.01
			c-0.07,0.28-0.03,0.57,0.13,0.81c0.16,0.24,0.41,0.4,0.69,0.44l0,0C61.13,119.57,61.18,119.59,61.25,119.61z"/>
		<path class="st1" d="M210.33,167.8c-0.02-0.09-0.05-0.18-0.07-0.27c-0.12-0.46-0.56-0.77-1.03-0.74
			c-1.33,0.09-2.59,0.25-3.78,0.25l-0.21,0c-0.8-0.01-1.61-0.04-2.41-0.06c0.03-0.01,0.06-0.02,0.09-0.03l0.07,0
			c0.18,0,0.36,0,0.54,0c0.21,0,0.42,0,0.63,0c0.27,0,0.53-0.11,0.72-0.31s0.29-0.46,0.28-0.73c0-0.11-0.01-0.22-0.01-0.33
			c-0.01-0.36-0.22-0.65-0.52-0.82c0.41-0.17,0.75-0.28,1.03-0.28c0.11,0,0.23,0.01,0.35,0.05c0.21,0.06,0.44,0.04,0.64-0.04
			l0.27-0.11c0.37-0.15,0.61-0.51,0.62-0.9l0.01-0.25c0.01-0.26-0.09-0.5-0.26-0.69c0.04-0.14,0.06-0.29,0.03-0.45
			c-0.08-0.44-0.44-0.77-0.88-0.81c-0.02,0-0.04,0-0.06-0.01c0.17-0.15,0.32-0.32,0.44-0.49c0.22-0.33,0.23-0.76,0.02-1.09
			c-0.11-0.17-0.21-0.33-0.32-0.51c0.09-0.14,0.16-0.3,0.17-0.48c0.01-0.1,0.01-0.2,0.02-0.3c0.03-0.48-0.28-0.91-0.75-1.03
			c-0.43-0.11-0.88-0.24-1.36-0.35c0.29-0.03,0.58-0.06,0.88-0.11c0.39-0.07,0.71-0.36,0.81-0.74c0.1-0.39-0.05-0.79-0.36-1.04
			c-0.26-0.19-0.59-0.42-1.08-0.52c-2.03-0.35-4.08-0.71-6.13-1.03l-0.31,1.98h0c0.09,0.01,0.19,0.03,0.28,0.05l-0.15,0.94
			c0.8,0.12,1.5,0.13,2.04,0.25c0.28,0.06,0.57,0.1,0.85,0.14l-0.57,0.4h0c0.07,0.1,0.14,0.22,0.21,0.35
			c-0.43,0.1-0.76,0.47-0.77,0.93l-0.01,0.26c-0.01,0.42,0.25,0.79,0.63,0.94c-0.07,0-0.15,0.01-0.22,0.02
			c-0.52,0.02-0.93,0.43-0.96,0.95l-0.01,0.27c-0.03,0.52,0.35,0.97,0.86,1.04c0.68,0.09,1.38,0.19,2.07,0.28
			c0.02,0.05,0.02,0.11,0.05,0.15c0.16,0.26,0.44,0.44,0.75,0.47c0.06,0.01,0.11,0.01,0.17,0.02c-0.54,0.24-0.98,0.43-1.32,0.47
			c-0.65,0.08-1.39,0.2-2.17,0.53c-0.39,0.16-0.64,0.55-0.62,0.97c0,0.09,0.03,0.17,0.05,0.26c-0.23-0.02-0.46-0.04-0.7-0.05
			c-0.16-0.01-0.33-0.02-0.5-0.02c-0.68,0-1.38,0.09-2.06,0.32c-0.89,0.31-1.83,0.4-2.84,0.4c-0.85,0-1.74-0.06-2.68-0.06
			c-0.16,0-0.33,0-0.5,0.01c-0.97,0.03-1.86,0.15-2.66,0.15l-0.26,0c-1.35-0.04-2.73-0.21-4.16-0.32c-0.47-0.04-0.95-0.07-1.43-0.08
			c-1.45-0.05-2.93-0.14-4.44-0.14c-0.12,0-0.24,0-0.36,0c-1.96,0.02-3.9,0.14-5.82,0.23c-0.31,0.01-0.6,0.15-0.79,0.3
			c-0.19,0.15-0.32,0.32-0.43,0.49c-0.18,0.27-0.22,0.62-0.09,0.92c0.12,0.3,0.38,0.53,0.7,0.6c0.33,0.07,0.76,0.22,1.31,0.29
			c1.84,0.21,3.69,0.41,5.54,0.58c0.47,0.04,0.95,0.08,1.42,0.13c-2.3-0.08-4.61-0.15-6.92-0.19c-1.46-0.03-2.92-0.04-4.39-0.04
			c-1.55,0-3.09,0.02-4.64,0.05c-1.25,0.04-2.36,0.38-3.35,0.54c-0.44,0.08-0.78,0.44-0.83,0.89l-0.02,0.18
			c-0.01,0.11,0,0.22,0.03,0.33c-2.82,0.2-5.56,0.72-8.27,1.39c-1.37,0.34-2.55,0.84-3.69,1.09c-1.36,0.31-2.84,0.45-4.36,0.74
			c-1.07,0.21-1.99,0.55-2.8,0.65l-0.08,0c-0.2,0.01-0.62-0.12-1.12-0.26c-0.47-0.13-1-0.36-1.62-0.57
			c-0.23-0.07-0.4-0.09-0.52-0.11l-0.13-0.02l-0.04-0.01c-1.14-0.4-2.28-0.81-3.39-1.24c-0.31-0.12-0.67-0.33-1.11-0.55
			c-0.14-0.07-0.29-0.11-0.45-0.11c-0.39,0-0.7,0.05-0.92,0.05c-0.12,0-0.2-0.01-0.24-0.02c-3.43-1.04-6.86-2.02-10.19-3.2
			c-4.07-1.44-8.11-2.96-12.06-4.65c-5.13-2.19-10.14-4.57-14.71-7.7c-1.77-1.21-3.67-2.04-5.37-3.01
			c-6.02-3.41-12.09-6.62-17.68-10.55c-0.4-0.28-0.87-0.53-1.46-0.53c-0.33,0-0.66,0.09-0.94,0.24c-0.28,0.15-0.52,0.35-0.73,0.58
			c-0.44,0.48-1.08,0.93-1.76,1.48c-0.06,0.05-0.11,0.09-0.14,0.12c-0.51,0.12-0.97,0.31-1.37,0.55c-0.67,0.41-1.18,0.9-1.65,1.32
			c-0.47,0.42-0.89,0.76-1.32,0.96c-0.17,0.08-0.3,0.19-0.39,0.29c-0.16,0.18-0.22,0.33-0.27,0.45c-0.07,0.17-0.09,0.29-0.12,0.37
			l-0.02,0.05c-0.03,0.04-0.06,0.09-0.09,0.13c-0.53,0.01-0.97,0.21-1.28,0.4c-0.31,0.19-0.53,0.37-0.68,0.46
			c-0.7,0.44-1.19,0.91-1.61,1.12c-0.32,0.18-0.91,0.27-1.62,0.54c-0.85,0.33-1.72,0.67-2.58,1.08l0.86,1.81
			c0.78-0.37,1.6-0.7,2.44-1.02c0.42-0.17,1.08-0.26,1.83-0.63c0.77-0.41,1.28-0.93,1.72-1.19c0.31-0.19,0.53-0.37,0.68-0.46
			c0.16-0.1,0.21-0.1,0.26-0.1l0.08,0.01l0.01,0l0.23,0.02c0.24,0,0.4-0.07,0.51-0.12c0.2-0.1,0.3-0.2,0.39-0.29
			c0.25-0.25,0.41-0.51,0.53-0.68c0.16-0.26,0.22-0.45,0.25-0.58c0.83-0.46,1.43-1.06,1.98-1.53c0.31-0.27,0.6-0.5,0.88-0.68
			c0.29-0.17,0.56-0.29,0.88-0.34c0.35-0.07,0.53-0.22,0.65-0.31c0.12-0.1,0.19-0.17,0.21-0.18c0.58-0.48,1.3-0.97,1.95-1.66
			c0.11-0.12,0.18-0.17,0.21-0.18c0.03,0.01,0.13,0.05,0.3,0.17c5.72,4.02,11.86,7.26,17.84,10.65c1.82,1.03,3.67,1.85,5.23,2.93
			c4.75,3.25,9.87,5.67,15.05,7.89c4.01,1.71,8.09,3.24,12.18,4.7c3.41,1.21,6.86,2.2,10.28,3.23c0.3,0.09,0.58,0.11,0.82,0.11
			c0.28,0,0.51-0.02,0.69-0.04c0.3,0.16,0.64,0.35,1.07,0.52c1.15,0.44,2.3,0.85,3.44,1.26c0.23,0.08,0.41,0.1,0.54,0.12
			c0.12,0.02,0.19,0.03,0.19,0.03c0.5,0.16,1.05,0.41,1.71,0.6c0.41,0.11,0.95,0.33,1.66,0.34c0.11,0,0.22-0.01,0.34-0.02
			c1.11-0.15,2.06-0.51,2.91-0.67c1.4-0.27,2.9-0.41,4.43-0.75c1.37-0.31,2.56-0.82,3.73-1.1c2.75-0.68,5.47-1.2,8.25-1.37
			c0.41-0.03,0.7-0.18,0.91-0.29c0.21-0.11,0.36-0.21,0.44-0.24c0.25-0.12,0.45-0.34,0.53-0.6c0.05-0.17,0.05-0.34,0.01-0.51
			c0.66-0.14,1.29-0.26,1.85-0.27c1.53-0.04,3.06-0.05,4.59-0.05c1.45,0,2.9,0.01,4.35,0.04c3.49,0.06,6.99,0.2,10.5,0.31
			c4.77,0.15,9.54,0.34,14.33,0.44c0.33,0.01,0.67,0.01,1,0.01c1.55,0,3.09-0.08,4.61-0.17c1.01-0.06,1.89-0.33,2.68-0.47
			c0.35-0.07,0.62-0.31,0.75-0.63c0.07,0,0.17-0.01,0.29-0.02c0.11-0.01,0.24-0.03,0.42-0.08c0.17-0.06,0.43-0.17,0.64-0.48
			c0.07-0.11,0.12-0.14,0.17-0.18c0.08-0.05,0.21-0.09,0.45-0.12c0.24-0.03,0.56-0.03,0.95-0.07c0.51-0.07,0.84-0.25,1.04-0.3
			C210.17,168.85,210.47,168.32,210.33,167.8z M60.28,148.69L60.28,148.69L60.28,148.69C60.29,148.69,60.28,148.69,60.28,148.69z
			 M194.37,166.73L194.37,166.73C194.37,166.73,194.36,166.73,194.37,166.73L194.37,166.73z M202.62,169.31
			c-0.16,0.02-0.31,0.04-0.46,0.05c-1.51,0.09-3.01,0.16-4.49,0.16c-0.32,0-0.64,0-0.96-0.01c-3.38-0.08-6.77-0.19-10.16-0.31
			c-0.02-0.1-0.05-0.19-0.09-0.28c1.09,0.04,2.24,0.18,3.48,0.18h0.02l0.01,0c1.25,0,2.44-0.18,3.55-0.28
			c0.41-0.04,0.67-0.11,0.76-0.1h0l0.01,0c2.84,0.08,5.69,0.18,8.55,0.25C202.75,169.07,202.68,169.18,202.62,169.31z"/>
	</g>
</g>
</svg>
