<?xml version="1.0" encoding="utf-8"?>
<!-- Generator: Adobe Illustrator 28.1.0, SVG Export Plug-In . SVG Version: 6.00 Build 0)  -->
<svg version="1.1" id="Sky" xmlns="http://www.w3.org/2000/svg" xmlns:xlink="http://www.w3.org/1999/xlink" x="0px" y="0px"
	 viewBox="0 0 9000 800" style="enable-background:new 0 0 9000 800;" xml:space="preserve">
<style type="text/css">
	.st0{fill:url(#SVGID_1_);}
	.st1{fill:#F1FAFB;}
</style>
<g>
	
		<radialGradient id="SVGID_1_" cx="1252.8008" cy="271.2134" r="1439.5878" fx="1249.3413" fy="271.2637" gradientTransform="matrix(3.0005 0 0 -1 -1.7663 802)" gradientUnits="userSpaceOnUse">
		<stop  offset="0" style="stop-color:#F1FFFA"/>
		<stop  offset="0.0131" style="stop-color:#EAFBF8"/>
		<stop  offset="0.0615" style="stop-color:#D5F1F2"/>
		<stop  offset="0.1157" style="stop-color:#C6EAED"/>
		<stop  offset="0.18" style="stop-color:#BEE5EB"/>
		<stop  offset="0.2799" style="stop-color:#BBE4EA"/>
		<stop  offset="0.6545" style="stop-color:#B9E4EB"/>
		<stop  offset="0.7895" style="stop-color:#B2E4ED"/>
		<stop  offset="0.8856" style="stop-color:#A7E4F1"/>
		<stop  offset="0.9629" style="stop-color:#96E4F6"/>
		<stop  offset="0.9957" style="stop-color:#8CE4F9"/>
	</radialGradient>
	<rect x="0.25" class="st0" width="8999.75" height="800"/>
</g>
<path class="st1" d="M415.39,316.15c6.18,0,11.71-5.03,18.14-2.06c1.68-6.01,6.68-5.96,12.92-4.39c1.74,0.44,3.75,0.57,5.47,0.15
	c3.19-0.78,4.31-3.12,3.46-6.33c-0.35-1.33-0.9-2.61-1.27-3.93c-1.38-4.91,0.49-8.97,5.4-10.14c3.45-0.83,7.18-0.51,10.63-0.69
	c-1.48-1.9-2.93-5-1.16-8.07c1.55-2.69,3.95-4.89,5.97-7.31c0.46-0.05,0.92-0.09,1.37-0.14c-0.58-0.24-1.28-0.35-1.73-0.74
	c-3.7-3.29-3.22-6.54,1.64-7.81c3.72-0.97,7.76-0.75,11.82-1.06c-0.15-0.56-0.45-1.74-0.78-2.91c-1.99-7.07,0.22-12.71,5.89-17.12
	c4.55-3.54,9.88-5.27,15.48-6.18c9.44-1.54,18.82-1.32,27.88,2.02c12.99,4.8,16.57,11.29,13.81,24.89c2.79-0.75,5.45-1.91,8.15-2.06
	c3.08-0.17,6.29,0.23,9.28,1c2.85,0.74,4.57,2.75,3.17,5.86c2.36,0.63,4.79,0.92,6.87,1.92c3.08,1.49,1.92,3.64-0.12,5.55
	c22.39,2.84,25.01,4.67,27.88,18.66c4.72-1.09,9.41-2.82,14.18-3.12c6.92-0.44,9.69,1.89,10.65,6.96c4.5-1.15,8.96-2.79,13.54-3.36
	c7.62-0.95,14.98,0.2,21.51,4.79c0.7,0.49,2.03,0.24,3.04,0.13c3.21-0.35,6.42-1.21,9.6-1.1c4.38,0.15,7.28,2.63,8.01,7.17
	c0.7,4.31,3.27,7.42,6.8,9.52c3.14,1.87,6.56,3.76,10.08,4.43c8.81,1.67,17.75,2.66,26.64,3.91c1,0.14,2.01,0.21,3.02,0.31
	c0.06,0.29,0.12,0.57,0.18,0.86c-0.94,0.26-1.92,0.44-2.81,0.83c-0.47,0.2-1.13,0.79-1.1,1.14c0.04,0.44,0.66,1.07,1.13,1.17
	c3.19,0.68,5.34-0.57,6.36-4.08c12.3,1.06,24.55,1.86,36.74,3.27c7.86,0.91,15.65,2.59,23.41,4.21c2.33,0.49,4.46,1.96,6.68,2.98
	c-0.08,0.35-0.17,0.7-0.25,1.05c-0.99,0.12-1.98,0.28-2.97,0.35c-37.92,2.87-75.82,5.95-113.76,8.52
	c-34.34,2.33-68.68,5.09-103.15,4.18c-3.93-0.1-7.83-0.91-11.75-1.4c-0.1-0.5-0.21-0.99-0.31-1.49c2.13-1.44,4.26-2.88,7.31-4.94
	c-2.49-0.7-4.16-1.53-5.87-1.61c-11.95-0.5-23.92-1.34-35.86-1.13c-29.33,0.52-58.66,1.3-87.97,2.42
	c-52.7,2.03-105.4,4.39-158.09,6.61c-5.25,0.22-10.51,0.82-15.74,0.58c-5.87-0.26-11.62,0.87-17.46,0.82
	c-6.03-0.05-12.07,0.28-18.1,0.46c-6.03,0.18-12.07,0.51-18.1,0.54c-16.84,0.08-33.68,0.36-50.51-0.14
	c-6.01-0.18-11.98-2.3-17.94-3.66c-1.13-0.26-2.11-1.11-4.02-2.17c1.96-0.79,3.01-1.48,4.13-1.62c7.98-1.01,15.99-1.84,23.96-2.89
	c2.9-0.38,5.75-1.23,8.62-1.86c0.01-0.59,0.03-1.19,0.04-1.78c-2.53-0.64-5.05-1.77-7.6-1.84c-11.42-0.34-22.86-0.67-34.28-0.47
	c-13.87,0.24-27.73,1.03-41.59,1.57c-19.99,0.78-39.98,1.55-59.96,2.3c-1.1,0.04-2.21-0.09-3.31-0.15
	c-0.14-0.36-0.27-0.71-0.41-1.07c1.68-1.06,3.23-2.56,5.06-3.08c5.08-1.45,10.24-2.69,15.43-3.64c6.22-1.14,12.07-3.06,17.42-6.49
	c4.47-2.87,9.32-3.96,14.52-2.2c2.02,0.68,2.45-0.59,2.65-2.07c1.82-13.52,14.02-25.02,29.05-26.35c7.26-0.64,13.84,1.2,19.75,5.46
	c0.76,0.55,1.5,1.12,2.75,2.06c0.89-10.13,4.64-18.23,14.35-21.9c9.5-3.59,18.08-1.15,26.58,5.84c-2.89-7.02-2.99-13.12,0.07-19.05
	c3.07-5.96,8.11-9.25,15.6-10.33c-4.64-2.28-7.41-5-8.27-9.31c-0.52-2.64-0.49-5.06,1.74-6.99c0.39-0.34,0.66-0.83,1.02-1.21
	c1.43-1.55,2.87-4.36,4.32-4.37c2.83-0.03,5.69,1.48,8.51,2.43c0.56,0.19,1.01,0.7,1.84,1.3c0.88-1.88,1.65-3.56,2.46-5.22
	c3.22-6.67,8-11.82,13.54-16.85c11.46-10.41,24.78-13.72,39.53-12.97c23.2,1.17,43.49,18.18,47.93,40.44
	c1.92,9.61,1.18,19.06-6.13,26.78c-0.19,0.2-0.2,0.57-0.35,1.05c6.81,2.76,10.47,7.9,11.1,15.12c2.17,0.42,4.33,0.55,6.25,1.28
	c3.85,1.46,6.43,4.07,7.42,8.37c0.68,2.98,2.27,5.75,3.52,8.77c9.94-2.93,18.6,0.11,25.36,7.13c2.88-1.79,5.35-4.23,8.21-4.85
	c2.84-0.62,6.07,0.59,9.43,1.04c3.8-5.93,7.61-6.88,14.76-3.45c5.22,2.5,10.63,4.62,15.77,7.26c2.28,1.17,4.12,3.2,6.17,4.84
	C415.55,315.56,415.47,315.85,415.39,316.15z"/>
<path class="st1" d="M1963.62,375.34c9.37,0,17.76-7.62,27.49-3.12c2.54-9.11,10.13-9.03,19.59-6.65c2.64,0.66,5.69,0.86,8.29,0.23
	c4.84-1.18,6.53-4.73,5.24-9.6c-0.53-2.01-1.36-3.95-1.92-5.96c-2.09-7.44,0.74-13.59,8.19-15.37c5.23-1.25,10.88-0.77,16.11-1.04
	c-2.24-2.88-4.44-7.59-1.76-12.23c2.35-4.08,5.98-7.41,9.05-11.08c0.69-0.07,1.39-0.14,2.08-0.21c-0.88-0.36-1.94-0.52-2.62-1.12
	c-5.61-4.99-4.88-9.92,2.49-11.83c5.65-1.47,11.76-1.13,17.91-1.61c-0.23-0.85-0.69-2.64-1.19-4.41
	c-3.01-10.71,0.33-19.26,8.92-25.94c6.9-5.37,14.98-7.99,23.46-9.37c14.31-2.33,28.53-2,42.27,3.07
	c19.7,7.28,25.11,17.11,20.94,37.72c4.24-1.13,8.25-2.9,12.36-3.13c4.66-0.26,9.53,0.35,14.07,1.52c4.31,1.12,6.93,4.17,4.8,8.88
	c3.58,0.96,7.26,1.39,10.42,2.91c4.67,2.25,2.91,5.52-0.18,8.41c33.93,4.3,37.9,7.07,42.26,28.28c7.16-1.65,14.26-4.27,21.49-4.73
	c10.49-0.67,14.68,2.86,16.14,10.54c6.83-1.75,13.58-4.23,20.53-5.1c11.55-1.43,22.71,0.3,32.61,7.27c1.06,0.75,3.08,0.36,4.61,0.19
	c4.86-0.53,9.73-1.83,14.55-1.67c6.64,0.22,11.03,3.99,12.15,10.86c1.06,6.53,4.96,11.25,10.3,14.43c4.76,2.84,9.94,5.7,15.29,6.71
	c13.35,2.53,26.9,4.03,40.37,5.93c1.52,0.21,3.05,0.32,4.57,0.47c0.09,0.43,0.18,0.87,0.27,1.3c-1.43,0.4-2.91,0.67-4.26,1.25
	c-0.71,0.31-1.71,1.19-1.66,1.73c0.06,0.66,1,1.62,1.71,1.77c4.83,1.04,8.1-0.86,9.64-6.18c18.64,1.61,37.21,2.81,55.68,4.95
	c11.92,1.38,23.72,3.92,35.48,6.38c3.54,0.74,6.76,2.97,10.13,4.52c-0.13,0.53-0.26,1.06-0.38,1.59c-1.5,0.18-3,0.42-4.5,0.53
	c-57.47,4.35-114.93,9.01-172.43,12.92c-52.05,3.53-104.1,7.72-156.35,6.33c-5.95-0.16-11.87-1.38-17.81-2.12
	c-0.16-0.75-0.32-1.51-0.47-2.26c3.23-2.18,6.46-4.37,11.08-7.49c-3.77-1.07-6.31-2.33-8.89-2.43c-18.11-0.76-36.25-2.04-54.36-1.72
	c-44.46,0.79-88.91,1.97-133.34,3.68c-79.89,3.07-159.76,6.65-239.63,10.02c-7.96,0.34-15.94,1.24-23.86,0.88
	c-8.9-0.4-17.61,1.33-26.46,1.25c-9.14-0.08-18.29,0.43-27.44,0.7c-9.15,0.27-18.29,0.77-27.44,0.81
	c-25.52,0.12-51.06,0.54-76.55-0.22c-9.12-0.27-18.16-3.49-27.19-5.55c-1.71-0.39-3.2-1.69-6.1-3.29c2.96-1.2,4.56-2.25,6.26-2.46
	c12.1-1.54,24.23-2.79,36.32-4.39c4.4-0.58,8.71-1.86,13.06-2.82c0.02-0.9,0.04-1.8,0.06-2.7c-3.84-0.97-7.65-2.68-11.52-2.79
	c-17.32-0.52-34.65-1.02-51.97-0.71c-21.02,0.37-42.03,1.57-63.04,2.38c-30.3,1.18-60.59,2.34-90.89,3.49
	c-1.67,0.06-3.35-0.14-5.02-0.22c-0.21-0.54-0.42-1.08-0.62-1.62c2.54-1.6,4.89-3.88,7.66-4.67c7.7-2.2,15.52-4.07,23.39-5.52
	c9.43-1.73,18.29-4.63,26.41-9.84c6.78-4.35,14.12-6,22.01-3.34c3.07,1.03,3.71-0.9,4.01-3.13c2.76-20.49,21.26-37.93,44.04-39.94
	c11-0.97,20.99,1.82,29.94,8.28c1.15,0.83,2.27,1.69,4.17,3.12c1.35-15.36,7.03-27.63,21.75-33.2c14.4-5.44,27.4-1.74,40.29,8.85
	c-4.38-10.64-4.53-19.88,0.11-28.87c4.66-9.04,12.3-14.02,23.64-15.65c-7.04-3.46-11.23-7.59-12.53-14.11
	c-0.79-4-0.74-7.67,2.64-10.59c0.6-0.52,1-1.25,1.55-1.84c2.17-2.35,4.35-6.6,6.56-6.63c4.29-0.04,8.62,2.25,12.9,3.68
	c0.85,0.28,1.53,1.05,2.79,1.96c1.33-2.84,2.5-5.39,3.72-7.92c4.87-10.11,12.12-17.91,20.52-25.54
	c17.38-15.78,37.55-20.79,59.92-19.66c35.17,1.77,65.92,27.55,72.65,61.29c2.91,14.57,1.79,28.89-9.29,40.6
	c-0.29,0.3-0.3,0.87-0.53,1.6c10.33,4.18,15.88,11.98,16.83,22.91c3.29,0.64,6.56,0.83,9.48,1.94c5.83,2.22,9.75,6.16,11.25,12.69
	c1.04,4.51,3.44,8.71,5.33,13.3c15.07-4.45,28.2,0.17,38.44,10.81c4.37-2.72,8.11-6.41,12.44-7.36c4.3-0.94,9.2,0.9,14.29,1.58
	c5.76-8.99,11.53-10.43,22.38-5.23c7.91,3.8,16.11,7,23.91,11c3.46,1.77,6.25,4.85,9.35,7.34
	C1963.86,374.45,1963.74,374.9,1963.62,375.34z"/>
<path class="st1" d="M1003.16,266.5c4.72,0,9.04-0.33,13.28,0.11c2.98,0.31,6.01,1.34,8.75,2.62c8,3.75,16.43,5.66,25.16,6.05
	c13.4,0.61,26.5,2.97,39.51,6c0.29,0.07,0.56,0.25,1.73,0.8c-1.8,0.33-2.81,0.56-3.83,0.69c-19.19,2.33-38.46,2.03-57.75,1.89
	c-14.71-0.11-29.43,0.36-44.14,0.93c-5.03,0.19-9.72-0.24-14.11-2.68c-6.98-3.88-14.28-4.3-21.84-2.26
	c-4.84,1.31-9.44,1.88-13.93-1.49c-1.26-0.94-3.67-0.73-5.47-0.49c-3.03,0.4-6.02,1.21-9,1.91c-7.54,1.77-14.99,2.4-22.89,1.84
	c-12.42-0.88-24.97-0.01-37.46,0.1c-2.96,0.03-5.93-0.19-8.88,0.02c-2.81,0.2-4.43-1.08-5.31-3.5c-1.49-4.11-4.95-5.14-8.62-5.11
	c-8.33,0.06-16.65,0.52-24.97,0.79c-15.24,0.49-30.48,0.99-45.72,1.41c-1.11,0.03-2.24-0.59-3.36-0.91c0.64-1.14,1.02-2.94,1.95-3.3
	c4.99-1.91,10.02-4.01,15.24-4.98c5.79-1.08,11.79-1.03,17.7-1.47c0.71-0.05,1.41-0.14,2.61-0.27c-3.44-6.21-4.92-12.41-2.01-18.95
	c2.05-4.62,5.39-8.11,9.78-10.5c4.58-2.49,9.42-3.67,14.69-2.57c5.34,1.12,8.84,4.61,11.65,8.87c0.26-4.68,0.07-9.3,0.83-13.76
	c3.36-19.79,25.94-32.42,43.64-24.58c6.9,3.06,11.6,8.4,14.91,15.02c0.95,1.9,1.99,2.71,4.16,2.28c6.36-1.27,11.6,1.02,16.39,6.4
	c0.75-6.02,3.8-9.63,7.76-12.64c3.24-2.46,6.5-4.01,10.85-2.68c4.19,1.27,8.36,1.09,12.57-1.06c13.82-7.04,27.4-6.18,40.27,2.49
	c10.2,6.88,14.71,17.45,11.4,27.58c-1.4,4.3-4.22,8.14-6.45,12.3c3.49-0.34,7.48-1,10.52,2.21
	C1005.88,258.93,1006.08,262.52,1003.16,266.5z"/>
<path class="st1" d="M1413.08,233.29c4.62-1.31,8.68-3.02,12.89-3.56c10.04-1.29,16.45,5.44,15.28,15.49
	c-0.05,0.41-0.05,0.83-0.04,0.58c2.71,0.68,5.77,0.62,7.5,2.11c1.61,1.39,1.79,4.43,2.63,6.83c1.27,0,3.73-0.65,5.46,0.19
	c1.62,0.79,2.46,3.16,3.37,5.03c11.96,4.83,24.68,6.05,37.73,5.49c10.93-0.46,21.82,0.3,32.34,3.7c2.19,0.71,4.23,1.89,6.33,2.86
	c-0.08,0.35-0.15,0.7-0.23,1.06c-0.98,0.11-1.95,0.34-2.92,0.31c-37.2-1.03-74.3,1.89-111.44,2.91c-15.22,0.42-30.48-0.3-45.72-0.56
	c-6.38-0.11-12.49,0.54-18.69,2.65c-6.8,2.32-13.98,2.25-20.36-2.27c-2.24-1.59-4.64-2.95-6.9-4.52c-3.72-2.58-7.28-2.23-11.34-0.44
	c-5.18,2.27-10.59,4.2-16.09,5.49c-2.8,0.65-6.19,0.13-8.99-0.83c-9.65-3.29-19.44-2.46-29.26-1.62c-2.95,0.25-5.88,0.76-8.82,1.14
	c-0.31,0.04-0.63,0.08-0.95,0.1c-3.81,0.22-7.14-1.76-7.5-4.45c-0.35-2.62,1.96-5.48,5.66-6.26c2.44-0.52,5.09-0.67,7.56-0.36
	c6.93,0.87,12.95-1.08,18.49-5.1c5.38-3.9,11.37-5.68,17.98-4.48c2.75,0.5,5.4,1.62,7.92,2.4c0.23-3.91,0.19-7.89,0.75-11.78
	c0.67-4.7,2.82-8.86,6.05-12.38c5.16-5.61,11.65-6.7,18.42-3.18c0.64,0.33,1.29,0.64,2.22,1.1c-1.63-11.92,6.03-17.01,14.94-20.92
	c6.42-2.82,13.2-3.74,20.2-2.25c8.79,1.88,14.38,7.21,17.14,15.66c0.42,1.3,0.76,2.62,1.32,4.56c3.93-5.93,9.03-8.81,15.72-7.31
	C1408.44,222.21,1412.22,226.72,1413.08,233.29z"/>
<path class="st1" d="M1103.49,346.59c6.07-2.8,12.78-3.49,19.19-5.01c-0.16-4.12,0.8-5.39,4.71-6.05c1.44-0.24,2.95-0.26,4.41-0.13
	c1.43,0.12,2.84,0.56,4.27,0.87c0.46-5.8,2.39-8.15,8.18-9.13c2.85-0.48,5.98-0.65,8.74,0.03c2.1,0.52,4.2,2.31,5.57,4.1
	c1.4,1.84,2.59,2.58,4.74,1.8c1.69-0.62,3.37-1.29,5.12-1.69c4.11-0.92,8.09-1.3,11.63,2.01c0.89,0.83,3.02,1.09,4.26,0.67
	c9.31-3.1,17.9-2.74,25.38,4.44c1.64,1.57,3.38,1.73,5.76,1.27c3.2-0.62,6.65-0.36,9.91,0.11c1.15,0.17,2.81,2.05,2.85,3.2
	c0.04,1.16-1.42,3.03-2.6,3.43c-2.34,0.78-4.93,0.9-7.43,1.03c-4.41,0.23-8.84,0.27-13.25,0.38c-1.69,0.04-3.51,0.46-5.05-0.02
	c-4.13-1.28-8.05-0.13-12.12,0.18c-8.19,0.62-16.45,0.33-24.68,0.46c-1.66,0.03-3.38,0-4.97,0.4c-6.84,1.76-13.48,2.64-19.77-1.91
	c-0.99-0.71-2.82-0.44-4.24-0.33c-8.02,0.62-16.02,1.4-24.04,1.94c-2.11,0.14-4.26-0.38-6.4-0.6
	C1103.61,347.56,1103.55,347.08,1103.49,346.59z"/>
<path class="st1" d="M965.89,363.97c4.08-5.93,8.09-6.92,14.23-3.53c6.6-4.4,7.64-4.61,13-2.9c2.35-2.38,4.18-5.03,6.7-6.52
	c1.64-0.97,4.37-0.71,6.44-0.23c4.33,0.99,5.87,3.97,5.87,10.3c3.49,0.24,6.43,1.2,6.45,5.61c0,0.5,1.22,0.93,1.75,1.51
	c1,1.09,1.9,2.26,2.85,3.39c-1.31,0.94-2.53,2.52-3.93,2.7c-2.9,0.36-5.93,0.29-8.82-0.18c-4.26-0.69-8.29-0.37-12.53,0.44
	c-4.05,0.77-8.4,0.64-12.53,0.17c-3.94-0.45-7.62-0.5-11.56,0.43c-3.14,0.74-6.74,0.52-9.93-0.18c-3.97-0.87-6.23-4.4-5.67-7.36
	C958.74,364.83,961.31,363.61,965.89,363.97z"/>
<path class="st1" d="M2705.4,266.5c4.72,0,9.04-0.33,13.28,0.11c2.98,0.31,6.01,1.34,8.75,2.62c8,3.75,16.43,5.66,25.16,6.05
	c13.4,0.61,26.5,2.97,39.51,6c0.29,0.07,0.56,0.25,1.73,0.8c-1.8,0.33-2.81,0.56-3.83,0.69c-19.19,2.33-38.46,2.03-57.75,1.89
	c-14.71-0.11-29.44,0.36-44.14,0.93c-5.03,0.19-9.72-0.24-14.11-2.68c-6.98-3.88-14.28-4.3-21.84-2.26
	c-4.84,1.31-9.44,1.88-13.93-1.49c-1.26-0.94-3.67-0.73-5.47-0.49c-3.03,0.4-6.02,1.21-9,1.91c-7.54,1.77-14.99,2.4-22.89,1.84
	c-12.42-0.88-24.97-0.01-37.46,0.1c-2.96,0.03-5.93-0.19-8.88,0.02c-2.81,0.2-4.43-1.08-5.31-3.5c-1.49-4.11-4.95-5.14-8.62-5.11
	c-8.33,0.06-16.65,0.52-24.97,0.79c-15.24,0.49-30.48,0.99-45.72,1.41c-1.11,0.03-2.24-0.59-3.36-0.91c0.64-1.14,1.02-2.94,1.95-3.3
	c4.99-1.91,10.02-4.01,15.24-4.98c5.79-1.08,11.79-1.03,17.7-1.47c0.71-0.05,1.41-0.14,2.61-0.27c-3.44-6.21-4.92-12.41-2.01-18.95
	c2.05-4.62,5.39-8.11,9.78-10.5c4.58-2.49,9.42-3.67,14.69-2.57c5.34,1.12,8.84,4.61,11.65,8.87c0.26-4.68,0.07-9.3,0.83-13.76
	c3.36-19.79,25.94-32.42,43.64-24.58c6.9,3.06,11.6,8.4,14.91,15.02c0.95,1.9,1.99,2.71,4.16,2.28c6.36-1.27,11.6,1.02,16.39,6.4
	c0.75-6.02,3.8-9.63,7.76-12.64c3.24-2.46,6.5-4.01,10.85-2.68c4.19,1.27,8.36,1.09,12.57-1.06c13.82-7.04,27.4-6.18,40.27,2.49
	c10.2,6.88,14.71,17.45,11.4,27.58c-1.4,4.3-4.22,8.14-6.45,12.3c3.49-0.34,7.48-1,10.52,2.21
	C2708.11,258.93,2708.31,262.52,2705.4,266.5z"/>
<path class="st1" d="M2805.73,346.59c6.07-2.8,12.78-3.49,19.19-5.01c-0.16-4.12,0.8-5.39,4.71-6.05c1.44-0.24,2.96-0.26,4.41-0.13
	c1.43,0.12,2.84,0.56,4.27,0.87c0.46-5.8,2.39-8.15,8.18-9.13c2.85-0.48,5.98-0.65,8.74,0.03c2.1,0.52,4.2,2.31,5.57,4.1
	c1.4,1.84,2.59,2.58,4.74,1.8c1.69-0.62,3.37-1.29,5.12-1.69c4.11-0.92,8.09-1.3,11.63,2.01c0.89,0.83,3.02,1.09,4.26,0.67
	c9.31-3.1,17.9-2.74,25.38,4.44c1.64,1.57,3.38,1.73,5.76,1.27c3.2-0.62,6.65-0.36,9.91,0.11c1.15,0.17,2.81,2.05,2.85,3.2
	c0.04,1.16-1.42,3.03-2.6,3.43c-2.33,0.78-4.93,0.9-7.43,1.03c-4.41,0.23-8.84,0.27-13.25,0.38c-1.69,0.04-3.51,0.46-5.05-0.02
	c-4.14-1.28-8.05-0.13-12.12,0.18c-8.19,0.62-16.45,0.33-24.68,0.46c-1.66,0.03-3.38,0-4.97,0.4c-6.84,1.76-13.48,2.64-19.77-1.91
	c-0.99-0.71-2.82-0.44-4.24-0.33c-8.02,0.62-16.02,1.4-24.04,1.94c-2.11,0.14-4.26-0.38-6.4-0.6
	C2805.84,347.56,2805.79,347.08,2805.73,346.59z"/>
<path class="st1" d="M2668.12,363.97c4.08-5.93,8.09-6.92,14.23-3.53c6.6-4.4,7.64-4.61,13-2.9c2.35-2.38,4.18-5.03,6.7-6.52
	c1.64-0.97,4.37-0.71,6.44-0.23c4.33,0.99,5.87,3.97,5.87,10.3c3.49,0.24,6.43,1.2,6.45,5.61c0,0.5,1.22,0.93,1.75,1.51
	c1,1.09,1.9,2.26,2.85,3.39c-1.3,0.94-2.53,2.52-3.93,2.7c-2.9,0.36-5.93,0.29-8.82-0.18c-4.26-0.69-8.29-0.37-12.53,0.44
	c-4.05,0.77-8.4,0.64-12.53,0.17c-3.94-0.45-7.62-0.5-11.56,0.43c-3.14,0.74-6.74,0.52-9.93-0.18c-3.97-0.87-6.23-4.4-5.67-7.36
	C2660.98,364.83,2663.55,363.61,2668.12,363.97z"/>
<path class="st1" d="M3353,316.15c6.18,0,11.71-5.03,18.14-2.06c1.68-6.01,6.68-5.96,12.92-4.39c1.74,0.44,3.75,0.57,5.47,0.15
	c3.19-0.78,4.31-3.12,3.46-6.33c-0.35-1.33-0.9-2.61-1.27-3.93c-1.38-4.91,0.49-8.97,5.4-10.14c3.45-0.83,7.18-0.51,10.63-0.69
	c-1.48-1.9-2.93-5-1.16-8.07c1.55-2.69,3.95-4.89,5.97-7.31c0.46-0.05,0.92-0.09,1.37-0.14c-0.58-0.24-1.28-0.35-1.73-0.74
	c-3.7-3.29-3.22-6.54,1.64-7.81c3.73-0.97,7.76-0.75,11.82-1.06c-0.15-0.56-0.45-1.74-0.78-2.91c-1.99-7.07,0.22-12.71,5.89-17.12
	c4.55-3.54,9.88-5.27,15.48-6.18c9.44-1.54,18.82-1.32,27.88,2.02c12.99,4.8,16.57,11.29,13.81,24.89c2.79-0.75,5.45-1.91,8.15-2.06
	c3.08-0.17,6.29,0.23,9.28,1c2.85,0.74,4.57,2.75,3.17,5.86c2.36,0.63,4.79,0.92,6.87,1.92c3.08,1.49,1.92,3.64-0.12,5.55
	c22.39,2.84,25.01,4.67,27.88,18.66c4.72-1.09,9.41-2.82,14.18-3.12c6.92-0.44,9.69,1.89,10.65,6.96c4.5-1.15,8.96-2.79,13.54-3.36
	c7.62-0.95,14.98,0.2,21.51,4.79c0.7,0.49,2.03,0.24,3.04,0.13c3.21-0.35,6.42-1.21,9.6-1.1c4.38,0.15,7.28,2.63,8.01,7.17
	c0.7,4.31,3.27,7.42,6.8,9.52c3.14,1.87,6.56,3.76,10.08,4.43c8.81,1.67,17.75,2.66,26.64,3.91c1,0.14,2.01,0.21,3.02,0.31
	c0.06,0.29,0.12,0.57,0.18,0.86c-0.94,0.26-1.92,0.44-2.81,0.83c-0.47,0.2-1.13,0.79-1.1,1.14c0.04,0.44,0.66,1.07,1.13,1.17
	c3.19,0.68,5.34-0.57,6.36-4.08c12.3,1.06,24.55,1.86,36.74,3.27c7.86,0.91,15.65,2.59,23.41,4.21c2.33,0.49,4.46,1.96,6.68,2.98
	c-0.08,0.35-0.17,0.7-0.25,1.05c-0.99,0.12-1.98,0.28-2.97,0.35c-37.92,2.87-75.82,5.95-113.76,8.52
	c-34.34,2.33-68.68,5.09-103.15,4.18c-3.93-0.1-7.83-0.91-11.75-1.4c-0.1-0.5-0.21-0.99-0.31-1.49c2.13-1.44,4.26-2.88,7.31-4.94
	c-2.49-0.7-4.16-1.53-5.87-1.61c-11.95-0.5-23.92-1.34-35.86-1.13c-29.33,0.52-58.66,1.3-87.97,2.42
	c-52.7,2.03-105.4,4.39-158.09,6.61c-5.25,0.22-10.51,0.82-15.74,0.58c-5.87-0.26-11.62,0.87-17.46,0.82
	c-6.03-0.05-12.07,0.28-18.1,0.46c-6.03,0.18-12.07,0.51-18.1,0.54c-16.84,0.08-33.68,0.36-50.51-0.14
	c-6.01-0.18-11.98-2.3-17.94-3.66c-1.13-0.26-2.11-1.11-4.02-2.17c1.96-0.79,3.01-1.48,4.13-1.62c7.98-1.01,15.99-1.84,23.96-2.89
	c2.9-0.38,5.75-1.23,8.62-1.86c0.01-0.59,0.03-1.19,0.04-1.78c-2.53-0.64-5.05-1.77-7.6-1.84c-11.42-0.34-22.86-0.67-34.28-0.47
	c-13.87,0.24-27.73,1.03-41.59,1.57c-19.99,0.78-39.98,1.55-59.96,2.3c-1.1,0.04-2.21-0.09-3.31-0.15
	c-0.14-0.36-0.27-0.71-0.41-1.07c1.68-1.06,3.23-2.56,5.06-3.08c5.08-1.45,10.24-2.69,15.43-3.64c6.22-1.14,12.07-3.06,17.42-6.49
	c4.47-2.87,9.32-3.96,14.52-2.2c2.02,0.68,2.45-0.59,2.65-2.07c1.82-13.52,14.02-25.02,29.05-26.35c7.26-0.64,13.84,1.2,19.75,5.46
	c0.76,0.55,1.5,1.12,2.75,2.06c0.89-10.13,4.64-18.23,14.35-21.9c9.5-3.59,18.08-1.15,26.58,5.84c-2.89-7.02-2.99-13.12,0.07-19.05
	c3.07-5.96,8.11-9.25,15.6-10.33c-4.64-2.28-7.41-5-8.27-9.31c-0.52-2.64-0.49-5.06,1.74-6.99c0.4-0.34,0.66-0.83,1.02-1.21
	c1.43-1.55,2.87-4.36,4.32-4.37c2.83-0.03,5.69,1.48,8.51,2.43c0.56,0.19,1.01,0.7,1.84,1.3c0.88-1.88,1.65-3.56,2.46-5.22
	c3.22-6.67,8-11.82,13.54-16.85c11.46-10.41,24.77-13.72,39.53-12.97c23.2,1.17,43.49,18.18,47.93,40.44
	c1.92,9.61,1.18,19.06-6.13,26.78c-0.19,0.2-0.2,0.57-0.35,1.05c6.81,2.76,10.47,7.9,11.1,15.12c2.17,0.42,4.33,0.55,6.25,1.28
	c3.85,1.46,6.43,4.07,7.42,8.37c0.68,2.98,2.27,5.75,3.52,8.77c9.94-2.93,18.6,0.11,25.36,7.13c2.88-1.79,5.35-4.23,8.21-4.85
	c2.84-0.62,6.07,0.59,9.43,1.04c3.8-5.93,7.61-6.88,14.76-3.45c5.22,2.5,10.63,4.62,15.77,7.26c2.28,1.17,4.12,3.2,6.17,4.84
	C3353.16,315.56,3353.08,315.85,3353,316.15z"/>
<path class="st1" d="M8066.8,316.15c6.18,0,11.71-5.03,18.14-2.06c1.68-6.01,6.68-5.96,12.92-4.39c1.74,0.44,3.75,0.57,5.47,0.15
	c3.19-0.78,4.31-3.12,3.46-6.33c-0.35-1.33-0.9-2.61-1.27-3.93c-1.38-4.91,0.49-8.97,5.4-10.14c3.45-0.83,7.18-0.51,10.63-0.69
	c-1.48-1.9-2.93-5-1.16-8.07c1.55-2.69,3.95-4.89,5.97-7.31c0.46-0.05,0.92-0.09,1.37-0.14c-0.58-0.24-1.28-0.35-1.73-0.74
	c-3.7-3.29-3.22-6.54,1.64-7.81c3.73-0.97,7.76-0.75,11.82-1.06c-0.15-0.56-0.45-1.74-0.78-2.91c-1.99-7.07,0.22-12.71,5.89-17.12
	c4.55-3.54,9.88-5.27,15.48-6.18c9.44-1.54,18.82-1.32,27.88,2.02c12.99,4.8,16.57,11.29,13.81,24.89c2.79-0.75,5.45-1.91,8.15-2.06
	c3.08-0.17,6.29,0.23,9.28,1c2.85,0.74,4.57,2.75,3.17,5.86c2.36,0.63,4.79,0.92,6.87,1.92c3.08,1.49,1.92,3.64-0.12,5.55
	c22.39,2.84,25,4.67,27.88,18.66c4.72-1.09,9.41-2.82,14.18-3.12c6.92-0.44,9.69,1.89,10.65,6.96c4.5-1.15,8.96-2.79,13.54-3.36
	c7.62-0.95,14.98,0.2,21.51,4.79c0.7,0.49,2.03,0.24,3.04,0.13c3.21-0.35,6.42-1.21,9.6-1.1c4.38,0.15,7.28,2.63,8.01,7.17
	c0.7,4.31,3.27,7.42,6.8,9.52c3.14,1.87,6.56,3.76,10.08,4.43c8.81,1.67,17.75,2.66,26.64,3.91c1,0.14,2.01,0.21,3.02,0.31
	c0.06,0.29,0.12,0.57,0.18,0.86c-0.94,0.26-1.92,0.44-2.81,0.83c-0.47,0.2-1.13,0.79-1.1,1.14c0.04,0.44,0.66,1.07,1.13,1.17
	c3.19,0.68,5.34-0.57,6.36-4.08c12.29,1.06,24.55,1.86,36.74,3.27c7.86,0.91,15.65,2.59,23.41,4.21c2.33,0.49,4.46,1.96,6.68,2.98
	c-0.08,0.35-0.17,0.7-0.25,1.05c-0.99,0.12-1.98,0.28-2.97,0.35c-37.92,2.87-75.82,5.95-113.76,8.52
	c-34.34,2.33-68.68,5.09-103.15,4.18c-3.93-0.1-7.83-0.91-11.75-1.4c-0.1-0.5-0.21-0.99-0.31-1.49c2.13-1.44,4.26-2.88,7.31-4.94
	c-2.49-0.7-4.16-1.53-5.87-1.61c-11.95-0.5-23.92-1.34-35.86-1.13c-29.33,0.52-58.66,1.3-87.97,2.42
	c-52.7,2.03-105.4,4.39-158.09,6.61c-5.25,0.22-10.51,0.82-15.74,0.58c-5.87-0.26-11.62,0.87-17.46,0.82
	c-6.03-0.05-12.07,0.28-18.1,0.46c-6.03,0.18-12.07,0.51-18.1,0.54c-16.84,0.08-33.68,0.36-50.51-0.14
	c-6.01-0.18-11.98-2.3-17.94-3.66c-1.13-0.26-2.11-1.11-4.02-2.17c1.96-0.79,3.01-1.48,4.13-1.62c7.98-1.01,15.99-1.84,23.96-2.89
	c2.9-0.38,5.75-1.23,8.62-1.86c0.01-0.59,0.03-1.19,0.04-1.78c-2.53-0.64-5.05-1.77-7.6-1.84c-11.42-0.34-22.86-0.67-34.28-0.47
	c-13.87,0.24-27.73,1.03-41.59,1.57c-19.99,0.78-39.98,1.55-59.96,2.3c-1.1,0.04-2.21-0.09-3.31-0.15
	c-0.14-0.36-0.27-0.71-0.41-1.07c1.68-1.06,3.23-2.56,5.06-3.08c5.08-1.45,10.24-2.69,15.43-3.64c6.22-1.14,12.07-3.06,17.42-6.49
	c4.47-2.87,9.32-3.96,14.52-2.2c2.02,0.68,2.45-0.59,2.65-2.07c1.82-13.52,14.02-25.02,29.05-26.35c7.26-0.64,13.84,1.2,19.75,5.46
	c0.76,0.55,1.5,1.12,2.75,2.06c0.89-10.13,4.64-18.23,14.35-21.9c9.5-3.59,18.08-1.15,26.58,5.84c-2.89-7.02-2.99-13.12,0.07-19.05
	c3.07-5.96,8.11-9.25,15.6-10.33c-4.64-2.28-7.41-5-8.27-9.31c-0.52-2.64-0.49-5.06,1.75-6.99c0.39-0.34,0.66-0.83,1.02-1.21
	c1.43-1.55,2.87-4.36,4.32-4.37c2.83-0.03,5.69,1.48,8.51,2.43c0.56,0.19,1.01,0.7,1.84,1.3c0.88-1.88,1.65-3.56,2.46-5.22
	c3.22-6.67,8-11.82,13.54-16.85c11.46-10.41,24.77-13.72,39.53-12.97c23.2,1.17,43.49,18.18,47.93,40.44
	c1.92,9.61,1.18,19.06-6.13,26.78c-0.19,0.2-0.2,0.57-0.35,1.05c6.81,2.76,10.47,7.9,11.1,15.12c2.17,0.42,4.33,0.55,6.25,1.28
	c3.85,1.46,6.44,4.07,7.42,8.37c0.69,2.98,2.27,5.75,3.52,8.77c9.94-2.93,18.6,0.11,25.36,7.13c2.88-1.79,5.35-4.23,8.21-4.85
	c2.84-0.62,6.07,0.59,9.43,1.04c3.8-5.93,7.61-6.88,14.76-3.45c5.22,2.5,10.63,4.62,15.77,7.26c2.28,1.17,4.12,3.2,6.17,4.84
	C8066.96,315.56,8066.88,315.85,8066.8,316.15z"/>
<path class="st1" d="M5135.06,375.34c9.37,0,17.76-7.62,27.49-3.12c2.54-9.11,10.13-9.03,19.59-6.65c2.64,0.66,5.69,0.86,8.29,0.23
	c4.84-1.18,6.53-4.73,5.24-9.6c-0.53-2.01-1.36-3.95-1.92-5.96c-2.09-7.44,0.74-13.59,8.19-15.37c5.23-1.25,10.88-0.77,16.11-1.04
	c-2.24-2.88-4.44-7.59-1.76-12.23c2.35-4.08,5.98-7.41,9.05-11.08c0.69-0.07,1.39-0.14,2.08-0.21c-0.88-0.36-1.94-0.52-2.62-1.12
	c-5.61-4.99-4.88-9.92,2.49-11.83c5.65-1.47,11.76-1.13,17.91-1.61c-0.23-0.85-0.69-2.64-1.19-4.41
	c-3.01-10.71,0.33-19.26,8.92-25.94c6.9-5.37,14.98-7.99,23.46-9.37c14.31-2.33,28.53-2,42.27,3.07
	c19.7,7.28,25.11,17.11,20.94,37.72c4.24-1.13,8.25-2.9,12.36-3.13c4.66-0.26,9.53,0.35,14.07,1.52c4.31,1.12,6.93,4.17,4.8,8.88
	c3.58,0.96,7.26,1.39,10.42,2.91c4.67,2.25,2.9,5.52-0.18,8.41c33.93,4.3,37.9,7.07,42.26,28.28c7.16-1.65,14.26-4.27,21.49-4.73
	c10.49-0.67,14.68,2.86,16.14,10.54c6.83-1.75,13.58-4.23,20.53-5.1c11.55-1.43,22.71,0.3,32.61,7.27c1.06,0.75,3.08,0.36,4.61,0.19
	c4.86-0.53,9.73-1.83,14.55-1.67c6.64,0.22,11.03,3.99,12.15,10.86c1.06,6.53,4.96,11.25,10.3,14.43c4.76,2.84,9.94,5.7,15.29,6.71
	c13.35,2.53,26.9,4.03,40.37,5.93c1.52,0.21,3.05,0.32,4.57,0.47c0.09,0.43,0.18,0.87,0.27,1.3c-1.43,0.4-2.91,0.67-4.26,1.25
	c-0.71,0.31-1.71,1.19-1.66,1.73c0.06,0.66,1,1.62,1.71,1.77c4.83,1.04,8.1-0.86,9.64-6.18c18.64,1.61,37.21,2.81,55.68,4.95
	c11.92,1.38,23.72,3.92,35.48,6.38c3.54,0.74,6.76,2.97,10.13,4.52c-0.13,0.53-0.26,1.06-0.38,1.59c-1.5,0.18-3,0.42-4.5,0.53
	c-57.47,4.35-114.93,9.01-172.43,12.92c-52.05,3.53-104.1,7.72-156.35,6.33c-5.95-0.16-11.87-1.38-17.81-2.12
	c-0.16-0.75-0.32-1.51-0.47-2.26c3.23-2.18,6.46-4.37,11.08-7.49c-3.77-1.07-6.31-2.33-8.89-2.43c-18.12-0.76-36.25-2.04-54.36-1.72
	c-44.46,0.79-88.91,1.97-133.34,3.68c-79.89,3.07-159.76,6.65-239.63,10.02c-7.96,0.34-15.94,1.24-23.86,0.88
	c-8.9-0.4-17.61,1.33-26.46,1.25c-9.14-0.08-18.29,0.43-27.44,0.7c-9.15,0.27-18.29,0.77-27.44,0.81
	c-25.52,0.12-51.06,0.54-76.55-0.22c-9.12-0.27-18.16-3.49-27.19-5.55c-1.71-0.39-3.2-1.69-6.1-3.29c2.96-1.2,4.56-2.25,6.26-2.46
	c12.1-1.54,24.23-2.79,36.32-4.39c4.4-0.58,8.71-1.86,13.06-2.82c0.02-0.9,0.04-1.8,0.06-2.7c-3.84-0.97-7.65-2.68-11.52-2.79
	c-17.31-0.52-34.65-1.02-51.97-0.71c-21.02,0.37-42.03,1.57-63.04,2.38c-30.3,1.18-60.59,2.34-90.89,3.49
	c-1.67,0.06-3.35-0.14-5.02-0.22c-0.21-0.54-0.42-1.08-0.62-1.62c2.54-1.6,4.89-3.88,7.66-4.67c7.7-2.2,15.52-4.07,23.39-5.52
	c9.43-1.73,18.29-4.63,26.41-9.84c6.78-4.35,14.12-6,22.01-3.34c3.07,1.03,3.71-0.9,4.01-3.13c2.76-20.49,21.26-37.93,44.04-39.94
	c11-0.97,20.99,1.82,29.94,8.28c1.15,0.83,2.27,1.69,4.17,3.12c1.35-15.36,7.03-27.63,21.75-33.2c14.4-5.44,27.4-1.74,40.29,8.85
	c-4.38-10.64-4.53-19.88,0.1-28.87c4.66-9.04,12.3-14.02,23.64-15.65c-7.04-3.46-11.23-7.59-12.53-14.11
	c-0.8-4-0.74-7.67,2.64-10.59c0.6-0.52,1-1.25,1.55-1.84c2.17-2.35,4.35-6.6,6.56-6.63c4.29-0.04,8.62,2.25,12.9,3.68
	c0.85,0.28,1.53,1.05,2.79,1.96c1.33-2.84,2.5-5.39,3.72-7.92c4.87-10.11,12.12-17.91,20.52-25.54
	c17.38-15.78,37.55-20.79,59.92-19.66c35.17,1.77,65.92,27.55,72.65,61.29c2.91,14.57,1.79,28.89-9.29,40.6
	c-0.29,0.3-0.3,0.87-0.53,1.6c10.33,4.18,15.88,11.98,16.83,22.91c3.29,0.64,6.56,0.83,9.48,1.94c5.83,2.22,9.75,6.16,11.25,12.69
	c1.04,4.51,3.44,8.71,5.33,13.3c15.07-4.45,28.2,0.17,38.44,10.81c4.37-2.72,8.11-6.41,12.44-7.36c4.3-0.94,9.2,0.9,14.29,1.58
	c5.76-8.99,11.53-10.43,22.38-5.23c7.91,3.8,16.11,7,23.91,11c3.46,1.77,6.25,4.85,9.35,7.34
	C5135.3,374.45,5135.18,374.9,5135.06,375.34z"/>
<path class="st1" d="M6744.29,375.34c9.37,0,17.76-7.62,27.49-3.12c2.54-9.11,10.13-9.03,19.59-6.65c2.64,0.66,5.69,0.86,8.29,0.23
	c4.84-1.18,6.53-4.73,5.24-9.6c-0.53-2.01-1.36-3.95-1.92-5.96c-2.09-7.44,0.74-13.59,8.19-15.37c5.23-1.25,10.88-0.77,16.11-1.04
	c-2.24-2.88-4.44-7.59-1.76-12.23c2.35-4.08,5.98-7.41,9.05-11.08c0.69-0.07,1.39-0.14,2.08-0.21c-0.88-0.36-1.94-0.52-2.62-1.12
	c-5.61-4.99-4.88-9.92,2.49-11.83c5.65-1.47,11.76-1.13,17.91-1.61c-0.23-0.85-0.69-2.64-1.19-4.41
	c-3.01-10.71,0.33-19.26,8.92-25.94c6.9-5.37,14.98-7.99,23.46-9.37c14.31-2.33,28.53-2,42.27,3.07
	c19.7,7.28,25.11,17.11,20.94,37.72c4.24-1.13,8.25-2.9,12.36-3.13c4.66-0.26,9.53,0.35,14.07,1.52c4.31,1.12,6.93,4.17,4.8,8.88
	c3.58,0.96,7.26,1.39,10.42,2.91c4.67,2.25,2.9,5.52-0.18,8.41c33.93,4.3,37.9,7.07,42.26,28.28c7.16-1.65,14.26-4.27,21.49-4.73
	c10.49-0.67,14.68,2.86,16.14,10.54c6.83-1.75,13.58-4.23,20.53-5.1c11.55-1.43,22.71,0.3,32.61,7.27c1.06,0.75,3.08,0.36,4.61,0.19
	c4.86-0.53,9.73-1.83,14.55-1.67c6.64,0.22,11.03,3.99,12.15,10.86c1.06,6.53,4.96,11.25,10.3,14.43c4.76,2.84,9.94,5.7,15.29,6.71
	c13.35,2.53,26.9,4.03,40.37,5.93c1.52,0.21,3.05,0.32,4.57,0.47c0.09,0.43,0.18,0.87,0.27,1.3c-1.43,0.4-2.91,0.67-4.26,1.25
	c-0.71,0.31-1.71,1.19-1.66,1.73c0.06,0.66,1,1.62,1.71,1.77c4.83,1.04,8.1-0.86,9.64-6.18c18.64,1.61,37.21,2.81,55.68,4.95
	c11.92,1.38,23.72,3.92,35.48,6.38c3.54,0.74,6.76,2.97,10.13,4.52c-0.13,0.53-0.26,1.06-0.38,1.59c-1.5,0.18-3,0.42-4.5,0.53
	c-57.47,4.35-114.93,9.01-172.43,12.92c-52.05,3.53-104.1,7.72-156.35,6.33c-5.95-0.16-11.87-1.38-17.81-2.12
	c-0.16-0.75-0.32-1.51-0.47-2.26c3.23-2.18,6.46-4.37,11.08-7.49c-3.77-1.07-6.31-2.33-8.89-2.43c-18.12-0.76-36.25-2.04-54.36-1.72
	c-44.46,0.79-88.91,1.97-133.34,3.68c-79.89,3.07-159.76,6.65-239.63,10.02c-7.96,0.34-15.94,1.24-23.86,0.88
	c-8.9-0.4-17.61,1.33-26.46,1.25c-9.14-0.08-18.29,0.43-27.44,0.7c-9.15,0.27-18.29,0.77-27.44,0.81
	c-25.52,0.12-51.06,0.54-76.55-0.22c-9.12-0.27-18.16-3.49-27.19-5.55c-1.71-0.39-3.2-1.69-6.1-3.29c2.96-1.2,4.56-2.25,6.26-2.46
	c12.1-1.54,24.23-2.79,36.32-4.39c4.4-0.58,8.71-1.86,13.06-2.82c0.02-0.9,0.04-1.8,0.06-2.7c-3.84-0.97-7.65-2.68-11.52-2.79
	c-17.31-0.52-34.65-1.02-51.97-0.71c-21.02,0.37-42.03,1.57-63.04,2.38c-30.3,1.18-60.59,2.34-90.89,3.49
	c-1.67,0.06-3.35-0.14-5.02-0.22c-0.21-0.54-0.42-1.08-0.62-1.62c2.54-1.6,4.89-3.88,7.66-4.67c7.7-2.2,15.52-4.07,23.39-5.52
	c9.43-1.73,18.29-4.63,26.41-9.84c6.78-4.35,14.12-6,22.01-3.34c3.07,1.03,3.71-0.9,4.01-3.13c2.76-20.49,21.26-37.93,44.04-39.94
	c11-0.97,20.99,1.82,29.94,8.28c1.15,0.83,2.27,1.69,4.17,3.12c1.35-15.36,7.03-27.63,21.75-33.2c14.4-5.44,27.4-1.74,40.29,8.85
	c-4.38-10.64-4.53-19.88,0.1-28.87c4.66-9.04,12.3-14.02,23.64-15.65c-7.04-3.46-11.23-7.59-12.53-14.11
	c-0.79-4-0.74-7.67,2.65-10.59c0.6-0.52,1-1.25,1.55-1.84c2.17-2.35,4.35-6.6,6.56-6.63c4.29-0.04,8.62,2.25,12.9,3.68
	c0.85,0.28,1.53,1.05,2.79,1.96c1.33-2.84,2.5-5.39,3.72-7.92c4.87-10.11,12.12-17.91,20.52-25.54
	c17.38-15.78,37.55-20.79,59.92-19.66c35.17,1.77,65.92,27.55,72.65,61.29c2.91,14.57,1.79,28.89-9.29,40.6
	c-0.29,0.3-0.3,0.87-0.53,1.6c10.33,4.18,15.88,11.98,16.83,22.91c3.29,0.64,6.56,0.83,9.48,1.94c5.83,2.22,9.75,6.16,11.25,12.69
	c1.04,4.51,3.44,8.71,5.33,13.3c15.07-4.45,28.2,0.17,38.44,10.81c4.37-2.72,8.11-6.41,12.44-7.36c4.3-0.94,9.2,0.9,14.29,1.58
	c5.76-8.99,11.53-10.43,22.38-5.23c7.91,3.8,16.11,7,23.91,11c3.46,1.77,6.25,4.85,9.35,7.34
	C6744.53,374.45,6744.41,374.9,6744.29,375.34z"/>
<path class="st1" d="M4174.6,266.5c4.72,0,9.04-0.33,13.28,0.11c2.98,0.31,6.01,1.34,8.75,2.62c8,3.75,16.43,5.66,25.16,6.05
	c13.4,0.61,26.5,2.97,39.51,6c0.29,0.07,0.56,0.25,1.73,0.8c-1.8,0.33-2.81,0.56-3.83,0.69c-19.19,2.33-38.46,2.03-57.75,1.89
	c-14.71-0.11-29.44,0.36-44.14,0.93c-5.03,0.19-9.72-0.24-14.11-2.68c-6.98-3.88-14.28-4.3-21.84-2.26
	c-4.84,1.31-9.44,1.88-13.93-1.49c-1.26-0.94-3.67-0.73-5.47-0.49c-3.03,0.4-6.02,1.21-9,1.91c-7.54,1.77-14.99,2.4-22.89,1.84
	c-12.42-0.88-24.97-0.01-37.46,0.1c-2.96,0.03-5.93-0.19-8.88,0.02c-2.81,0.2-4.44-1.08-5.31-3.5c-1.49-4.11-4.95-5.14-8.62-5.11
	c-8.33,0.06-16.65,0.52-24.97,0.79c-15.24,0.49-30.48,0.99-45.72,1.41c-1.11,0.03-2.24-0.59-3.36-0.91c0.64-1.14,1.02-2.94,1.95-3.3
	c4.99-1.91,10.02-4.01,15.24-4.98c5.79-1.08,11.79-1.03,17.7-1.47c0.71-0.05,1.41-0.14,2.61-0.27c-3.44-6.21-4.92-12.41-2.01-18.95
	c2.05-4.62,5.39-8.11,9.78-10.5c4.58-2.49,9.42-3.67,14.69-2.57c5.34,1.12,8.84,4.61,11.65,8.87c0.26-4.68,0.07-9.3,0.83-13.76
	c3.36-19.79,25.94-32.42,43.64-24.58c6.9,3.06,11.6,8.4,14.91,15.02c0.95,1.9,1.99,2.71,4.16,2.28c6.36-1.27,11.6,1.02,16.39,6.4
	c0.75-6.02,3.8-9.63,7.76-12.64c3.24-2.46,6.5-4.01,10.85-2.68c4.19,1.27,8.36,1.09,12.57-1.06c13.82-7.04,27.4-6.18,40.27,2.49
	c10.2,6.88,14.71,17.45,11.4,27.58c-1.4,4.3-4.22,8.14-6.45,12.3c3.49-0.34,7.48-1,10.52,2.21
	C4177.32,258.93,4177.52,262.52,4174.6,266.5z"/>
<path class="st1" d="M4584.52,233.29c4.62-1.31,8.68-3.02,12.89-3.56c10.04-1.29,16.45,5.44,15.28,15.49
	c-0.05,0.41-0.05,0.83-0.04,0.58c2.71,0.68,5.77,0.62,7.5,2.11c1.61,1.39,1.79,4.43,2.63,6.83c1.27,0,3.73-0.65,5.46,0.19
	c1.62,0.79,2.46,3.16,3.37,5.03c11.96,4.83,24.68,6.05,37.73,5.49c10.93-0.46,21.82,0.3,32.34,3.7c2.19,0.71,4.23,1.89,6.33,2.86
	c-0.08,0.35-0.15,0.7-0.23,1.06c-0.98,0.11-1.95,0.34-2.92,0.31c-37.2-1.03-74.3,1.89-111.44,2.91c-15.22,0.42-30.48-0.3-45.72-0.56
	c-6.38-0.11-12.49,0.54-18.69,2.65c-6.8,2.32-13.98,2.25-20.36-2.27c-2.24-1.59-4.64-2.95-6.9-4.52c-3.72-2.58-7.28-2.23-11.34-0.44
	c-5.18,2.27-10.59,4.2-16.09,5.49c-2.8,0.65-6.19,0.13-8.99-0.83c-9.65-3.29-19.44-2.46-29.26-1.62c-2.95,0.25-5.88,0.76-8.82,1.14
	c-0.31,0.04-0.63,0.08-0.95,0.1c-3.81,0.22-7.14-1.76-7.5-4.45c-0.35-2.62,1.96-5.48,5.66-6.26c2.44-0.52,5.09-0.67,7.56-0.36
	c6.93,0.87,12.95-1.08,18.49-5.1c5.38-3.9,11.37-5.68,17.98-4.48c2.75,0.5,5.4,1.62,7.92,2.4c0.23-3.91,0.19-7.89,0.75-11.78
	c0.67-4.7,2.82-8.86,6.05-12.38c5.16-5.61,11.65-6.7,18.42-3.18c0.64,0.33,1.29,0.64,2.22,1.1c-1.63-11.92,6.03-17.01,14.94-20.92
	c6.42-2.82,13.2-3.74,20.2-2.25c8.79,1.88,14.38,7.21,17.14,15.66c0.42,1.3,0.76,2.62,1.32,4.56c3.93-5.93,9.03-8.81,15.72-7.31
	C4579.88,222.21,4583.66,226.72,4584.52,233.29z"/>
<path class="st1" d="M4274.93,346.59c6.07-2.8,12.78-3.49,19.19-5.01c-0.16-4.12,0.8-5.39,4.71-6.05c1.44-0.24,2.96-0.26,4.41-0.13
	c1.43,0.12,2.84,0.56,4.27,0.87c0.46-5.8,2.39-8.15,8.18-9.13c2.85-0.48,5.98-0.65,8.74,0.03c2.1,0.52,4.2,2.31,5.57,4.1
	c1.4,1.84,2.59,2.58,4.74,1.8c1.69-0.62,3.37-1.29,5.12-1.69c4.11-0.92,8.09-1.3,11.63,2.01c0.89,0.83,3.02,1.09,4.26,0.67
	c9.31-3.1,17.9-2.74,25.38,4.44c1.64,1.57,3.38,1.73,5.77,1.27c3.2-0.62,6.65-0.36,9.91,0.11c1.15,0.17,2.81,2.05,2.85,3.2
	c0.04,1.16-1.42,3.03-2.6,3.43c-2.34,0.78-4.93,0.9-7.44,1.03c-4.41,0.23-8.84,0.27-13.25,0.38c-1.69,0.04-3.51,0.46-5.05-0.02
	c-4.14-1.28-8.05-0.13-12.12,0.18c-8.19,0.62-16.45,0.33-24.68,0.46c-1.66,0.03-3.38,0-4.97,0.4c-6.84,1.76-13.48,2.64-19.77-1.91
	c-0.99-0.71-2.82-0.44-4.24-0.33c-8.02,0.62-16.02,1.4-24.04,1.94c-2.11,0.14-4.26-0.38-6.4-0.6
	C4275.04,347.56,4274.99,347.08,4274.93,346.59z"/>
<path class="st1" d="M4137.32,363.97c4.08-5.93,8.09-6.92,14.23-3.53c6.6-4.4,7.64-4.61,13-2.9c2.35-2.38,4.18-5.03,6.7-6.52
	c1.64-0.97,4.37-0.71,6.44-0.23c4.33,0.99,5.87,3.97,5.87,10.3c3.49,0.24,6.43,1.2,6.45,5.61c0,0.5,1.22,0.93,1.75,1.51
	c1,1.09,1.9,2.26,2.85,3.39c-1.3,0.94-2.53,2.52-3.93,2.7c-2.9,0.36-5.93,0.29-8.82-0.18c-4.26-0.69-8.29-0.37-12.53,0.44
	c-4.05,0.77-8.4,0.64-12.53,0.17c-3.94-0.45-7.62-0.5-11.56,0.43c-3.14,0.74-6.73,0.52-9.93-0.18c-3.97-0.87-6.23-4.4-5.67-7.36
	C4130.18,364.83,4132.75,363.61,4137.32,363.97z"/>
<path class="st1" d="M5876.83,266.5c4.72,0,9.04-0.33,13.28,0.11c2.98,0.31,6.01,1.34,8.75,2.62c8,3.75,16.43,5.66,25.16,6.05
	c13.4,0.61,26.5,2.97,39.51,6c0.29,0.07,0.56,0.25,1.73,0.8c-1.8,0.33-2.81,0.56-3.83,0.69c-19.19,2.33-38.46,2.03-57.75,1.89
	c-14.71-0.11-29.44,0.36-44.14,0.93c-5.03,0.19-9.72-0.24-14.11-2.68c-6.98-3.88-14.28-4.3-21.84-2.26
	c-4.84,1.31-9.44,1.88-13.93-1.49c-1.26-0.94-3.67-0.73-5.47-0.49c-3.03,0.4-6.02,1.21-9,1.91c-7.54,1.77-14.99,2.4-22.89,1.84
	c-12.42-0.88-24.97-0.01-37.46,0.1c-2.96,0.03-5.93-0.19-8.88,0.02c-2.81,0.2-4.43-1.08-5.31-3.5c-1.49-4.11-4.95-5.14-8.62-5.11
	c-8.33,0.06-16.65,0.52-24.97,0.79c-15.24,0.49-30.48,0.99-45.72,1.41c-1.11,0.03-2.24-0.59-3.36-0.91c0.64-1.14,1.02-2.94,1.95-3.3
	c4.99-1.91,10.02-4.01,15.24-4.98c5.79-1.08,11.79-1.03,17.7-1.47c0.71-0.05,1.41-0.14,2.61-0.27c-3.44-6.21-4.92-12.41-2.01-18.95
	c2.05-4.62,5.39-8.11,9.78-10.5c4.58-2.49,9.42-3.67,14.69-2.57c5.34,1.12,8.84,4.61,11.65,8.87c0.26-4.68,0.07-9.3,0.83-13.76
	c3.36-19.79,25.94-32.42,43.64-24.58c6.9,3.06,11.6,8.4,14.91,15.02c0.95,1.9,1.98,2.71,4.16,2.28c6.36-1.27,11.6,1.02,16.39,6.4
	c0.75-6.02,3.8-9.63,7.76-12.64c3.24-2.46,6.5-4.01,10.85-2.68c4.19,1.27,8.36,1.09,12.57-1.06c13.82-7.04,27.4-6.18,40.27,2.49
	c10.2,6.88,14.71,17.45,11.4,27.58c-1.4,4.3-4.22,8.14-6.45,12.3c3.49-0.34,7.48-1,10.52,2.21
	C5879.55,258.93,5879.75,262.52,5876.83,266.5z"/>
<path class="st1" d="M6991.25,266.5c4.72,0,9.04-0.33,13.28,0.11c2.98,0.31,6.01,1.34,8.75,2.62c8,3.75,16.43,5.66,25.16,6.05
	c13.4,0.61,26.5,2.97,39.51,6c0.29,0.07,0.56,0.25,1.73,0.8c-1.8,0.33-2.81,0.56-3.83,0.69c-19.19,2.33-38.46,2.03-57.75,1.89
	c-14.71-0.11-29.43,0.36-44.14,0.93c-5.03,0.19-9.72-0.24-14.11-2.68c-6.98-3.88-14.28-4.3-21.84-2.26
	c-4.84,1.31-9.44,1.88-13.93-1.49c-1.26-0.94-3.67-0.73-5.47-0.49c-3.03,0.4-6.02,1.21-9,1.91c-7.54,1.77-14.99,2.4-22.89,1.84
	c-12.42-0.88-24.97-0.01-37.46,0.1c-2.96,0.03-5.93-0.19-8.88,0.02c-2.81,0.2-4.44-1.08-5.31-3.5c-1.49-4.11-4.95-5.14-8.62-5.11
	c-8.33,0.06-16.65,0.52-24.97,0.79c-15.24,0.49-30.48,0.99-45.72,1.41c-1.11,0.03-2.24-0.59-3.36-0.91c0.64-1.14,1.02-2.94,1.95-3.3
	c4.99-1.91,10.02-4.01,15.24-4.98c5.79-1.08,11.79-1.03,17.7-1.47c0.71-0.05,1.41-0.14,2.61-0.27c-3.44-6.21-4.92-12.41-2.01-18.95
	c2.05-4.62,5.39-8.11,9.78-10.5c4.58-2.49,9.42-3.67,14.69-2.57c5.34,1.12,8.84,4.61,11.65,8.87c0.25-4.68,0.07-9.3,0.83-13.76
	c3.36-19.79,25.94-32.42,43.64-24.58c6.9,3.06,11.6,8.4,14.91,15.02c0.95,1.9,1.98,2.71,4.16,2.28c6.36-1.27,11.6,1.02,16.39,6.4
	c0.75-6.02,3.8-9.63,7.76-12.64c3.24-2.46,6.5-4.01,10.85-2.68c4.19,1.27,8.35,1.09,12.57-1.06c13.82-7.04,27.4-6.18,40.27,2.49
	c10.2,6.88,14.71,17.45,11.4,27.58c-1.41,4.3-4.22,8.14-6.45,12.3c3.49-0.34,7.48-1,10.52,2.21
	C6993.97,258.93,6994.17,262.52,6991.25,266.5z"/>
<path class="st1" d="M7401.17,233.29c4.62-1.31,8.68-3.02,12.89-3.56c10.04-1.29,16.45,5.44,15.28,15.49
	c-0.05,0.41-0.05,0.83-0.04,0.58c2.71,0.68,5.77,0.62,7.5,2.11c1.61,1.39,1.79,4.43,2.63,6.83c1.27,0,3.73-0.65,5.46,0.19
	c1.62,0.79,2.46,3.16,3.37,5.03c11.96,4.83,24.68,6.05,37.73,5.49c10.93-0.46,21.82,0.3,32.34,3.7c2.19,0.71,4.23,1.89,6.33,2.86
	c-0.08,0.35-0.15,0.7-0.23,1.06c-0.98,0.11-1.95,0.34-2.92,0.31c-37.2-1.03-74.3,1.89-111.44,2.91c-15.22,0.42-30.48-0.3-45.72-0.56
	c-6.38-0.11-12.49,0.54-18.69,2.65c-6.8,2.32-13.98,2.25-20.36-2.27c-2.24-1.59-4.64-2.95-6.9-4.52c-3.72-2.58-7.28-2.23-11.34-0.44
	c-5.18,2.27-10.59,4.2-16.09,5.49c-2.8,0.65-6.19,0.13-8.99-0.83c-9.65-3.29-19.44-2.46-29.26-1.62c-2.95,0.25-5.88,0.76-8.82,1.14
	c-0.31,0.04-0.63,0.08-0.95,0.1c-3.81,0.22-7.14-1.76-7.5-4.45c-0.35-2.62,1.96-5.48,5.66-6.26c2.44-0.52,5.09-0.67,7.56-0.36
	c6.93,0.87,12.95-1.08,18.49-5.1c5.38-3.9,11.37-5.68,17.98-4.48c2.75,0.5,5.4,1.62,7.92,2.4c0.23-3.91,0.19-7.89,0.75-11.78
	c0.67-4.7,2.82-8.86,6.05-12.38c5.16-5.61,11.65-6.7,18.42-3.18c0.64,0.33,1.29,0.64,2.22,1.1c-1.63-11.92,6.03-17.01,14.94-20.92
	c6.42-2.82,13.2-3.74,20.2-2.25c8.79,1.88,14.38,7.21,17.14,15.66c0.42,1.3,0.76,2.62,1.32,4.56c3.93-5.93,9.03-8.81,15.72-7.31
	C7396.53,222.21,7400.31,226.72,7401.17,233.29z"/>
<path class="st1" d="M8693.48,266.5c4.72,0,9.04-0.33,13.28,0.11c2.98,0.31,6.01,1.34,8.75,2.62c8,3.75,16.43,5.66,25.16,6.05
	c13.4,0.61,26.5,2.97,39.51,6c0.29,0.07,0.56,0.25,1.73,0.8c-1.8,0.33-2.81,0.56-3.83,0.69c-19.19,2.33-38.46,2.03-57.75,1.89
	c-14.71-0.11-29.44,0.36-44.14,0.93c-5.03,0.19-9.72-0.24-14.11-2.68c-6.98-3.88-14.28-4.3-21.84-2.26
	c-4.84,1.31-9.44,1.88-13.92-1.49c-1.26-0.94-3.67-0.73-5.47-0.49c-3.03,0.4-6.01,1.21-9,1.91c-7.54,1.77-14.99,2.4-22.89,1.84
	c-12.42-0.88-24.97-0.01-37.46,0.1c-2.96,0.03-5.93-0.19-8.88,0.02c-2.81,0.2-4.44-1.08-5.31-3.5c-1.49-4.11-4.95-5.14-8.62-5.11
	c-8.33,0.06-16.65,0.52-24.97,0.79c-15.24,0.49-30.48,0.99-45.72,1.41c-1.11,0.03-2.24-0.59-3.36-0.91c0.64-1.14,1.02-2.94,1.95-3.3
	c4.99-1.91,10.02-4.01,15.24-4.98c5.79-1.08,11.79-1.03,17.7-1.47c0.71-0.05,1.41-0.14,2.61-0.27c-3.44-6.21-4.92-12.41-2.01-18.95
	c2.05-4.62,5.39-8.11,9.78-10.5c4.58-2.49,9.42-3.67,14.69-2.57c5.34,1.12,8.84,4.61,11.65,8.87c0.25-4.68,0.07-9.3,0.83-13.76
	c3.36-19.79,25.94-32.42,43.64-24.58c6.9,3.06,11.6,8.4,14.91,15.02c0.95,1.9,1.99,2.71,4.16,2.28c6.36-1.27,11.6,1.02,16.39,6.4
	c0.75-6.02,3.79-9.63,7.76-12.64c3.24-2.46,6.5-4.01,10.85-2.68c4.19,1.27,8.36,1.09,12.57-1.06c13.82-7.04,27.4-6.18,40.27,2.49
	c10.21,6.88,14.71,17.45,11.4,27.58c-1.4,4.3-4.22,8.14-6.45,12.3c3.49-0.34,7.48-1,10.52,2.21
	C8696.2,258.93,8696.4,262.52,8693.48,266.5z"/>
<path class="st1" d="M5977.17,346.59c6.07-2.8,12.78-3.49,19.19-5.01c-0.16-4.12,0.8-5.39,4.71-6.05c1.44-0.24,2.96-0.26,4.41-0.13
	c1.43,0.12,2.84,0.56,4.27,0.87c0.46-5.8,2.39-8.15,8.18-9.13c2.85-0.48,5.98-0.65,8.74,0.03c2.1,0.52,4.2,2.31,5.57,4.1
	c1.4,1.84,2.59,2.58,4.74,1.8c1.69-0.62,3.37-1.29,5.12-1.69c4.11-0.92,8.09-1.3,11.63,2.01c0.89,0.83,3.02,1.09,4.26,0.67
	c9.31-3.1,17.9-2.74,25.38,4.44c1.64,1.57,3.38,1.73,5.77,1.27c3.2-0.62,6.65-0.36,9.91,0.11c1.15,0.17,2.81,2.05,2.85,3.2
	c0.04,1.16-1.42,3.03-2.6,3.43c-2.33,0.78-4.93,0.9-7.44,1.03c-4.41,0.23-8.84,0.27-13.25,0.38c-1.69,0.04-3.51,0.46-5.05-0.02
	c-4.14-1.28-8.05-0.13-12.12,0.18c-8.19,0.62-16.45,0.33-24.68,0.46c-1.66,0.03-3.38,0-4.97,0.4c-6.84,1.76-13.48,2.64-19.77-1.91
	c-0.99-0.71-2.82-0.44-4.24-0.33c-8.02,0.62-16.02,1.4-24.04,1.94c-2.11,0.14-4.26-0.38-6.4-0.6
	C5977.28,347.56,5977.22,347.08,5977.17,346.59z"/>
<path class="st1" d="M5839.56,363.97c4.08-5.93,8.09-6.92,14.23-3.53c6.6-4.4,7.64-4.61,13-2.9c2.35-2.38,4.18-5.03,6.7-6.52
	c1.64-0.97,4.37-0.71,6.44-0.23c4.33,0.99,5.87,3.97,5.87,10.3c3.49,0.24,6.43,1.2,6.45,5.61c0,0.5,1.22,0.93,1.75,1.51
	c1,1.09,1.9,2.26,2.85,3.39c-1.3,0.94-2.53,2.52-3.93,2.7c-2.9,0.36-5.93,0.29-8.82-0.18c-4.26-0.69-8.29-0.37-12.52,0.44
	c-4.05,0.77-8.4,0.64-12.53,0.17c-3.94-0.45-7.62-0.5-11.56,0.43c-3.14,0.74-6.73,0.52-9.93-0.18c-3.97-0.87-6.23-4.4-5.67-7.36
	C5832.42,364.83,5834.98,363.61,5839.56,363.97z"/>
</svg>
