<?xml version="1.0" encoding="utf-8"?>
<!-- Generator: Adobe Illustrator 28.1.0, SVG Export Plug-In . SVG Version: 6.00 Build 0)  -->
<svg version="1.1" id="Sky" xmlns="http://www.w3.org/2000/svg" xmlns:xlink="http://www.w3.org/1999/xlink" x="0px" y="0px"
	 viewBox="0 0 8192 271.9" style="enable-background:new 0 0 8192 271.9;" xml:space="preserve">
<style type="text/css">
	.st0{fill:#F1FAFB;}
</style>
<path class="st0" d="M378.1,129.7c5.6,0,10.7-4.6,16.5-1.9c1.5-5.5,6.1-5.4,11.8-4c1.6,0.4,3.4,0.5,5,0.1c2.9-0.7,3.9-2.8,3.1-5.8
	c-0.3-1.2-0.8-2.4-1.2-3.6c-1.3-4.5,0.4-8.2,4.9-9.2c3.1-0.8,6.5-0.5,9.7-0.6c-1.3-1.7-2.7-4.6-1.1-7.3c1.4-2.4,3.6-4.5,5.4-6.7
	c0.4,0,0.8-0.1,1.2-0.1c-0.5-0.2-1.2-0.3-1.6-0.7c-3.4-3-2.9-6,1.5-7.1c3.4-0.9,7.1-0.7,10.8-1c-0.1-0.5-0.4-1.6-0.7-2.6
	c-1.8-6.4,0.2-11.6,5.4-15.6c4.1-3.2,9-4.8,14.1-5.6c8.6-1.4,17.1-1.2,25.4,1.8c11.8,4.4,15.1,10.3,12.6,22.7c2.5-0.7,5-1.7,7.4-1.9
	c2.8-0.2,5.7,0.2,8.4,0.9c2.6,0.7,4.2,2.5,2.9,5.3c2.1,0.6,4.4,0.8,6.3,1.7c2.8,1.4,1.7,3.3-0.1,5.1c20.4,2.6,22.8,4.3,25.4,17
	c4.3-1,8.6-2.6,12.9-2.8c6.3-0.4,8.8,1.7,9.7,6.3c4.1-1,8.2-2.5,12.3-3.1c6.9-0.9,13.6,0.2,19.6,4.4c0.6,0.4,1.8,0.2,2.8,0.1
	c2.9-0.3,5.8-1.1,8.7-1c4,0.1,6.6,2.4,7.3,6.5c0.6,3.9,3,6.8,6.2,8.7c2.9,1.7,6,3.4,9.2,4c8,1.5,16.2,2.4,24.2,3.6
	c0.9,0.1,1.8,0.2,2.7,0.3c0.1,0.3,0.1,0.5,0.2,0.8c-0.9,0.2-1.7,0.4-2.6,0.8c-0.4,0.2-1,0.7-1,1c0,0.4,0.6,1,1,1.1
	c2.9,0.6,4.9-0.5,5.8-3.7c11.2,1,22.3,1.7,33.4,3c7.2,0.8,14.2,2.4,21.3,3.8c2.1,0.4,4.1,1.8,6.1,2.7c-0.1,0.3-0.2,0.6-0.2,1
	c-0.9,0.1-1.8,0.3-2.7,0.3c-34.5,2.6-69,5.4-103.5,7.8c-31.3,2.1-62.5,4.6-93.9,3.8c-3.6-0.1-7.1-0.8-10.7-1.3
	c-0.1-0.5-0.2-0.9-0.3-1.4c1.9-1.3,3.9-2.6,6.7-4.5c-2.3-0.6-3.8-1.4-5.3-1.5c-10.9-0.5-21.8-1.2-32.6-1
	c-26.7,0.5-53.4,1.2-80.1,2.2c-48,1.8-95.9,4-143.9,6c-4.8,0.2-9.6,0.7-14.3,0.5c-5.3-0.2-10.6,0.8-15.9,0.7c-5.5,0-11,0.3-16.5,0.4
	c-5.5,0.2-11,0.5-16.5,0.5c-15.3,0.1-30.7,0.3-46-0.1c-5.5-0.2-10.9-2.1-16.3-3.3c-1-0.2-1.9-1-3.7-2c1.8-0.7,2.7-1.3,3.8-1.5
	c7.3-0.9,14.6-1.7,21.8-2.6c2.6-0.3,5.2-1.1,7.8-1.7c0-0.5,0-1.1,0-1.6c-2.3-0.6-4.6-1.6-6.9-1.7c-10.4-0.3-20.8-0.6-31.2-0.4
	c-12.6,0.2-25.2,0.9-37.9,1.4c-18.2,0.7-36.4,1.4-54.6,2.1c-1,0-2-0.1-3-0.1c-0.1-0.3-0.2-0.6-0.4-1c1.5-1,2.9-2.3,4.6-2.8
	c4.6-1.3,9.3-2.4,14-3.3c5.7-1,11-2.8,15.9-5.9c4.1-2.6,8.5-3.6,13.2-2c1.8,0.6,2.2-0.5,2.4-1.9c1.7-12.3,12.8-22.8,26.4-24
	c6.6-0.6,12.6,1.1,18,5c0.7,0.5,1.4,1,2.5,1.9c0.8-9.2,4.2-16.6,13.1-19.9c8.6-3.3,16.5-1,24.2,5.3c-2.6-6.4-2.7-11.9,0.1-17.3
	c2.8-5.4,7.4-8.4,14.2-9.4c-4.2-2.1-6.7-4.6-7.5-8.5c-0.5-2.4-0.4-4.6,1.6-6.4c0.4-0.3,0.6-0.8,0.9-1.1c1.3-1.4,2.6-4,3.9-4
	c2.6,0,5.2,1.3,7.7,2.2c0.5,0.2,0.9,0.6,1.7,1.2c0.8-1.7,1.5-3.2,2.2-4.8c2.9-6.1,7.3-10.8,12.3-15.3c10.4-9.5,22.6-12.5,36-11.8
	c21.1,1.1,39.6,16.5,43.6,36.8c1.7,8.7,1.1,17.3-5.6,24.4c-0.2,0.2-0.2,0.5-0.3,1c6.2,2.5,9.5,7.2,10.1,13.8c2,0.4,3.9,0.5,5.7,1.2
	c3.5,1.3,5.9,3.7,6.8,7.6c0.6,2.7,2.1,5.2,3.2,8c9-2.7,16.9,0.1,23.1,6.5c2.6-1.6,4.9-3.9,7.5-4.4c2.6-0.6,5.5,0.5,8.6,0.9
	c3.5-5.4,6.9-6.3,13.4-3.1c4.8,2.3,9.7,4.2,14.4,6.6c2.1,1.1,3.8,2.9,5.6,4.4C378.2,129.1,378.2,129.4,378.1,129.7z"/>
<path class="st0" d="M1787.3,183.6c8.5,0,16.2-6.9,25-2.8c2.3-8.3,9.2-8.2,17.8-6.1c2.4,0.6,5.2,0.8,7.5,0.2
	c4.4-1.1,5.9-4.3,4.8-8.7c-0.5-1.8-1.2-3.6-1.7-5.4c-1.9-6.8,0.7-12.4,7.5-14c4.8-1.1,9.9-0.7,14.7-0.9c-2-2.6-4-6.9-1.6-11.1
	c2.1-3.7,5.4-6.7,8.2-10.1c0.6-0.1,1.3-0.1,1.9-0.2c-0.8-0.3-1.8-0.5-2.4-1c-5.1-4.5-4.4-9,2.3-10.8c5.1-1.3,10.7-1,16.3-1.5
	c-0.2-0.8-0.6-2.4-1.1-4c-2.7-9.7,0.3-17.5,8.1-23.6c6.3-4.9,13.6-7.3,21.4-8.5c13-2.1,26-1.8,38.5,2.8
	c17.9,6.6,22.9,15.6,19.1,34.3c3.9-1,7.5-2.6,11.3-2.8c4.2-0.2,8.7,0.3,12.8,1.4c3.9,1,6.3,3.8,4.4,8.1c3.3,0.9,6.6,1.3,9.5,2.6
	c4.3,2,2.6,5-0.2,7.7c30.9,3.9,34.5,6.4,38.5,25.7c6.5-1.5,13-3.9,19.6-4.3c9.5-0.6,13.4,2.6,14.7,9.6c6.2-1.6,12.4-3.9,18.7-4.6
	c10.5-1.3,20.7,0.3,29.7,6.6c1,0.7,2.8,0.3,4.2,0.2c4.4-0.5,8.9-1.7,13.2-1.5c6,0.2,10,3.6,11.1,9.9c1,5.9,4.5,10.2,9.4,13.1
	c4.3,2.6,9,5.2,13.9,6.1c12.2,2.3,24.5,3.7,36.7,5.4c1.4,0.2,2.8,0.3,4.2,0.4c0.1,0.4,0.2,0.8,0.2,1.2c-1.3,0.4-2.6,0.6-3.9,1.1
	c-0.6,0.3-1.6,1.1-1.5,1.6c0.1,0.6,0.9,1.5,1.6,1.6c4.4,0.9,7.4-0.8,8.8-5.6c17,1.5,33.9,2.6,50.7,4.5c10.8,1.3,21.6,3.6,32.3,5.8
	c3.2,0.7,6.2,2.7,9.2,4.1c-0.1,0.5-0.2,1-0.3,1.4c-1.4,0.2-2.7,0.4-4.1,0.5c-52.3,4-104.6,8.2-156.9,11.8
	c-47.4,3.2-94.8,7-142.3,5.8c-5.4-0.1-10.8-1.3-16.2-1.9c-0.1-0.7-0.3-1.4-0.4-2.1c2.9-2,5.9-4,10.1-6.8c-3.4-1-5.7-2.1-8.1-2.2
	c-16.5-0.7-33-1.9-49.5-1.6c-40.5,0.7-80.9,1.8-121.4,3.3c-72.7,2.8-145.4,6.1-218.1,9.1c-7.2,0.3-14.5,1.1-21.7,0.8
	c-8.1-0.4-16,1.2-24.1,1.1c-8.3-0.1-16.6,0.4-25,0.6c-8.3,0.2-16.6,0.7-25,0.7c-23.2,0.1-46.5,0.5-69.7-0.2
	c-8.3-0.2-16.5-3.2-24.7-5.1c-1.6-0.4-2.9-1.5-5.6-3c2.7-1.1,4.2-2,5.7-2.2c11-1.4,22.1-2.5,33.1-4c4-0.5,7.9-1.7,11.9-2.6
	c0-0.8,0-1.6,0.1-2.5c-3.5-0.9-7-2.4-10.5-2.5c-15.8-0.5-31.5-0.9-47.3-0.6c-19.1,0.3-38.3,1.4-57.4,2.2
	c-27.6,1.1-55.2,2.1-82.7,3.2c-1.5,0.1-3-0.1-4.6-0.2c-0.2-0.5-0.4-1-0.6-1.5c2.3-1.5,4.5-3.5,7-4.3c7-2,14.1-3.7,21.3-5
	c8.6-1.6,16.6-4.2,24-9c6.2-4,12.9-5.5,20-3c2.8,0.9,3.4-0.8,3.7-2.8c2.5-18.7,19.4-34.5,40.1-36.4c10-0.9,19.1,1.7,27.3,7.5
	c1,0.8,2.1,1.5,3.8,2.8c1.2-14,6.4-25.1,19.8-30.2c13.1-5,24.9-1.6,36.7,8.1c-4-9.7-4.1-18.1,0.1-26.3c4.2-8.2,11.2-12.8,21.5-14.2
	c-6.4-3.1-10.2-6.9-11.4-12.8c-0.7-3.6-0.7-7,2.4-9.6c0.5-0.5,0.9-1.1,1.4-1.7c2-2.1,4-6,6-6c3.9,0,7.8,2,11.7,3.3
	c0.8,0.3,1.4,1,2.5,1.8c1.2-2.6,2.3-4.9,3.4-7.2c4.4-9.2,11-16.3,18.7-23.2c15.8-14.4,34.2-18.9,54.5-17.9c32,1.6,60,25.1,66.1,55.8
	c2.6,13.3,1.6,26.3-8.5,37c-0.3,0.3-0.3,0.8-0.5,1.5c9.4,3.8,14.5,10.9,15.3,20.9c3,0.6,6,0.8,8.6,1.8c5.3,2,8.9,5.6,10.2,11.6
	c0.9,4.1,3.1,7.9,4.9,12.1c13.7-4.1,25.7,0.2,35,9.8c4-2.5,7.4-5.8,11.3-6.7c3.9-0.9,8.4,0.8,13,1.4c5.2-8.2,10.5-9.5,20.4-4.8
	c7.2,3.5,14.7,6.4,21.8,10c3.1,1.6,5.7,4.4,8.5,6.7C1787.5,182.8,1787.4,183.2,1787.3,183.6z"/>
<path class="st0" d="M913.1,84.5c4.3,0,8.2-0.3,12.1,0.1c2.7,0.3,5.5,1.2,8,2.4c7.3,3.4,15,5.2,22.9,5.5c12.2,0.6,24.1,2.7,36,5.5
	c0.3,0.1,0.5,0.2,1.6,0.7c-1.6,0.3-2.6,0.5-3.5,0.6c-17.5,2.1-35,1.8-52.6,1.7c-13.4-0.1-26.8,0.3-40.2,0.8
	c-4.6,0.2-8.8-0.2-12.8-2.4c-6.4-3.5-13-3.9-19.9-2.1c-4.4,1.2-8.6,1.7-12.7-1.4c-1.1-0.9-3.3-0.7-5-0.4c-2.8,0.4-5.5,1.1-8.2,1.7
	c-6.9,1.6-13.6,2.2-20.8,1.7c-11.3-0.8-22.7,0-34.1,0.1c-2.7,0-5.4-0.2-8.1,0c-2.6,0.2-4-1-4.8-3.2c-1.4-3.7-4.5-4.7-7.8-4.7
	c-7.6,0.1-15.2,0.5-22.7,0.7c-13.9,0.4-27.7,0.9-41.6,1.3c-1,0-2-0.5-3.1-0.8c0.6-1,0.9-2.7,1.8-3c4.5-1.7,9.1-3.6,13.9-4.5
	c5.3-1,10.7-0.9,16.1-1.3c0.6,0,1.3-0.1,2.4-0.2c-3.1-5.7-4.5-11.3-1.8-17.2c1.9-4.2,4.9-7.4,8.9-9.6c4.2-2.3,8.6-3.3,13.4-2.3
	c4.9,1,8,4.2,10.6,8.1c0.2-4.3,0.1-8.5,0.8-12.5c3.1-18,23.6-29.5,39.7-22.4c6.3,2.8,10.6,7.6,13.6,13.7c0.9,1.7,1.8,2.5,3.8,2.1
	c5.8-1.2,10.6,0.9,14.9,5.8c0.7-5.5,3.5-8.8,7.1-11.5c2.9-2.2,5.9-3.6,9.9-2.4c3.8,1.2,7.6,1,11.4-1c12.6-6.4,24.9-5.6,36.7,2.3
	c9.3,6.3,13.4,15.9,10.4,25.1c-1.3,3.9-3.8,7.4-5.9,11.2c3.2-0.3,6.8-0.9,9.6,2C915.6,77.6,915.8,80.9,913.1,84.5z"/>
<path class="st0" d="M1286.2,54.3c4.2-1.2,7.9-2.7,11.7-3.2c9.1-1.2,15,5,13.9,14.1c0,0.4,0,0.8,0,0.5c2.5,0.6,5.3,0.6,6.8,1.9
	c1.5,1.3,1.6,4,2.4,6.2c1.2,0,3.4-0.6,5,0.2c1.5,0.7,2.2,2.9,3.1,4.6c10.9,4.4,22.5,5.5,34.3,5c9.9-0.4,19.9,0.3,29.4,3.4
	c2,0.6,3.9,1.7,5.8,2.6c-0.1,0.3-0.1,0.6-0.2,1c-0.9,0.1-1.8,0.3-2.7,0.3c-33.9-0.9-67.6,1.7-101.4,2.6c-13.9,0.4-27.7-0.3-41.6-0.5
	c-5.8-0.1-11.4,0.5-17,2.4c-6.2,2.1-12.7,2-18.5-2.1c-2-1.4-4.2-2.7-6.3-4.1c-3.4-2.3-6.6-2-10.3-0.4c-4.7,2.1-9.6,3.8-14.6,5
	c-2.5,0.6-5.6,0.1-8.2-0.8c-8.8-3-17.7-2.2-26.6-1.5c-2.7,0.2-5.4,0.7-8,1c-0.3,0-0.6,0.1-0.9,0.1c-3.5,0.2-6.5-1.6-6.8-4.1
	c-0.3-2.4,1.8-5,5.2-5.7c2.2-0.5,4.6-0.6,6.9-0.3c6.3,0.8,11.8-1,16.8-4.6c4.9-3.5,10.3-5.2,16.4-4.1c2.5,0.5,4.9,1.5,7.2,2.2
	c0.2-3.6,0.2-7.2,0.7-10.7c0.6-4.3,2.6-8.1,5.5-11.3c4.7-5.1,10.6-6.1,16.8-2.9c0.6,0.3,1.2,0.6,2,1c-1.5-10.8,5.5-15.5,13.6-19
	c5.8-2.6,12-3.4,18.4-2c8,1.7,13.1,6.6,15.6,14.3c0.4,1.2,0.7,2.4,1.2,4.2c3.6-5.4,8.2-8,14.3-6.7
	C1282,44.2,1285.4,48.3,1286.2,54.3z"/>
<path class="st0" d="M1004.4,157.4c5.5-2.5,11.6-3.2,17.5-4.6c-0.1-3.8,0.7-4.9,4.3-5.5c1.3-0.2,2.7-0.2,4-0.1
	c1.3,0.1,2.6,0.5,3.9,0.8c0.4-5.3,2.2-7.4,7.4-8.3c2.6-0.4,5.4-0.6,8,0c1.9,0.5,3.8,2.1,5.1,3.7c1.3,1.7,2.4,2.3,4.3,1.6
	c1.5-0.6,3.1-1.2,4.7-1.5c3.7-0.8,7.4-1.2,10.6,1.8c0.8,0.8,2.7,1,3.9,0.6c8.5-2.8,16.3-2.5,23.1,4c1.5,1.4,3.1,1.6,5.2,1.2
	c2.9-0.6,6.1-0.3,9,0.1c1,0.2,2.6,1.9,2.6,2.9c0,1.1-1.3,2.8-2.4,3.1c-2.1,0.7-4.5,0.8-6.8,0.9c-4,0.2-8,0.2-12.1,0.3
	c-1.5,0-3.2,0.4-4.6,0c-3.8-1.2-7.3-0.1-11,0.2c-7.5,0.6-15,0.3-22.5,0.4c-1.5,0-3.1,0-4.5,0.4c-6.2,1.6-12.3,2.4-18-1.7
	c-0.9-0.6-2.6-0.4-3.9-0.3c-7.3,0.6-14.6,1.3-21.9,1.8c-1.9,0.1-3.9-0.3-5.8-0.5C1004.5,158.3,1004.5,157.8,1004.4,157.4z"/>
<path class="st0" d="M879.2,173.2c3.7-5.4,7.4-6.3,13-3.2c6-4,7-4.2,11.8-2.6c2.1-2.2,3.8-4.6,6.1-5.9c1.5-0.9,4-0.6,5.9-0.2
	c3.9,0.9,5.3,3.6,5.3,9.4c3.2,0.2,5.9,1.1,5.9,5.1c0,0.5,1.1,0.8,1.6,1.4c0.9,1,1.7,2.1,2.6,3.1c-1.2,0.9-2.3,2.3-3.6,2.5
	c-2.6,0.3-5.4,0.3-8-0.2c-3.9-0.6-7.5-0.3-11.4,0.4c-3.7,0.7-7.6,0.6-11.4,0.2c-3.6-0.4-6.9-0.5-10.5,0.4c-2.9,0.7-6.1,0.5-9-0.2
	c-3.6-0.8-5.7-4-5.2-6.7C872.7,174,875,172.9,879.2,173.2z"/>
<path class="st0" d="M2462.5,84.5c4.3,0,8.2-0.3,12.1,0.1c2.7,0.3,5.5,1.2,8,2.4c7.3,3.4,15,5.2,22.9,5.5c12.2,0.6,24.1,2.7,36,5.5
	c0.3,0.1,0.5,0.2,1.6,0.7c-1.6,0.3-2.6,0.5-3.5,0.6c-17.5,2.1-35,1.8-52.6,1.7c-13.4-0.1-26.8,0.3-40.2,0.8
	c-4.6,0.2-8.8-0.2-12.8-2.4c-6.4-3.5-13-3.9-19.9-2.1c-4.4,1.2-8.6,1.7-12.7-1.4c-1.1-0.9-3.3-0.7-5-0.4c-2.8,0.4-5.5,1.1-8.2,1.7
	c-6.9,1.6-13.6,2.2-20.8,1.7c-11.3-0.8-22.7,0-34.1,0.1c-2.7,0-5.4-0.2-8.1,0c-2.6,0.2-4-1-4.8-3.2c-1.4-3.7-4.5-4.7-7.8-4.7
	c-7.6,0.1-15.2,0.5-22.7,0.7c-13.9,0.4-27.7,0.9-41.6,1.3c-1,0-2-0.5-3.1-0.8c0.6-1,0.9-2.7,1.8-3c4.5-1.7,9.1-3.6,13.9-4.5
	c5.3-1,10.7-0.9,16.1-1.3c0.6,0,1.3-0.1,2.4-0.2c-3.1-5.7-4.5-11.3-1.8-17.2c1.9-4.2,4.9-7.4,8.9-9.6c4.2-2.3,8.6-3.3,13.4-2.3
	c4.9,1,8,4.2,10.6,8.1c0.2-4.3,0.1-8.5,0.8-12.5c3.1-18,23.6-29.5,39.7-22.4c6.3,2.8,10.6,7.6,13.6,13.7c0.9,1.7,1.8,2.5,3.8,2.1
	c5.8-1.2,10.6,0.9,14.9,5.8c0.7-5.5,3.5-8.8,7.1-11.5c2.9-2.2,5.9-3.6,9.9-2.4c3.8,1.2,7.6,1,11.4-1c12.6-6.4,24.9-5.6,36.7,2.3
	c9.3,6.3,13.4,15.9,10.4,25.1c-1.3,3.9-3.8,7.4-5.9,11.2c3.2-0.3,6.8-0.9,9.6,2C2465,77.6,2465.2,80.9,2462.5,84.5z"/>
<path class="st0" d="M2553.8,157.4c5.5-2.5,11.6-3.2,17.5-4.6c-0.1-3.8,0.7-4.9,4.3-5.5c1.3-0.2,2.7-0.2,4-0.1
	c1.3,0.1,2.6,0.5,3.9,0.8c0.4-5.3,2.2-7.4,7.4-8.3c2.6-0.4,5.4-0.6,8,0c1.9,0.5,3.8,2.1,5.1,3.7c1.3,1.7,2.4,2.3,4.3,1.6
	c1.5-0.6,3.1-1.2,4.7-1.5c3.7-0.8,7.4-1.2,10.6,1.8c0.8,0.8,2.7,1,3.9,0.6c8.5-2.8,16.3-2.5,23.1,4c1.5,1.4,3.1,1.6,5.2,1.2
	c2.9-0.6,6.1-0.3,9,0.1c1,0.2,2.6,1.9,2.6,2.9c0,1.1-1.3,2.8-2.4,3.1c-2.1,0.7-4.5,0.8-6.8,0.9c-4,0.2-8,0.2-12.1,0.3
	c-1.5,0-3.2,0.4-4.6,0c-3.8-1.2-7.3-0.1-11,0.2c-7.5,0.6-15,0.3-22.5,0.4c-1.5,0-3.1,0-4.5,0.4c-6.2,1.6-12.3,2.4-18-1.7
	c-0.9-0.6-2.6-0.4-3.9-0.3c-7.3,0.6-14.6,1.3-21.9,1.8c-1.9,0.1-3.9-0.3-5.8-0.5C2553.9,158.3,2553.9,157.8,2553.8,157.4z"/>
<path class="st0" d="M2428.6,173.2c3.7-5.4,7.4-6.3,13-3.2c6-4,7-4.2,11.8-2.6c2.1-2.2,3.8-4.6,6.1-5.9c1.5-0.9,4-0.6,5.9-0.2
	c3.9,0.9,5.3,3.6,5.3,9.4c3.2,0.2,5.9,1.1,5.9,5.1c0,0.5,1.1,0.8,1.6,1.4c0.9,1,1.7,2.1,2.6,3.1c-1.2,0.9-2.3,2.3-3.6,2.5
	c-2.6,0.3-5.4,0.3-8-0.2c-3.9-0.6-7.5-0.3-11.4,0.4c-3.7,0.7-7.6,0.6-11.4,0.2c-3.6-0.4-6.9-0.5-10.5,0.4c-2.9,0.7-6.1,0.5-9-0.2
	c-3.6-0.8-5.7-4-5.2-6.7C2422.1,174,2424.4,172.9,2428.6,173.2z"/>
<path class="st0" d="M3052,129.7c5.6,0,10.7-4.6,16.5-1.9c1.5-5.5,6.1-5.4,11.8-4c1.6,0.4,3.4,0.5,5,0.1c2.9-0.7,3.9-2.8,3.1-5.8
	c-0.3-1.2-0.8-2.4-1.2-3.6c-1.3-4.5,0.4-8.2,4.9-9.2c3.1-0.8,6.5-0.5,9.7-0.6c-1.3-1.7-2.7-4.6-1.1-7.3c1.4-2.4,3.6-4.5,5.4-6.7
	c0.4,0,0.8-0.1,1.2-0.1c-0.5-0.2-1.2-0.3-1.6-0.7c-3.4-3-2.9-6,1.5-7.1c3.4-0.9,7.1-0.7,10.8-1c-0.1-0.5-0.4-1.6-0.7-2.6
	c-1.8-6.4,0.2-11.6,5.4-15.6c4.1-3.2,9-4.8,14.1-5.6c8.6-1.4,17.1-1.2,25.4,1.8c11.8,4.4,15.1,10.3,12.6,22.7c2.5-0.7,5-1.7,7.4-1.9
	c2.8-0.2,5.7,0.2,8.4,0.9c2.6,0.7,4.2,2.5,2.9,5.3c2.1,0.6,4.4,0.8,6.3,1.7c2.8,1.4,1.7,3.3-0.1,5.1c20.4,2.6,22.8,4.3,25.4,17
	c4.3-1,8.6-2.6,12.9-2.8c6.3-0.4,8.8,1.7,9.7,6.3c4.1-1,8.2-2.5,12.3-3.1c6.9-0.9,13.6,0.2,19.6,4.4c0.6,0.4,1.8,0.2,2.8,0.1
	c2.9-0.3,5.8-1.1,8.7-1c4,0.1,6.6,2.4,7.3,6.5c0.6,3.9,3,6.8,6.2,8.7c2.9,1.7,6,3.4,9.2,4c8,1.5,16.2,2.4,24.2,3.6
	c0.9,0.1,1.8,0.2,2.7,0.3c0.1,0.3,0.1,0.5,0.2,0.8c-0.9,0.2-1.7,0.4-2.6,0.8c-0.4,0.2-1,0.7-1,1c0,0.4,0.6,1,1,1.1
	c2.9,0.6,4.9-0.5,5.8-3.7c11.2,1,22.3,1.7,33.4,3c7.2,0.8,14.2,2.4,21.3,3.8c2.1,0.4,4.1,1.8,6.1,2.7c-0.1,0.3-0.2,0.6-0.2,1
	c-0.9,0.1-1.8,0.3-2.7,0.3c-34.5,2.6-69,5.4-103.5,7.8c-31.3,2.1-62.5,4.6-93.9,3.8c-3.6-0.1-7.1-0.8-10.7-1.3
	c-0.1-0.5-0.2-0.9-0.3-1.4c1.9-1.3,3.9-2.6,6.7-4.5c-2.3-0.6-3.8-1.4-5.3-1.5c-10.9-0.5-21.8-1.2-32.6-1
	c-26.7,0.5-53.4,1.2-80.1,2.2c-48,1.8-95.9,4-143.9,6c-4.8,0.2-9.6,0.7-14.3,0.5c-5.3-0.2-10.6,0.8-15.9,0.7c-5.5,0-11,0.3-16.5,0.4
	c-5.5,0.2-11,0.5-16.5,0.5c-15.3,0.1-30.7,0.3-46-0.1c-5.5-0.2-10.9-2.1-16.3-3.3c-1-0.2-1.9-1-3.7-2c1.8-0.7,2.7-1.3,3.8-1.5
	c7.3-0.9,14.6-1.7,21.8-2.6c2.6-0.3,5.2-1.1,7.8-1.7c0-0.5,0-1.1,0-1.6c-2.3-0.6-4.6-1.6-6.9-1.7c-10.4-0.3-20.8-0.6-31.2-0.4
	c-12.6,0.2-25.2,0.9-37.9,1.4c-18.2,0.7-36.4,1.4-54.6,2.1c-1,0-2-0.1-3-0.1c-0.1-0.3-0.2-0.6-0.4-1c1.5-1,2.9-2.3,4.6-2.8
	c4.6-1.3,9.3-2.4,14-3.3c5.7-1,11-2.8,15.9-5.9c4.1-2.6,8.5-3.6,13.2-2c1.8,0.6,2.2-0.5,2.4-1.9c1.7-12.3,12.8-22.8,26.4-24
	c6.6-0.6,12.6,1.1,18,5c0.7,0.5,1.4,1,2.5,1.9c0.8-9.2,4.2-16.6,13.1-19.9c8.6-3.3,16.5-1,24.2,5.3c-2.6-6.4-2.7-11.9,0.1-17.3
	c2.8-5.4,7.4-8.4,14.2-9.4c-4.2-2.1-6.7-4.6-7.5-8.5c-0.5-2.4-0.4-4.6,1.6-6.4c0.4-0.3,0.6-0.8,0.9-1.1c1.3-1.4,2.6-4,3.9-4
	c2.6,0,5.2,1.3,7.7,2.2c0.5,0.2,0.9,0.6,1.7,1.2c0.8-1.7,1.5-3.2,2.2-4.8c2.9-6.1,7.3-10.8,12.3-15.3c10.4-9.5,22.5-12.5,36-11.8
	c21.1,1.1,39.6,16.5,43.6,36.8c1.7,8.7,1.1,17.3-5.6,24.4c-0.2,0.2-0.2,0.5-0.3,1c6.2,2.5,9.5,7.2,10.1,13.8c2,0.4,3.9,0.5,5.7,1.2
	c3.5,1.3,5.9,3.7,6.8,7.6c0.6,2.7,2.1,5.2,3.2,8c9-2.7,16.9,0.1,23.1,6.5c2.6-1.6,4.9-3.9,7.5-4.4c2.6-0.6,5.5,0.5,8.6,0.9
	c3.5-5.4,6.9-6.3,13.4-3.1c4.8,2.3,9.7,4.2,14.4,6.6c2.1,1.1,3.8,2.9,5.6,4.4C3052.1,129.1,3052,129.4,3052,129.7z"/>
<path class="st0" d="M7342.6,129.7c5.6,0,10.7-4.6,16.5-1.9c1.5-5.5,6.1-5.4,11.8-4c1.6,0.4,3.4,0.5,5,0.1c2.9-0.7,3.9-2.8,3.1-5.8
	c-0.3-1.2-0.8-2.4-1.2-3.6c-1.3-4.5,0.4-8.2,4.9-9.2c3.1-0.8,6.5-0.5,9.7-0.6c-1.3-1.7-2.7-4.6-1.1-7.3c1.4-2.4,3.6-4.5,5.4-6.7
	c0.4,0,0.8-0.1,1.2-0.1c-0.5-0.2-1.2-0.3-1.6-0.7c-3.4-3-2.9-6,1.5-7.1c3.4-0.9,7.1-0.7,10.8-1c-0.1-0.5-0.4-1.6-0.7-2.6
	c-1.8-6.4,0.2-11.6,5.4-15.6c4.1-3.2,9-4.8,14.1-5.6c8.6-1.4,17.1-1.2,25.4,1.8c11.8,4.4,15.1,10.3,12.6,22.7c2.5-0.7,5-1.7,7.4-1.9
	c2.8-0.2,5.7,0.2,8.4,0.9c2.6,0.7,4.2,2.5,2.9,5.3c2.1,0.6,4.4,0.8,6.3,1.7c2.8,1.4,1.7,3.3-0.1,5.1c20.4,2.6,22.8,4.3,25.4,17
	c4.3-1,8.6-2.6,12.9-2.8c6.3-0.4,8.8,1.7,9.7,6.3c4.1-1,8.2-2.5,12.3-3.1c6.9-0.9,13.6,0.2,19.6,4.4c0.6,0.4,1.8,0.2,2.8,0.1
	c2.9-0.3,5.8-1.1,8.7-1c4,0.1,6.6,2.4,7.3,6.5c0.6,3.9,3,6.8,6.2,8.7c2.9,1.7,6,3.4,9.2,4c8,1.5,16.2,2.4,24.2,3.6
	c0.9,0.1,1.8,0.2,2.7,0.3c0.1,0.3,0.1,0.5,0.2,0.8c-0.9,0.2-1.7,0.4-2.6,0.8c-0.4,0.2-1,0.7-1,1c0,0.4,0.6,1,1,1.1
	c2.9,0.6,4.9-0.5,5.8-3.7c11.2,1,22.3,1.7,33.4,3c7.2,0.8,14.2,2.4,21.3,3.8c2.1,0.4,4.1,1.8,6.1,2.7c-0.1,0.3-0.2,0.6-0.2,1
	c-0.9,0.1-1.8,0.3-2.7,0.3c-34.5,2.6-69,5.4-103.5,7.8c-31.3,2.1-62.5,4.6-93.9,3.8c-3.6-0.1-7.1-0.8-10.7-1.3
	c-0.1-0.5-0.2-0.9-0.3-1.4c1.9-1.3,3.9-2.6,6.7-4.5c-2.3-0.6-3.8-1.4-5.3-1.5c-10.9-0.5-21.8-1.2-32.6-1
	c-26.7,0.5-53.4,1.2-80.1,2.2c-48,1.8-95.9,4-143.9,6c-4.8,0.2-9.6,0.7-14.3,0.5c-5.3-0.2-10.6,0.8-15.9,0.7c-5.5,0-11,0.3-16.5,0.4
	c-5.5,0.2-11,0.5-16.5,0.5c-15.3,0.1-30.7,0.3-46-0.1c-5.5-0.2-10.9-2.1-16.3-3.3c-1-0.2-1.9-1-3.7-2c1.8-0.7,2.7-1.3,3.8-1.5
	c7.3-0.9,14.6-1.7,21.8-2.6c2.6-0.3,5.2-1.1,7.8-1.7c0-0.5,0-1.1,0-1.6c-2.3-0.6-4.6-1.6-6.9-1.7c-10.4-0.3-20.8-0.6-31.2-0.4
	c-12.6,0.2-25.2,0.9-37.9,1.4c-18.2,0.7-36.4,1.4-54.6,2.1c-1,0-2-0.1-3-0.1c-0.1-0.3-0.2-0.6-0.4-1c1.5-1,2.9-2.3,4.6-2.8
	c4.6-1.3,9.3-2.4,14-3.3c5.7-1,11-2.8,15.9-5.9c4.1-2.6,8.5-3.6,13.2-2c1.8,0.6,2.2-0.5,2.4-1.9c1.7-12.3,12.8-22.8,26.4-24
	c6.6-0.6,12.6,1.1,18,5c0.7,0.5,1.4,1,2.5,1.9c0.8-9.2,4.2-16.6,13.1-19.9c8.6-3.3,16.5-1,24.2,5.3c-2.6-6.4-2.7-11.9,0.1-17.3
	c2.8-5.4,7.4-8.4,14.2-9.4c-4.2-2.1-6.7-4.6-7.5-8.5c-0.5-2.4-0.4-4.6,1.6-6.4c0.4-0.3,0.6-0.8,0.9-1.1c1.3-1.4,2.6-4,3.9-4
	c2.6,0,5.2,1.3,7.7,2.2c0.5,0.2,0.9,0.6,1.7,1.2c0.8-1.7,1.5-3.2,2.2-4.8c2.9-6.1,7.3-10.8,12.3-15.3c10.4-9.5,22.5-12.5,36-11.8
	c21.1,1.1,39.6,16.5,43.6,36.8c1.7,8.7,1.1,17.3-5.6,24.4c-0.2,0.2-0.2,0.5-0.3,1c6.2,2.5,9.5,7.2,10.1,13.8c2,0.4,3.9,0.5,5.7,1.2
	c3.5,1.3,5.9,3.7,6.8,7.6c0.6,2.7,2.1,5.2,3.2,8c9-2.7,16.9,0.1,23.1,6.5c2.6-1.6,4.9-3.9,7.5-4.4c2.6-0.6,5.5,0.5,8.6,0.9
	c3.5-5.4,6.9-6.3,13.4-3.1c4.8,2.3,9.7,4.2,14.4,6.6c2.1,1.1,3.8,2.9,5.6,4.4C7342.7,129.1,7342.7,129.4,7342.6,129.7z"/>
<path class="st0" d="M4674,183.6c8.5,0,16.2-6.9,25-2.8c2.3-8.3,9.2-8.2,17.8-6.1c2.4,0.6,5.2,0.8,7.5,0.2c4.4-1.1,5.9-4.3,4.8-8.7
	c-0.5-1.8-1.2-3.6-1.7-5.4c-1.9-6.8,0.7-12.4,7.5-14c4.8-1.1,9.9-0.7,14.7-0.9c-2-2.6-4-6.9-1.6-11.1c2.1-3.7,5.4-6.7,8.2-10.1
	c0.6-0.1,1.3-0.1,1.9-0.2c-0.8-0.3-1.8-0.5-2.4-1c-5.1-4.5-4.4-9,2.3-10.8c5.1-1.3,10.7-1,16.3-1.5c-0.2-0.8-0.6-2.4-1.1-4
	c-2.7-9.7,0.3-17.5,8.1-23.6c6.3-4.9,13.6-7.3,21.4-8.5c13-2.1,26-1.8,38.5,2.8c17.9,6.6,22.9,15.6,19.1,34.3
	c3.9-1,7.5-2.6,11.2-2.8c4.2-0.2,8.7,0.3,12.8,1.4c3.9,1,6.3,3.8,4.4,8.1c3.3,0.9,6.6,1.3,9.5,2.6c4.3,2,2.6,5-0.2,7.7
	c30.9,3.9,34.5,6.4,38.5,25.7c6.5-1.5,13-3.9,19.6-4.3c9.5-0.6,13.4,2.6,14.7,9.6c6.2-1.6,12.4-3.9,18.7-4.6
	c10.5-1.3,20.7,0.3,29.7,6.6c1,0.7,2.8,0.3,4.2,0.2c4.4-0.5,8.9-1.7,13.2-1.5c6,0.2,10,3.6,11.1,9.9c1,5.9,4.5,10.2,9.4,13.1
	c4.3,2.6,9,5.2,13.9,6.1c12.2,2.3,24.5,3.7,36.7,5.4c1.4,0.2,2.8,0.3,4.2,0.4c0.1,0.4,0.2,0.8,0.2,1.2c-1.3,0.4-2.6,0.6-3.9,1.1
	c-0.6,0.3-1.6,1.1-1.5,1.6c0.1,0.6,0.9,1.5,1.6,1.6c4.4,0.9,7.4-0.8,8.8-5.6c17,1.5,33.9,2.6,50.7,4.5c10.9,1.3,21.6,3.6,32.3,5.8
	c3.2,0.7,6.2,2.7,9.2,4.1c-0.1,0.5-0.2,1-0.3,1.4c-1.4,0.2-2.7,0.4-4.1,0.5c-52.3,4-104.6,8.2-157,11.8c-47.4,3.2-94.8,7-142.3,5.8
	c-5.4-0.1-10.8-1.3-16.2-1.9c-0.1-0.7-0.3-1.4-0.4-2.1c2.9-2,5.9-4,10.1-6.8c-3.4-1-5.7-2.1-8.1-2.2c-16.5-0.7-33-1.9-49.5-1.6
	c-40.5,0.7-80.9,1.8-121.4,3.3c-72.7,2.8-145.4,6.1-218.1,9.1c-7.2,0.3-14.5,1.1-21.7,0.8c-8.1-0.4-16,1.2-24.1,1.1
	c-8.3-0.1-16.6,0.4-25,0.6c-8.3,0.2-16.6,0.7-25,0.7c-23.2,0.1-46.5,0.5-69.7-0.2c-8.3-0.2-16.5-3.2-24.7-5.1
	c-1.6-0.4-2.9-1.5-5.6-3c2.7-1.1,4.2-2,5.7-2.2c11-1.4,22.1-2.5,33.1-4c4-0.5,7.9-1.7,11.9-2.6c0-0.8,0-1.6,0.1-2.5
	c-3.5-0.9-7-2.4-10.5-2.5c-15.8-0.5-31.5-0.9-47.3-0.6c-19.1,0.3-38.3,1.4-57.4,2.2c-27.6,1.1-55.2,2.1-82.7,3.2
	c-1.5,0.1-3-0.1-4.6-0.2c-0.2-0.5-0.4-1-0.6-1.5c2.3-1.5,4.5-3.5,7-4.3c7-2,14.1-3.7,21.3-5c8.6-1.6,16.6-4.2,24-9
	c6.2-4,12.9-5.5,20-3c2.8,0.9,3.4-0.8,3.6-2.8c2.5-18.7,19.4-34.5,40.1-36.4c10-0.9,19.1,1.7,27.3,7.5c1,0.8,2.1,1.5,3.8,2.8
	c1.2-14,6.4-25.1,19.8-30.2c13.1-5,24.9-1.6,36.7,8.1c-4-9.7-4.1-18.1,0.1-26.3c4.2-8.2,11.2-12.8,21.5-14.2
	c-6.4-3.1-10.2-6.9-11.4-12.8c-0.7-3.6-0.7-7,2.4-9.6c0.5-0.5,0.9-1.1,1.4-1.7c2-2.1,4-6,6-6c3.9,0,7.8,2,11.7,3.3
	c0.8,0.3,1.4,1,2.5,1.8c1.2-2.6,2.3-4.9,3.4-7.2c4.4-9.2,11-16.3,18.7-23.2c15.8-14.4,34.2-18.9,54.5-17.9c32,1.6,60,25.1,66.1,55.8
	c2.6,13.3,1.6,26.3-8.5,37c-0.3,0.3-0.3,0.8-0.5,1.5c9.4,3.8,14.5,10.9,15.3,20.9c3,0.6,6,0.8,8.6,1.8c5.3,2,8.9,5.6,10.2,11.6
	c0.9,4.1,3.1,7.9,4.9,12.1c13.7-4.1,25.7,0.2,35,9.8c4-2.5,7.4-5.8,11.3-6.7c3.9-0.9,8.4,0.8,13,1.4c5.2-8.2,10.5-9.5,20.4-4.8
	c7.2,3.5,14.7,6.4,21.8,10c3.1,1.6,5.7,4.4,8.5,6.7C4674.3,182.8,4674.2,183.2,4674,183.6z"/>
<path class="st0" d="M6138.8,183.6c8.5,0,16.2-6.9,25-2.8c2.3-8.3,9.2-8.2,17.8-6.1c2.4,0.6,5.2,0.8,7.5,0.2
	c4.4-1.1,5.9-4.3,4.8-8.7c-0.5-1.8-1.2-3.6-1.7-5.4c-1.9-6.8,0.7-12.4,7.5-14c4.8-1.1,9.9-0.7,14.7-0.9c-2-2.6-4-6.9-1.6-11.1
	c2.1-3.7,5.4-6.7,8.2-10.1c0.6-0.1,1.3-0.1,1.9-0.2c-0.8-0.3-1.8-0.5-2.4-1c-5.1-4.5-4.4-9,2.3-10.8c5.1-1.3,10.7-1,16.3-1.5
	c-0.2-0.8-0.6-2.4-1.1-4c-2.7-9.7,0.3-17.5,8.1-23.6c6.3-4.9,13.6-7.3,21.4-8.5c13-2.1,26-1.8,38.5,2.8
	c17.9,6.6,22.9,15.6,19.1,34.3c3.9-1,7.5-2.6,11.3-2.8c4.2-0.2,8.7,0.3,12.8,1.4c3.9,1,6.3,3.8,4.4,8.1c3.3,0.9,6.6,1.3,9.5,2.6
	c4.3,2,2.6,5-0.2,7.7c30.9,3.9,34.5,6.4,38.5,25.7c6.5-1.5,13-3.9,19.6-4.3c9.5-0.6,13.4,2.6,14.7,9.6c6.2-1.6,12.4-3.9,18.7-4.6
	c10.5-1.3,20.7,0.3,29.7,6.6c1,0.7,2.8,0.3,4.2,0.2c4.4-0.5,8.9-1.7,13.2-1.5c6,0.2,10,3.6,11.1,9.9c1,5.9,4.5,10.2,9.4,13.1
	c4.3,2.6,9,5.2,13.9,6.1c12.2,2.3,24.5,3.7,36.7,5.4c1.4,0.2,2.8,0.3,4.2,0.4c0.1,0.4,0.2,0.8,0.2,1.2c-1.3,0.4-2.6,0.6-3.9,1.1
	c-0.6,0.3-1.6,1.1-1.5,1.6c0.1,0.6,0.9,1.5,1.6,1.6c4.4,0.9,7.4-0.8,8.8-5.6c17,1.5,33.9,2.6,50.7,4.5c10.8,1.3,21.6,3.6,32.3,5.8
	c3.2,0.7,6.2,2.7,9.2,4.1c-0.1,0.5-0.2,1-0.3,1.4c-1.4,0.2-2.7,0.4-4.1,0.5c-52.3,4-104.6,8.2-156.9,11.8
	c-47.4,3.2-94.8,7-142.3,5.8c-5.4-0.1-10.8-1.3-16.2-1.9c-0.1-0.7-0.3-1.4-0.4-2.1c2.9-2,5.9-4,10.1-6.8c-3.4-1-5.7-2.1-8.1-2.2
	c-16.5-0.7-33-1.9-49.5-1.6c-40.5,0.7-80.9,1.8-121.4,3.3c-72.7,2.8-145.4,6.1-218.1,9.1c-7.2,0.3-14.5,1.1-21.7,0.8
	c-8.1-0.4-16,1.2-24.1,1.1c-8.3-0.1-16.6,0.4-25,0.6c-8.3,0.2-16.6,0.7-25,0.7c-23.2,0.1-46.5,0.5-69.7-0.2
	c-8.3-0.2-16.5-3.2-24.7-5.1c-1.6-0.4-2.9-1.5-5.6-3c2.7-1.1,4.2-2,5.7-2.2c11-1.4,22.1-2.5,33.1-4c4-0.5,7.9-1.7,11.9-2.6
	c0-0.8,0-1.6,0.1-2.5c-3.5-0.9-7-2.4-10.5-2.5c-15.8-0.5-31.5-0.9-47.3-0.6c-19.1,0.3-38.3,1.4-57.4,2.2
	c-27.6,1.1-55.2,2.1-82.7,3.2c-1.5,0.1-3-0.1-4.6-0.2c-0.2-0.5-0.4-1-0.6-1.5c2.3-1.5,4.5-3.5,7-4.3c7-2,14.1-3.7,21.3-5
	c8.6-1.6,16.6-4.2,24-9c6.2-4,12.9-5.5,20-3c2.8,0.9,3.4-0.8,3.6-2.8c2.5-18.7,19.4-34.5,40.1-36.4c10-0.9,19.1,1.7,27.3,7.5
	c1,0.8,2.1,1.5,3.8,2.8c1.2-14,6.4-25.1,19.8-30.2c13.1-5,24.9-1.6,36.7,8.1c-4-9.7-4.1-18.1,0.1-26.3c4.2-8.2,11.2-12.8,21.5-14.2
	c-6.4-3.1-10.2-6.9-11.4-12.8c-0.7-3.6-0.7-7,2.4-9.6c0.5-0.5,0.9-1.1,1.4-1.7c2-2.1,4-6,6-6c3.9,0,7.8,2,11.7,3.3
	c0.8,0.3,1.4,1,2.5,1.8c1.2-2.6,2.3-4.9,3.4-7.2c4.4-9.2,11-16.3,18.7-23.2c15.8-14.4,34.2-18.9,54.5-17.9c32,1.6,60,25.1,66.1,55.8
	c2.6,13.3,1.6,26.3-8.5,37c-0.3,0.3-0.3,0.8-0.5,1.5c9.4,3.8,14.5,10.9,15.3,20.9c3,0.6,6,0.8,8.6,1.8c5.3,2,8.9,5.6,10.2,11.6
	c0.9,4.1,3.1,7.9,4.9,12.1c13.7-4.1,25.7,0.2,35,9.8c4-2.5,7.4-5.8,11.3-6.7c3.9-0.9,8.4,0.8,13,1.4c5.2-8.2,10.5-9.5,20.4-4.8
	c7.2,3.5,14.7,6.4,21.8,10c3.1,1.6,5.7,4.4,8.5,6.7C6139,182.8,6138.9,183.2,6138.8,183.6z"/>
<path class="st0" d="M3799.8,84.5c4.3,0,8.2-0.3,12.1,0.1c2.7,0.3,5.5,1.2,8,2.4c7.3,3.4,15,5.2,22.9,5.5c12.2,0.6,24.1,2.7,36,5.5
	c0.3,0.1,0.5,0.2,1.6,0.7c-1.6,0.3-2.6,0.5-3.5,0.6c-17.5,2.1-35,1.8-52.6,1.7c-13.4-0.1-26.8,0.3-40.2,0.8
	c-4.6,0.2-8.8-0.2-12.8-2.4c-6.4-3.5-13-3.9-19.9-2.1c-4.4,1.2-8.6,1.7-12.7-1.4c-1.1-0.9-3.3-0.7-5-0.4c-2.8,0.4-5.5,1.1-8.2,1.7
	c-6.9,1.6-13.6,2.2-20.8,1.7c-11.3-0.8-22.7,0-34.1,0.1c-2.7,0-5.4-0.2-8.1,0c-2.6,0.2-4-1-4.8-3.2c-1.4-3.7-4.5-4.7-7.8-4.7
	c-7.6,0.1-15.2,0.5-22.7,0.7c-13.9,0.4-27.7,0.9-41.6,1.3c-1,0-2-0.5-3.1-0.8c0.6-1,0.9-2.7,1.8-3c4.5-1.7,9.1-3.6,13.9-4.5
	c5.3-1,10.7-0.9,16.1-1.3c0.6,0,1.3-0.1,2.4-0.2c-3.1-5.7-4.5-11.3-1.8-17.2c1.9-4.2,4.9-7.4,8.9-9.6c4.2-2.3,8.6-3.3,13.4-2.3
	c4.9,1,8,4.2,10.6,8.1c0.2-4.3,0.1-8.5,0.8-12.5c3.1-18,23.6-29.5,39.7-22.4c6.3,2.8,10.6,7.6,13.6,13.7c0.9,1.7,1.8,2.5,3.8,2.1
	c5.8-1.2,10.6,0.9,14.9,5.8c0.7-5.5,3.5-8.8,7.1-11.5c2.9-2.2,5.9-3.6,9.9-2.4c3.8,1.2,7.6,1,11.4-1c12.6-6.4,24.9-5.6,36.7,2.3
	c9.3,6.3,13.4,15.9,10.4,25.1c-1.3,3.9-3.8,7.4-5.9,11.2c3.2-0.3,6.8-0.9,9.6,2C3802.3,77.6,3802.5,80.9,3799.8,84.5z"/>
<path class="st0" d="M4172.9,54.3c4.2-1.2,7.9-2.7,11.7-3.2c9.1-1.2,15,5,13.9,14.1c0,0.4,0,0.8,0,0.5c2.5,0.6,5.3,0.6,6.8,1.9
	c1.5,1.3,1.6,4,2.4,6.2c1.2,0,3.4-0.6,5,0.2c1.5,0.7,2.2,2.9,3.1,4.6c10.9,4.4,22.5,5.5,34.3,5c9.9-0.4,19.9,0.3,29.4,3.4
	c2,0.6,3.9,1.7,5.8,2.6c-0.1,0.3-0.1,0.6-0.2,1c-0.9,0.1-1.8,0.3-2.7,0.3c-33.9-0.9-67.6,1.7-101.4,2.6c-13.9,0.4-27.7-0.3-41.6-0.5
	c-5.8-0.1-11.4,0.5-17,2.4c-6.2,2.1-12.7,2-18.5-2.1c-2-1.4-4.2-2.7-6.3-4.1c-3.4-2.3-6.6-2-10.3-0.4c-4.7,2.1-9.6,3.8-14.6,5
	c-2.5,0.6-5.6,0.1-8.2-0.8c-8.8-3-17.7-2.2-26.6-1.5c-2.7,0.2-5.4,0.7-8,1c-0.3,0-0.6,0.1-0.9,0.1c-3.5,0.2-6.5-1.6-6.8-4.1
	c-0.3-2.4,1.8-5,5.2-5.7c2.2-0.5,4.6-0.6,6.9-0.3c6.3,0.8,11.8-1,16.8-4.6c4.9-3.5,10.3-5.2,16.4-4.1c2.5,0.5,4.9,1.5,7.2,2.2
	c0.2-3.6,0.2-7.2,0.7-10.7c0.6-4.3,2.6-8.1,5.5-11.3c4.7-5.1,10.6-6.1,16.8-2.9c0.6,0.3,1.2,0.6,2,1c-1.5-10.8,5.5-15.5,13.6-19
	c5.8-2.6,12-3.4,18.4-2c8,1.7,13.1,6.6,15.6,14.3c0.4,1.2,0.7,2.4,1.2,4.2c3.6-5.4,8.2-8,14.3-6.7
	C4168.7,44.2,4172.1,48.3,4172.9,54.3z"/>
<path class="st0" d="M3891.1,157.4c5.5-2.5,11.6-3.2,17.5-4.6c-0.1-3.8,0.7-4.9,4.3-5.5c1.3-0.2,2.7-0.2,4-0.1
	c1.3,0.1,2.6,0.5,3.9,0.8c0.4-5.3,2.2-7.4,7.4-8.3c2.6-0.4,5.4-0.6,8,0c1.9,0.5,3.8,2.1,5.1,3.7c1.3,1.7,2.4,2.3,4.3,1.6
	c1.5-0.6,3.1-1.2,4.7-1.5c3.7-0.8,7.4-1.2,10.6,1.8c0.8,0.8,2.7,1,3.9,0.6c8.5-2.8,16.3-2.5,23.1,4c1.5,1.4,3.1,1.6,5.3,1.2
	c2.9-0.6,6.1-0.3,9,0.1c1,0.2,2.6,1.9,2.6,2.9c0,1.1-1.3,2.8-2.4,3.1c-2.1,0.7-4.5,0.8-6.8,0.9c-4,0.2-8,0.2-12.1,0.3
	c-1.5,0-3.2,0.4-4.6,0c-3.8-1.2-7.3-0.1-11,0.2c-7.5,0.6-15,0.3-22.5,0.4c-1.5,0-3.1,0-4.5,0.4c-6.2,1.6-12.3,2.4-18-1.7
	c-0.9-0.6-2.6-0.4-3.9-0.3c-7.3,0.6-14.6,1.3-21.9,1.8c-1.9,0.1-3.9-0.3-5.8-0.5C3891.2,158.3,3891.2,157.8,3891.1,157.4z"/>
<path class="st0" d="M3765.9,173.2c3.7-5.4,7.4-6.3,13-3.2c6-4,7-4.2,11.8-2.6c2.1-2.2,3.8-4.6,6.1-5.9c1.5-0.9,4-0.6,5.9-0.2
	c3.9,0.9,5.3,3.6,5.3,9.4c3.2,0.2,5.9,1.1,5.9,5.1c0,0.5,1.1,0.8,1.6,1.4c0.9,1,1.7,2.1,2.6,3.1c-1.2,0.9-2.3,2.3-3.6,2.5
	c-2.6,0.3-5.4,0.3-8-0.2c-3.9-0.6-7.5-0.3-11.4,0.4c-3.7,0.7-7.6,0.6-11.4,0.2c-3.6-0.4-6.9-0.5-10.5,0.4c-2.9,0.7-6.1,0.5-9-0.2
	c-3.6-0.8-5.7-4-5.2-6.7C3759.4,174,3761.7,172.9,3765.9,173.2z"/>
<path class="st0" d="M5349.2,84.5c4.3,0,8.2-0.3,12.1,0.1c2.7,0.3,5.5,1.2,8,2.4c7.3,3.4,15,5.2,22.9,5.5c12.2,0.6,24.1,2.7,36,5.5
	c0.3,0.1,0.5,0.2,1.6,0.7c-1.6,0.3-2.6,0.5-3.5,0.6c-17.5,2.1-35,1.8-52.6,1.7c-13.4-0.1-26.8,0.3-40.2,0.8
	c-4.6,0.2-8.8-0.2-12.8-2.4c-6.4-3.5-13-3.9-19.9-2.1c-4.4,1.2-8.6,1.7-12.7-1.4c-1.1-0.9-3.3-0.7-5-0.4c-2.8,0.4-5.5,1.1-8.2,1.7
	c-6.9,1.6-13.6,2.2-20.8,1.7c-11.3-0.8-22.7,0-34.1,0.1c-2.7,0-5.4-0.2-8.1,0c-2.6,0.2-4-1-4.8-3.2c-1.4-3.7-4.5-4.7-7.8-4.7
	c-7.6,0.1-15.2,0.5-22.7,0.7c-13.9,0.4-27.7,0.9-41.6,1.3c-1,0-2-0.5-3.1-0.8c0.6-1,0.9-2.7,1.8-3c4.5-1.7,9.1-3.6,13.9-4.5
	c5.3-1,10.7-0.9,16.1-1.3c0.6,0,1.3-0.1,2.4-0.2c-3.1-5.7-4.5-11.3-1.8-17.2c1.9-4.2,4.9-7.4,8.9-9.6c4.2-2.3,8.6-3.3,13.4-2.3
	c4.9,1,8,4.2,10.6,8.1c0.2-4.3,0.1-8.5,0.8-12.5c3.1-18,23.6-29.5,39.7-22.4c6.3,2.8,10.6,7.6,13.6,13.7c0.9,1.7,1.8,2.5,3.8,2.1
	c5.8-1.2,10.6,0.9,14.9,5.8c0.7-5.5,3.5-8.8,7.1-11.5c2.9-2.2,5.9-3.6,9.9-2.4c3.8,1.2,7.6,1,11.4-1c12.6-6.4,24.9-5.6,36.7,2.3
	c9.3,6.3,13.4,15.9,10.4,25.1c-1.3,3.9-3.8,7.4-5.9,11.2c3.2-0.3,6.8-0.9,9.6,2C5351.7,77.6,5351.9,80.9,5349.2,84.5z"/>
<path class="st0" d="M6363.6,84.5c4.3,0,8.2-0.3,12.1,0.1c2.7,0.3,5.5,1.2,8,2.4c7.3,3.4,15,5.2,22.9,5.5c12.2,0.6,24.1,2.7,36,5.5
	c0.3,0.1,0.5,0.2,1.6,0.7c-1.6,0.3-2.6,0.5-3.5,0.6c-17.5,2.1-35,1.8-52.6,1.7c-13.4-0.1-26.8,0.3-40.2,0.8
	c-4.6,0.2-8.8-0.2-12.8-2.4c-6.4-3.5-13-3.9-19.9-2.1c-4.4,1.2-8.6,1.7-12.7-1.4c-1.1-0.9-3.3-0.7-5-0.4c-2.8,0.4-5.5,1.1-8.2,1.7
	c-6.9,1.6-13.6,2.2-20.8,1.7c-11.3-0.8-22.7,0-34.1,0.1c-2.7,0-5.4-0.2-8.1,0c-2.6,0.2-4-1-4.8-3.2c-1.4-3.7-4.5-4.7-7.8-4.7
	c-7.6,0.1-15.2,0.5-22.7,0.7c-13.9,0.4-27.7,0.9-41.6,1.3c-1,0-2-0.5-3.1-0.8c0.6-1,0.9-2.7,1.8-3c4.5-1.7,9.1-3.6,13.9-4.5
	c5.3-1,10.7-0.9,16.1-1.3c0.6,0,1.3-0.1,2.4-0.2c-3.1-5.7-4.5-11.3-1.8-17.2c1.9-4.2,4.9-7.4,8.9-9.6c4.2-2.3,8.6-3.3,13.4-2.3
	c4.9,1,8,4.2,10.6,8.1c0.2-4.3,0.1-8.5,0.8-12.5c3.1-18,23.6-29.5,39.7-22.4c6.3,2.8,10.6,7.6,13.6,13.7c0.9,1.7,1.8,2.5,3.8,2.1
	c5.8-1.2,10.6,0.9,14.9,5.8c0.7-5.5,3.5-8.8,7.1-11.5c2.9-2.2,5.9-3.6,9.9-2.4c3.8,1.2,7.6,1,11.4-1c12.6-6.4,24.9-5.6,36.7,2.3
	c9.3,6.3,13.4,15.9,10.4,25.1c-1.3,3.9-3.8,7.4-5.9,11.2c3.2-0.3,6.8-0.9,9.6,2C6366.1,77.6,6366.2,80.9,6363.6,84.5z"/>
<path class="st0" d="M6736.7,54.3c4.2-1.2,7.9-2.7,11.7-3.2c9.1-1.2,15,5,13.9,14.1c0,0.4,0,0.8,0,0.5c2.5,0.6,5.3,0.6,6.8,1.9
	c1.5,1.3,1.6,4,2.4,6.2c1.2,0,3.4-0.6,5,0.2c1.5,0.7,2.2,2.9,3.1,4.6c10.9,4.4,22.5,5.5,34.3,5c9.9-0.4,19.9,0.3,29.4,3.4
	c2,0.6,3.9,1.7,5.8,2.6c-0.1,0.3-0.1,0.6-0.2,1c-0.9,0.1-1.8,0.3-2.7,0.3c-33.9-0.9-67.6,1.7-101.4,2.6c-13.9,0.4-27.7-0.3-41.6-0.5
	c-5.8-0.1-11.4,0.5-17,2.4c-6.2,2.1-12.7,2-18.5-2.1c-2-1.4-4.2-2.7-6.3-4.1c-3.4-2.3-6.6-2-10.3-0.4c-4.7,2.1-9.6,3.8-14.6,5
	c-2.5,0.6-5.6,0.1-8.2-0.8c-8.8-3-17.7-2.2-26.6-1.5c-2.7,0.2-5.4,0.7-8,1c-0.3,0-0.6,0.1-0.9,0.1c-3.5,0.2-6.5-1.6-6.8-4.1
	c-0.3-2.4,1.8-5,5.2-5.7c2.2-0.5,4.6-0.6,6.9-0.3c6.3,0.8,11.8-1,16.8-4.6c4.9-3.5,10.3-5.2,16.4-4.1c2.5,0.5,4.9,1.5,7.2,2.2
	c0.2-3.6,0.2-7.2,0.7-10.7c0.6-4.3,2.6-8.1,5.5-11.3c4.7-5.1,10.6-6.1,16.8-2.9c0.6,0.3,1.2,0.6,2,1c-1.5-10.8,5.5-15.5,13.6-19
	c5.8-2.6,12-3.4,18.4-2c8,1.7,13.1,6.6,15.6,14.3c0.4,1.2,0.7,2.4,1.2,4.2c3.6-5.4,8.2-8,14.3-6.7
	C6732.5,44.2,6735.9,48.3,6736.7,54.3z"/>
<path class="st0" d="M7913,84.5c4.3,0,8.2-0.3,12.1,0.1c2.7,0.3,5.5,1.2,8,2.4c7.3,3.4,15,5.2,22.9,5.5c12.2,0.6,24.1,2.7,36,5.5
	c0.3,0.1,0.5,0.2,1.6,0.7c-1.6,0.3-2.6,0.5-3.5,0.6c-17.5,2.1-35,1.8-52.6,1.7c-13.4-0.1-26.8,0.3-40.2,0.8
	c-4.6,0.2-8.8-0.2-12.8-2.4c-6.4-3.5-13-3.9-19.9-2.1c-4.4,1.2-8.6,1.7-12.7-1.4c-1.1-0.9-3.3-0.7-5-0.4c-2.8,0.4-5.5,1.1-8.2,1.7
	c-6.9,1.6-13.6,2.2-20.8,1.7c-11.3-0.8-22.7,0-34.1,0.1c-2.7,0-5.4-0.2-8.1,0c-2.6,0.2-4-1-4.8-3.2c-1.4-3.7-4.5-4.7-7.8-4.7
	c-7.6,0.1-15.2,0.5-22.7,0.7c-13.9,0.4-27.7,0.9-41.6,1.3c-1,0-2-0.5-3.1-0.8c0.6-1,0.9-2.7,1.8-3c4.5-1.7,9.1-3.6,13.9-4.5
	c5.3-1,10.7-0.9,16.1-1.3c0.6,0,1.3-0.1,2.4-0.2c-3.1-5.7-4.5-11.3-1.8-17.2c1.9-4.2,4.9-7.4,8.9-9.6c4.2-2.3,8.6-3.3,13.4-2.3
	c4.9,1,8,4.2,10.6,8.1c0.2-4.3,0.1-8.5,0.8-12.5c3.1-18,23.6-29.5,39.7-22.4c6.3,2.8,10.6,7.6,13.6,13.7c0.9,1.7,1.8,2.5,3.8,2.1
	c5.8-1.2,10.6,0.9,14.9,5.8c0.7-5.5,3.4-8.8,7.1-11.5c2.9-2.2,5.9-3.6,9.9-2.4c3.8,1.2,7.6,1,11.4-1c12.6-6.4,24.9-5.6,36.7,2.3
	c9.3,6.3,13.4,15.9,10.4,25.1c-1.3,3.9-3.8,7.4-5.9,11.2c3.2-0.3,6.8-0.9,9.6,2C7915.5,77.6,7915.7,80.9,7913,84.5z"/>
<path class="st0" d="M5440.6,157.4c5.5-2.5,11.6-3.2,17.5-4.6c-0.1-3.8,0.7-4.9,4.3-5.5c1.3-0.2,2.7-0.2,4-0.1
	c1.3,0.1,2.6,0.5,3.9,0.8c0.4-5.3,2.2-7.4,7.4-8.3c2.6-0.4,5.4-0.6,8,0c1.9,0.5,3.8,2.1,5.1,3.7c1.3,1.7,2.4,2.3,4.3,1.6
	c1.5-0.6,3.1-1.2,4.7-1.5c3.7-0.8,7.4-1.2,10.6,1.8c0.8,0.8,2.7,1,3.9,0.6c8.5-2.8,16.3-2.5,23.1,4c1.5,1.4,3.1,1.6,5.3,1.2
	c2.9-0.6,6.1-0.3,9,0.1c1,0.2,2.6,1.9,2.6,2.9c0,1.1-1.3,2.8-2.4,3.1c-2.1,0.7-4.5,0.8-6.8,0.9c-4,0.2-8,0.2-12.1,0.3
	c-1.5,0-3.2,0.4-4.6,0c-3.8-1.2-7.3-0.1-11,0.2c-7.5,0.6-15,0.3-22.5,0.4c-1.5,0-3.1,0-4.5,0.4c-6.2,1.6-12.3,2.4-18-1.7
	c-0.9-0.6-2.6-0.4-3.9-0.3c-7.3,0.6-14.6,1.3-21.9,1.8c-1.9,0.1-3.9-0.3-5.8-0.5C5440.7,158.3,5440.6,157.8,5440.6,157.4z"/>
<path class="st0" d="M5315.3,173.2c3.7-5.4,7.4-6.3,13-3.2c6-4,7-4.2,11.8-2.6c2.1-2.2,3.8-4.6,6.1-5.9c1.5-0.9,4-0.6,5.9-0.2
	c3.9,0.9,5.3,3.6,5.3,9.4c3.2,0.2,5.9,1.1,5.9,5.1c0,0.5,1.1,0.8,1.6,1.4c0.9,1,1.7,2.1,2.6,3.1c-1.2,0.9-2.3,2.3-3.6,2.5
	c-2.6,0.3-5.4,0.3-8-0.2c-3.9-0.6-7.5-0.3-11.4,0.4c-3.7,0.7-7.6,0.6-11.4,0.2c-3.6-0.4-6.9-0.5-10.5,0.4c-2.9,0.7-6.1,0.5-9-0.2
	c-3.6-0.8-5.7-4-5.2-6.7C5308.8,174,5311.1,172.9,5315.3,173.2z"/>
</svg>
